SplineFontDB: 3.2
FontName: NKLDubai-Light
FullName: NKL Dubai Light
FamilyName: NKL Dubai
Weight: Light
Copyright: Copyright (c) 2016 Dubai Executive Council. All rights reserved.\n\nModified by Niskala5570 for Malay Jawi, Javanese Pegon.etc support and removed some unimportant Latin glyph.\nhttps://github.com/niskala5570/pasuanjawi\n(23/5/2022)
Version: v2.872 Jawi 2022
ItalicAngle: 0
UnderlinePosition: -100
UnderlineWidth: 50
Ascent: 800
Descent: 200
InvalidEm: 0
LayerCount: 2
Layer: 0 1 "Back" 1
Layer: 1 1 "Fore" 0
XUID: [1021 382 1457897002 26463]
StyleMap: 0x0000
FSType: 8
OS2Version: 4
OS2_WeightWidthSlopeOnly: 1
OS2_UseTypoMetrics: 0
CreationTime: 1475835404
ModificationTime: 1653309645
PfmFamily: 17
TTFWeight: 300
TTFWidth: 5
LineGap: 0
VLineGap: 0
Panose: 2 11 3 3 3 4 3 3 2 4
OS2TypoAscent: 758
OS2TypoAOffset: 0
OS2TypoDescent: -246
OS2TypoDOffset: 0
OS2TypoLinegap: 200
OS2WinAscent: 1129
OS2WinAOffset: 0
OS2WinDescent: 559
OS2WinDOffset: 0
HheadAscent: 1129
HheadAOffset: 0
HheadDescent: -559
HheadDOffset: 0
OS2SubXSize: 650
OS2SubYSize: 600
OS2SubXOff: 0
OS2SubYOff: 75
OS2SupXSize: 650
OS2SupYSize: 600
OS2SupXOff: 0
OS2SupYOff: 350
OS2StrikeYSize: 50
OS2StrikeYPos: 337
OS2CapHeight: 648
OS2XHeight: 430
OS2Vendor: 'MONO'
OS2CodePages: 20000041.00000000
OS2UnicodeRanges: 80002067.80000000.00000008.00000000
Lookup: 1 0 0 "'aalt' Access All Alternates in Arabic lookup 0" { "'aalt' Access All Alternates in Arabic lookup 0 subtable"  } ['aalt' ('DFLT' <'dflt' > 'arab' <'URD ' 'dflt' > ) ]
Lookup: 3 0 0 "'aalt' Access All Alternates in Arabic lookup 1" { "'aalt' Access All Alternates in Arabic lookup 1 subtable"  } ['aalt' ('DFLT' <'dflt' > 'arab' <'URD ' 'dflt' > ) ]

StartChar: .notdef
Encoding: 521 -1 0
Width: 540
GlyphClass: 1
Flags: W
LayerCount: 2
Fore
SplineSet
80 0 m 1,0,-1
 80 688 l 1,1,-1
 460 688 l 1,2,-1
 460 0 l 1,3,-1
 80 0 l 1,0,-1
156 72 m 1,4,-1
 383 72 l 1,5,-1
 383 616 l 1,6,-1
 156 616 l 1,7,-1
 156 72 l 1,4,-1
EndSplineSet
PairPos2: "'kern' Horizontal Kerning in Arabic lookup 2 per glyph data 2" uni0671 dx=60 dy=0 dh=60 dv=0 dx=0 dy=0 dh=0 dv=0
PairPos2: "'kern' Horizontal Kerning in Arabic lookup 2 per glyph data 2" afii57410 dx=60 dy=0 dh=60 dv=0 dx=0 dy=0 dh=0 dv=0
PairPos2: "'kern' Horizontal Kerning in Arabic lookup 2 per glyph data 2" afii57411 dx=60 dy=0 dh=60 dv=0 dx=0 dy=0 dh=0 dv=0
PairPos2: "'kern' Horizontal Kerning in Arabic lookup 2 per glyph data 2" uniFE8E.short dx=60 dy=0 dh=60 dv=0 dx=0 dy=0 dh=0 dv=0
PairPos2: "'kern' Horizontal Kerning in Arabic lookup 2 per glyph data 2" afii57415.short dx=60 dy=0 dh=60 dv=0 dx=0 dy=0 dh=0 dv=0
PairPos2: "'kern' Horizontal Kerning in Arabic lookup 2 per glyph data 2" afii57415 dx=60 dy=0 dh=60 dv=0 dx=0 dy=0 dh=0 dv=0
PairPos2: "'kern' Horizontal Kerning in Arabic lookup 2 per glyph data 1" uniFEF3 dx=40 dy=0 dh=40 dv=0 dx=0 dy=0 dh=0 dv=0
PairPos2: "'kern' Horizontal Kerning in Arabic lookup 2 per glyph data 1" uniFB58 dx=40 dy=0 dh=40 dv=0 dx=0 dy=0 dh=0 dv=0
PairPos2: "'kern' Horizontal Kerning in Arabic lookup 2 per glyph data 1" afii57413 dx=40 dy=0 dh=40 dv=0 dx=0 dy=0 dh=0 dv=0
PairPos2: "'kern' Horizontal Kerning in Arabic lookup 2 per glyph data 1" uniFB94 dx=110 dy=0 dh=110 dv=0 dx=0 dy=0 dh=0 dv=0
PairPos2: "'kern' Horizontal Kerning in Arabic lookup 2 per glyph data 1" afii57509 dx=110 dy=0 dh=110 dv=0 dx=0 dy=0 dh=0 dv=0
PairPos2: "'kern' Horizontal Kerning in Arabic lookup 2 per glyph data 1" uniFB90 dx=110 dy=0 dh=110 dv=0 dx=0 dy=0 dh=0 dv=0
PairPos2: "'kern' Horizontal Kerning in Arabic lookup 2 per glyph data 1" uni06A9 dx=110 dy=0 dh=110 dv=0 dx=0 dy=0 dh=0 dv=0
PairPos2: "'kern' Horizontal Kerning in Arabic lookup 2 per glyph data 1" uniFEDB dx=110 dy=0 dh=110 dv=0 dx=0 dy=0 dh=0 dv=0
EndChar

StartChar: A
Encoding: 35 65 4
Width: 615
GlyphClass: 2
Flags: W
AnchorPoint: "Anchor-8" 0 0 basechar 0
AnchorPoint: "Anchor-7" 0 0 basechar 0
AnchorPoint: "Anchor-6" 307 648 basechar 0
AnchorPoint: "Anchor-5" 625 10 basechar 0
AnchorPoint: "Anchor-4" 308 0 basechar 0
LayerCount: 2
Fore
SplineSet
337 648 m 1,0,-1
 594 5 l 1,1,-1
 594 0 l 1,2,-1
 536 0 l 1,3,-1
 456 203 l 1,4,-1
 155 203 l 1,5,-1
 76 0 l 1,6,-1
 22 0 l 1,7,-1
 22 5 l 1,8,-1
 277 648 l 1,9,-1
 337 648 l 1,0,-1
174 250 m 1,10,-1
 438 250 l 1,11,-1
 306 588 l 1,12,-1
 174 250 l 1,10,-1
EndSplineSet
Substitution2: "Single Substitution lookup 23 subtable" ordfeminine
Substitution2: "'aalt' Access All Alternates in Arabic lookup 0 subtable" ordfeminine
PairPos2: "'kern' Horizontal Kerning in Arabic lookup 2 per glyph data 2" uni0671 dx=60 dy=0 dh=60 dv=0 dx=0 dy=0 dh=0 dv=0
PairPos2: "'kern' Horizontal Kerning in Arabic lookup 2 per glyph data 2" afii57410 dx=60 dy=0 dh=60 dv=0 dx=0 dy=0 dh=0 dv=0
PairPos2: "'kern' Horizontal Kerning in Arabic lookup 2 per glyph data 2" afii57411 dx=60 dy=0 dh=60 dv=0 dx=0 dy=0 dh=0 dv=0
PairPos2: "'kern' Horizontal Kerning in Arabic lookup 2 per glyph data 2" uniFE8E.short dx=60 dy=0 dh=60 dv=0 dx=0 dy=0 dh=0 dv=0
PairPos2: "'kern' Horizontal Kerning in Arabic lookup 2 per glyph data 2" afii57415.short dx=60 dy=0 dh=60 dv=0 dx=0 dy=0 dh=0 dv=0
PairPos2: "'kern' Horizontal Kerning in Arabic lookup 2 per glyph data 2" afii57415 dx=60 dy=0 dh=60 dv=0 dx=0 dy=0 dh=0 dv=0
PairPos2: "'kern' Horizontal Kerning in Arabic lookup 2 per glyph data 1" uniFEF3 dx=40 dy=0 dh=40 dv=0 dx=0 dy=0 dh=0 dv=0
PairPos2: "'kern' Horizontal Kerning in Arabic lookup 2 per glyph data 1" uniFB58 dx=40 dy=0 dh=40 dv=0 dx=0 dy=0 dh=0 dv=0
PairPos2: "'kern' Horizontal Kerning in Arabic lookup 2 per glyph data 1" afii57413 dx=40 dy=0 dh=40 dv=0 dx=0 dy=0 dh=0 dv=0
PairPos2: "'kern' Horizontal Kerning in Arabic lookup 2 per glyph data 1" uniFB94 dx=110 dy=0 dh=110 dv=0 dx=0 dy=0 dh=0 dv=0
PairPos2: "'kern' Horizontal Kerning in Arabic lookup 2 per glyph data 1" afii57509 dx=110 dy=0 dh=110 dv=0 dx=0 dy=0 dh=0 dv=0
PairPos2: "'kern' Horizontal Kerning in Arabic lookup 2 per glyph data 1" uniFB90 dx=110 dy=0 dh=110 dv=0 dx=0 dy=0 dh=0 dv=0
PairPos2: "'kern' Horizontal Kerning in Arabic lookup 2 per glyph data 1" uni06A9 dx=110 dy=0 dh=110 dv=0 dx=0 dy=0 dh=0 dv=0
PairPos2: "'kern' Horizontal Kerning in Arabic lookup 2 per glyph data 1" uniFEDB dx=110 dy=0 dh=110 dv=0 dx=0 dy=0 dh=0 dv=0
EndChar

StartChar: B
Encoding: 36 66 5
Width: 595
GlyphClass: 2
Flags: W
AnchorPoint: "Anchor-8" 0 0 basechar 0
AnchorPoint: "Anchor-7" 0 0 basechar 0
AnchorPoint: "Anchor-6" 286 648 basechar 0
AnchorPoint: "Anchor-5" 192 10 basechar 0
AnchorPoint: "Anchor-4" 286 0 basechar 0
LayerCount: 2
Fore
SplineSet
504.5 281 m 128,-1,1
 543 238 543 238 543 175 c 0,2,3
 543 126 543 126 519.5 86.5 c 128,-1,4
 496 47 496 47 443 23.5 c 128,-1,5
 390 0 390 0 307 0 c 2,6,-1
 97 0 l 1,7,-1
 97 648 l 1,8,-1
 304 648 l 2,9,10
 371 648 371 648 419 629 c 128,-1,11
 467 610 467 610 492.5 573.5 c 128,-1,12
 518 537 518 537 518 485 c 256,13,14
 518 433 518 433 487.5 393 c 128,-1,15
 457 353 457 353 389 336 c 1,16,0
 466 324 466 324 504.5 281 c 128,-1,1
152 601 m 1,17,-1
 152 354 l 1,18,-1
 296 354 l 2,19,20
 368 354 368 354 415 385.5 c 128,-1,21
 462 417 462 417 462 485 c 0,22,23
 462 519 462 519 445 545 c 128,-1,24
 428 571 428 571 394 586 c 128,-1,25
 360 601 360 601 311 601 c 2,26,-1
 152 601 l 1,17,-1
444.5 83 m 128,-1,28
 486 119 486 119 486 176 c 0,29,30
 486 239 486 239 442 273.5 c 128,-1,31
 398 308 398 308 315 308 c 2,32,-1
 152 308 l 1,33,-1
 152 47 l 1,34,-1
 314 47 l 2,35,27
 403 47 403 47 444.5 83 c 128,-1,28
EndSplineSet
PairPos2: "'kern' Horizontal Kerning in Arabic lookup 2 per glyph data 2" uni0671 dx=60 dy=0 dh=60 dv=0 dx=0 dy=0 dh=0 dv=0
PairPos2: "'kern' Horizontal Kerning in Arabic lookup 2 per glyph data 2" afii57410 dx=60 dy=0 dh=60 dv=0 dx=0 dy=0 dh=0 dv=0
PairPos2: "'kern' Horizontal Kerning in Arabic lookup 2 per glyph data 2" afii57411 dx=60 dy=0 dh=60 dv=0 dx=0 dy=0 dh=0 dv=0
PairPos2: "'kern' Horizontal Kerning in Arabic lookup 2 per glyph data 2" uniFE8E.short dx=60 dy=0 dh=60 dv=0 dx=0 dy=0 dh=0 dv=0
PairPos2: "'kern' Horizontal Kerning in Arabic lookup 2 per glyph data 2" afii57415.short dx=60 dy=0 dh=60 dv=0 dx=0 dy=0 dh=0 dv=0
PairPos2: "'kern' Horizontal Kerning in Arabic lookup 2 per glyph data 2" afii57415 dx=60 dy=0 dh=60 dv=0 dx=0 dy=0 dh=0 dv=0
PairPos2: "'kern' Horizontal Kerning in Arabic lookup 2 per glyph data 1" uniFEF3 dx=40 dy=0 dh=40 dv=0 dx=0 dy=0 dh=0 dv=0
PairPos2: "'kern' Horizontal Kerning in Arabic lookup 2 per glyph data 1" uniFB58 dx=40 dy=0 dh=40 dv=0 dx=0 dy=0 dh=0 dv=0
PairPos2: "'kern' Horizontal Kerning in Arabic lookup 2 per glyph data 1" afii57413 dx=40 dy=0 dh=40 dv=0 dx=0 dy=0 dh=0 dv=0
PairPos2: "'kern' Horizontal Kerning in Arabic lookup 2 per glyph data 1" uniFB94 dx=110 dy=0 dh=110 dv=0 dx=0 dy=0 dh=0 dv=0
PairPos2: "'kern' Horizontal Kerning in Arabic lookup 2 per glyph data 1" afii57509 dx=110 dy=0 dh=110 dv=0 dx=0 dy=0 dh=0 dv=0
PairPos2: "'kern' Horizontal Kerning in Arabic lookup 2 per glyph data 1" uniFB90 dx=110 dy=0 dh=110 dv=0 dx=0 dy=0 dh=0 dv=0
PairPos2: "'kern' Horizontal Kerning in Arabic lookup 2 per glyph data 1" uni06A9 dx=110 dy=0 dh=110 dv=0 dx=0 dy=0 dh=0 dv=0
PairPos2: "'kern' Horizontal Kerning in Arabic lookup 2 per glyph data 1" uniFEDB dx=110 dy=0 dh=110 dv=0 dx=0 dy=0 dh=0 dv=0
EndChar

StartChar: C
Encoding: 37 67 6
Width: 568
GlyphClass: 2
Flags: W
AnchorPoint: "Anchor-8" 0 0 basechar 0
AnchorPoint: "Anchor-7" 0 0 basechar 0
AnchorPoint: "Anchor-6" 346 648 basechar 0
AnchorPoint: "Anchor-5" 0 0 basechar 0
AnchorPoint: "Anchor-4" 338 0 basechar 0
LayerCount: 2
Fore
SplineSet
183.5 31 m 128,-1,1
 118 73 118 73 85 148.5 c 128,-1,2
 52 224 52 224 52 325 c 0,3,4
 52 438 52 438 93 513 c 128,-1,5
 134 588 134 588 200 623.5 c 128,-1,6
 266 659 266 659 343 659 c 0,7,8
 402 659 402 659 451 644 c 128,-1,9
 500 629 500 629 548 601 c 1,10,-1
 523 559 l 1,11,12
 480 584 480 584 439 597 c 128,-1,13
 398 610 398 610 344 610 c 0,14,15
 268 610 268 610 215 574 c 128,-1,16
 162 538 162 538 135.5 474 c 128,-1,17
 109 410 109 410 109 327 c 0,18,19
 109 243 109 243 135 178 c 128,-1,20
 161 113 161 113 213.5 75.5 c 128,-1,21
 266 38 266 38 343 38 c 0,22,23
 395 38 395 38 439.5 52 c 128,-1,24
 484 66 484 66 529 91 c 1,25,-1
 552 50 l 1,26,27
 450 -11 450 -11 342 -11 c 0,28,0
 249 -11 249 -11 183.5 31 c 128,-1,1
EndSplineSet
PairPos2: "'kern' Horizontal Kerning in Arabic lookup 2 per glyph data 2" uni0671 dx=60 dy=0 dh=60 dv=0 dx=0 dy=0 dh=0 dv=0
PairPos2: "'kern' Horizontal Kerning in Arabic lookup 2 per glyph data 2" afii57410 dx=60 dy=0 dh=60 dv=0 dx=0 dy=0 dh=0 dv=0
PairPos2: "'kern' Horizontal Kerning in Arabic lookup 2 per glyph data 2" afii57411 dx=60 dy=0 dh=60 dv=0 dx=0 dy=0 dh=0 dv=0
PairPos2: "'kern' Horizontal Kerning in Arabic lookup 2 per glyph data 2" uniFE8E.short dx=60 dy=0 dh=60 dv=0 dx=0 dy=0 dh=0 dv=0
PairPos2: "'kern' Horizontal Kerning in Arabic lookup 2 per glyph data 2" afii57415.short dx=60 dy=0 dh=60 dv=0 dx=0 dy=0 dh=0 dv=0
PairPos2: "'kern' Horizontal Kerning in Arabic lookup 2 per glyph data 2" afii57415 dx=60 dy=0 dh=60 dv=0 dx=0 dy=0 dh=0 dv=0
PairPos2: "'kern' Horizontal Kerning in Arabic lookup 2 per glyph data 1" uniFEF3 dx=40 dy=0 dh=40 dv=0 dx=0 dy=0 dh=0 dv=0
PairPos2: "'kern' Horizontal Kerning in Arabic lookup 2 per glyph data 1" uniFB58 dx=40 dy=0 dh=40 dv=0 dx=0 dy=0 dh=0 dv=0
PairPos2: "'kern' Horizontal Kerning in Arabic lookup 2 per glyph data 1" afii57413 dx=40 dy=0 dh=40 dv=0 dx=0 dy=0 dh=0 dv=0
PairPos2: "'kern' Horizontal Kerning in Arabic lookup 2 per glyph data 1" uniFB94 dx=110 dy=0 dh=110 dv=0 dx=0 dy=0 dh=0 dv=0
PairPos2: "'kern' Horizontal Kerning in Arabic lookup 2 per glyph data 1" afii57509 dx=110 dy=0 dh=110 dv=0 dx=0 dy=0 dh=0 dv=0
PairPos2: "'kern' Horizontal Kerning in Arabic lookup 2 per glyph data 1" uniFB90 dx=110 dy=0 dh=110 dv=0 dx=0 dy=0 dh=0 dv=0
PairPos2: "'kern' Horizontal Kerning in Arabic lookup 2 per glyph data 1" uni06A9 dx=110 dy=0 dh=110 dv=0 dx=0 dy=0 dh=0 dv=0
PairPos2: "'kern' Horizontal Kerning in Arabic lookup 2 per glyph data 1" uniFEDB dx=110 dy=0 dh=110 dv=0 dx=0 dy=0 dh=0 dv=0
EndChar

StartChar: D
Encoding: 38 68 7
Width: 652
GlyphClass: 2
Flags: W
AnchorPoint: "Anchor-8" 0 0 basechar 0
AnchorPoint: "Anchor-7" 176 324 basechar 0
AnchorPoint: "Anchor-6" 291 648 basechar 0
AnchorPoint: "Anchor-5" 192 10 basechar 0
AnchorPoint: "Anchor-4" 317 0 basechar 0
LayerCount: 2
Fore
SplineSet
517.5 569 m 128,-1,1
 601 490 601 490 601 324 c 0,2,3
 601 159 601 159 509 79.5 c 128,-1,4
 417 0 417 0 245 0 c 2,5,-1
 97 0 l 1,6,-1
 97 648 l 1,7,-1
 270 648 l 2,8,0
 434 648 434 648 517.5 569 c 128,-1,1
402 72 m 128,-1,10
 468 96 468 96 506 156.5 c 128,-1,11
 544 217 544 217 544 324 c 0,12,13
 544 462 544 462 478.5 531 c 128,-1,14
 413 600 413 600 274 600 c 2,15,-1
 152 600 l 1,16,-1
 152 48 l 1,17,-1
 244 48 l 2,18,9
 336 48 336 48 402 72 c 128,-1,10
EndSplineSet
PairPos2: "'kern' Horizontal Kerning in Arabic lookup 2 per glyph data 2" uni0671 dx=60 dy=0 dh=60 dv=0 dx=0 dy=0 dh=0 dv=0
PairPos2: "'kern' Horizontal Kerning in Arabic lookup 2 per glyph data 2" afii57410 dx=60 dy=0 dh=60 dv=0 dx=0 dy=0 dh=0 dv=0
PairPos2: "'kern' Horizontal Kerning in Arabic lookup 2 per glyph data 2" afii57411 dx=60 dy=0 dh=60 dv=0 dx=0 dy=0 dh=0 dv=0
PairPos2: "'kern' Horizontal Kerning in Arabic lookup 2 per glyph data 2" uniFE8E.short dx=60 dy=0 dh=60 dv=0 dx=0 dy=0 dh=0 dv=0
PairPos2: "'kern' Horizontal Kerning in Arabic lookup 2 per glyph data 2" afii57415.short dx=60 dy=0 dh=60 dv=0 dx=0 dy=0 dh=0 dv=0
PairPos2: "'kern' Horizontal Kerning in Arabic lookup 2 per glyph data 2" afii57415 dx=60 dy=0 dh=60 dv=0 dx=0 dy=0 dh=0 dv=0
PairPos2: "'kern' Horizontal Kerning in Arabic lookup 2 per glyph data 1" uniFEF3 dx=40 dy=0 dh=40 dv=0 dx=0 dy=0 dh=0 dv=0
PairPos2: "'kern' Horizontal Kerning in Arabic lookup 2 per glyph data 1" uniFB58 dx=40 dy=0 dh=40 dv=0 dx=0 dy=0 dh=0 dv=0
PairPos2: "'kern' Horizontal Kerning in Arabic lookup 2 per glyph data 1" afii57413 dx=40 dy=0 dh=40 dv=0 dx=0 dy=0 dh=0 dv=0
PairPos2: "'kern' Horizontal Kerning in Arabic lookup 2 per glyph data 1" uniFB94 dx=110 dy=0 dh=110 dv=0 dx=0 dy=0 dh=0 dv=0
PairPos2: "'kern' Horizontal Kerning in Arabic lookup 2 per glyph data 1" afii57509 dx=110 dy=0 dh=110 dv=0 dx=0 dy=0 dh=0 dv=0
PairPos2: "'kern' Horizontal Kerning in Arabic lookup 2 per glyph data 1" uniFB90 dx=110 dy=0 dh=110 dv=0 dx=0 dy=0 dh=0 dv=0
PairPos2: "'kern' Horizontal Kerning in Arabic lookup 2 per glyph data 1" uni06A9 dx=110 dy=0 dh=110 dv=0 dx=0 dy=0 dh=0 dv=0
PairPos2: "'kern' Horizontal Kerning in Arabic lookup 2 per glyph data 1" uniFEDB dx=110 dy=0 dh=110 dv=0 dx=0 dy=0 dh=0 dv=0
EndChar

StartChar: E
Encoding: 39 69 8
Width: 540
GlyphClass: 2
Flags: W
AnchorPoint: "Anchor-8" 0 0 basechar 0
AnchorPoint: "Anchor-7" 0 0 basechar 0
AnchorPoint: "Anchor-6" 300 648 basechar 0
AnchorPoint: "Anchor-5" 482 10 basechar 0
AnchorPoint: "Anchor-4" 304 0 basechar 0
LayerCount: 2
Fore
SplineSet
152 48 m 1,0,-1
 482 48 l 1,1,-1
 482 0 l 1,2,-1
 97 0 l 1,3,-1
 97 648 l 1,4,-1
 477 648 l 1,5,-1
 477 600 l 1,6,-1
 152 600 l 1,7,-1
 152 352 l 1,8,-1
 438 352 l 1,9,-1
 432 305 l 1,10,-1
 152 305 l 1,11,-1
 152 48 l 1,0,-1
EndSplineSet
PairPos2: "'kern' Horizontal Kerning in Arabic lookup 2 per glyph data 2" uni0671 dx=60 dy=0 dh=60 dv=0 dx=0 dy=0 dh=0 dv=0
PairPos2: "'kern' Horizontal Kerning in Arabic lookup 2 per glyph data 2" afii57410 dx=60 dy=0 dh=60 dv=0 dx=0 dy=0 dh=0 dv=0
PairPos2: "'kern' Horizontal Kerning in Arabic lookup 2 per glyph data 2" afii57411 dx=60 dy=0 dh=60 dv=0 dx=0 dy=0 dh=0 dv=0
PairPos2: "'kern' Horizontal Kerning in Arabic lookup 2 per glyph data 2" uniFE8E.short dx=60 dy=0 dh=60 dv=0 dx=0 dy=0 dh=0 dv=0
PairPos2: "'kern' Horizontal Kerning in Arabic lookup 2 per glyph data 2" afii57415.short dx=60 dy=0 dh=60 dv=0 dx=0 dy=0 dh=0 dv=0
PairPos2: "'kern' Horizontal Kerning in Arabic lookup 2 per glyph data 2" afii57415 dx=60 dy=0 dh=60 dv=0 dx=0 dy=0 dh=0 dv=0
PairPos2: "'kern' Horizontal Kerning in Arabic lookup 2 per glyph data 1" uniFEF3 dx=40 dy=0 dh=40 dv=0 dx=0 dy=0 dh=0 dv=0
PairPos2: "'kern' Horizontal Kerning in Arabic lookup 2 per glyph data 1" uniFB58 dx=40 dy=0 dh=40 dv=0 dx=0 dy=0 dh=0 dv=0
PairPos2: "'kern' Horizontal Kerning in Arabic lookup 2 per glyph data 1" afii57413 dx=40 dy=0 dh=40 dv=0 dx=0 dy=0 dh=0 dv=0
PairPos2: "'kern' Horizontal Kerning in Arabic lookup 2 per glyph data 1" uniFB94 dx=110 dy=0 dh=110 dv=0 dx=0 dy=0 dh=0 dv=0
PairPos2: "'kern' Horizontal Kerning in Arabic lookup 2 per glyph data 1" afii57509 dx=110 dy=0 dh=110 dv=0 dx=0 dy=0 dh=0 dv=0
PairPos2: "'kern' Horizontal Kerning in Arabic lookup 2 per glyph data 1" uniFB90 dx=110 dy=0 dh=110 dv=0 dx=0 dy=0 dh=0 dv=0
PairPos2: "'kern' Horizontal Kerning in Arabic lookup 2 per glyph data 1" uni06A9 dx=110 dy=0 dh=110 dv=0 dx=0 dy=0 dh=0 dv=0
PairPos2: "'kern' Horizontal Kerning in Arabic lookup 2 per glyph data 1" uniFEDB dx=110 dy=0 dh=110 dv=0 dx=0 dy=0 dh=0 dv=0
EndChar

StartChar: F
Encoding: 40 70 9
Width: 511
GlyphClass: 2
Flags: W
AnchorPoint: "Anchor-8" 0 0 basechar 0
AnchorPoint: "Anchor-7" 0 0 basechar 0
AnchorPoint: "Anchor-6" 178 648 basechar 0
AnchorPoint: "Anchor-5" 192 10 basechar 0
AnchorPoint: "Anchor-4" 125 0 basechar 0
LayerCount: 2
Fore
SplineSet
477 600 m 1,0,-1
 152 600 l 1,1,-1
 152 339 l 1,2,-1
 438 339 l 1,3,-1
 432 291 l 1,4,-1
 152 291 l 1,5,-1
 152 0 l 1,6,-1
 97 0 l 1,7,-1
 97 648 l 1,8,-1
 477 648 l 1,9,-1
 477 600 l 1,0,-1
EndSplineSet
PairPos2: "'kern' Horizontal Kerning in Arabic lookup 2 per glyph data 2" uni0671 dx=60 dy=0 dh=60 dv=0 dx=0 dy=0 dh=0 dv=0
PairPos2: "'kern' Horizontal Kerning in Arabic lookup 2 per glyph data 2" afii57410 dx=60 dy=0 dh=60 dv=0 dx=0 dy=0 dh=0 dv=0
PairPos2: "'kern' Horizontal Kerning in Arabic lookup 2 per glyph data 2" afii57411 dx=60 dy=0 dh=60 dv=0 dx=0 dy=0 dh=0 dv=0
PairPos2: "'kern' Horizontal Kerning in Arabic lookup 2 per glyph data 2" uniFE8E.short dx=60 dy=0 dh=60 dv=0 dx=0 dy=0 dh=0 dv=0
PairPos2: "'kern' Horizontal Kerning in Arabic lookup 2 per glyph data 2" afii57415.short dx=60 dy=0 dh=60 dv=0 dx=0 dy=0 dh=0 dv=0
PairPos2: "'kern' Horizontal Kerning in Arabic lookup 2 per glyph data 2" afii57415 dx=60 dy=0 dh=60 dv=0 dx=0 dy=0 dh=0 dv=0
PairPos2: "'kern' Horizontal Kerning in Arabic lookup 2 per glyph data 1" uniFEF3 dx=40 dy=0 dh=40 dv=0 dx=0 dy=0 dh=0 dv=0
PairPos2: "'kern' Horizontal Kerning in Arabic lookup 2 per glyph data 1" uniFB58 dx=40 dy=0 dh=40 dv=0 dx=0 dy=0 dh=0 dv=0
PairPos2: "'kern' Horizontal Kerning in Arabic lookup 2 per glyph data 1" afii57413 dx=40 dy=0 dh=40 dv=0 dx=0 dy=0 dh=0 dv=0
PairPos2: "'kern' Horizontal Kerning in Arabic lookup 2 per glyph data 1" uniFB94 dx=110 dy=0 dh=110 dv=0 dx=0 dy=0 dh=0 dv=0
PairPos2: "'kern' Horizontal Kerning in Arabic lookup 2 per glyph data 1" afii57509 dx=110 dy=0 dh=110 dv=0 dx=0 dy=0 dh=0 dv=0
PairPos2: "'kern' Horizontal Kerning in Arabic lookup 2 per glyph data 1" uniFB90 dx=110 dy=0 dh=110 dv=0 dx=0 dy=0 dh=0 dv=0
PairPos2: "'kern' Horizontal Kerning in Arabic lookup 2 per glyph data 1" uni06A9 dx=110 dy=0 dh=110 dv=0 dx=0 dy=0 dh=0 dv=0
PairPos2: "'kern' Horizontal Kerning in Arabic lookup 2 per glyph data 1" uniFEDB dx=110 dy=0 dh=110 dv=0 dx=0 dy=0 dh=0 dv=0
EndChar

StartChar: G
Encoding: 41 71 10
Width: 631
GlyphClass: 2
Flags: W
AnchorPoint: "Anchor-8" 0 0 basechar 0
AnchorPoint: "Anchor-7" 0 0 basechar 0
AnchorPoint: "Anchor-6" 352 648 basechar 0
AnchorPoint: "Anchor-5" 0 0 basechar 0
AnchorPoint: "Anchor-4" 342 0 basechar 0
LayerCount: 2
Fore
SplineSet
564 347 m 1,0,-1
 564 46 l 1,1,2
 507 17 507 17 457.5 3 c 128,-1,3
 408 -11 408 -11 348 -11 c 0,4,5
 251 -11 251 -11 184.5 31.5 c 128,-1,6
 118 74 118 74 85 149.5 c 128,-1,7
 52 225 52 225 52 325 c 0,8,9
 52 437 52 437 94.5 512.5 c 128,-1,10
 137 588 137 588 205.5 623.5 c 128,-1,11
 274 659 274 659 351 659 c 0,12,13
 464 659 464 659 549 602 c 1,14,-1
 523 560 l 1,15,16
 446 610 446 610 354 610 c 0,17,18
 276 610 276 610 221 574 c 128,-1,19
 166 538 166 538 137.5 474 c 128,-1,20
 109 410 109 410 109 327 c 0,21,22
 109 242 109 242 134 177 c 128,-1,23
 159 112 159 112 213 75 c 128,-1,24
 267 38 267 38 349 38 c 0,25,26
 396 38 396 38 433.5 47.5 c 128,-1,27
 471 57 471 57 509 75 c 1,28,-1
 509 300 l 1,29,-1
 331 300 l 1,30,-1
 337 347 l 1,31,-1
 564 347 l 1,0,-1
EndSplineSet
PairPos2: "'kern' Horizontal Kerning in Arabic lookup 2 per glyph data 2" uni0671 dx=60 dy=0 dh=60 dv=0 dx=0 dy=0 dh=0 dv=0
PairPos2: "'kern' Horizontal Kerning in Arabic lookup 2 per glyph data 2" afii57410 dx=60 dy=0 dh=60 dv=0 dx=0 dy=0 dh=0 dv=0
PairPos2: "'kern' Horizontal Kerning in Arabic lookup 2 per glyph data 2" afii57411 dx=60 dy=0 dh=60 dv=0 dx=0 dy=0 dh=0 dv=0
PairPos2: "'kern' Horizontal Kerning in Arabic lookup 2 per glyph data 2" uniFE8E.short dx=60 dy=0 dh=60 dv=0 dx=0 dy=0 dh=0 dv=0
PairPos2: "'kern' Horizontal Kerning in Arabic lookup 2 per glyph data 2" afii57415.short dx=60 dy=0 dh=60 dv=0 dx=0 dy=0 dh=0 dv=0
PairPos2: "'kern' Horizontal Kerning in Arabic lookup 2 per glyph data 2" afii57415 dx=60 dy=0 dh=60 dv=0 dx=0 dy=0 dh=0 dv=0
PairPos2: "'kern' Horizontal Kerning in Arabic lookup 2 per glyph data 1" uniFEF3 dx=40 dy=0 dh=40 dv=0 dx=0 dy=0 dh=0 dv=0
PairPos2: "'kern' Horizontal Kerning in Arabic lookup 2 per glyph data 1" uniFB58 dx=40 dy=0 dh=40 dv=0 dx=0 dy=0 dh=0 dv=0
PairPos2: "'kern' Horizontal Kerning in Arabic lookup 2 per glyph data 1" afii57413 dx=40 dy=0 dh=40 dv=0 dx=0 dy=0 dh=0 dv=0
PairPos2: "'kern' Horizontal Kerning in Arabic lookup 2 per glyph data 1" uniFB94 dx=110 dy=0 dh=110 dv=0 dx=0 dy=0 dh=0 dv=0
PairPos2: "'kern' Horizontal Kerning in Arabic lookup 2 per glyph data 1" afii57509 dx=110 dy=0 dh=110 dv=0 dx=0 dy=0 dh=0 dv=0
PairPos2: "'kern' Horizontal Kerning in Arabic lookup 2 per glyph data 1" uniFB90 dx=110 dy=0 dh=110 dv=0 dx=0 dy=0 dh=0 dv=0
PairPos2: "'kern' Horizontal Kerning in Arabic lookup 2 per glyph data 1" uni06A9 dx=110 dy=0 dh=110 dv=0 dx=0 dy=0 dh=0 dv=0
PairPos2: "'kern' Horizontal Kerning in Arabic lookup 2 per glyph data 1" uniFEDB dx=110 dy=0 dh=110 dv=0 dx=0 dy=0 dh=0 dv=0
EndChar

StartChar: H
Encoding: 42 72 11
Width: 704
GlyphClass: 2
Flags: W
AnchorPoint: "Anchor-8" 0 0 basechar 0
AnchorPoint: "Anchor-7" 352 442 basechar 0
AnchorPoint: "Anchor-6" 352 648 basechar 0
AnchorPoint: "Anchor-5" 0 0 basechar 0
AnchorPoint: "Anchor-4" 352 0 basechar 0
LayerCount: 2
Fore
SplineSet
552 648 m 1,0,-1
 607 648 l 1,1,-1
 607 0 l 1,2,-1
 552 0 l 1,3,-1
 552 305 l 1,4,-1
 152 305 l 1,5,-1
 152 0 l 1,6,-1
 97 0 l 1,7,-1
 97 648 l 1,8,-1
 152 648 l 1,9,-1
 152 353 l 1,10,-1
 552 353 l 1,11,-1
 552 648 l 1,0,-1
EndSplineSet
PairPos2: "'kern' Horizontal Kerning in Arabic lookup 2 per glyph data 2" uni0671 dx=60 dy=0 dh=60 dv=0 dx=0 dy=0 dh=0 dv=0
PairPos2: "'kern' Horizontal Kerning in Arabic lookup 2 per glyph data 2" afii57410 dx=60 dy=0 dh=60 dv=0 dx=0 dy=0 dh=0 dv=0
PairPos2: "'kern' Horizontal Kerning in Arabic lookup 2 per glyph data 2" afii57411 dx=60 dy=0 dh=60 dv=0 dx=0 dy=0 dh=0 dv=0
PairPos2: "'kern' Horizontal Kerning in Arabic lookup 2 per glyph data 2" uniFE8E.short dx=60 dy=0 dh=60 dv=0 dx=0 dy=0 dh=0 dv=0
PairPos2: "'kern' Horizontal Kerning in Arabic lookup 2 per glyph data 2" afii57415.short dx=60 dy=0 dh=60 dv=0 dx=0 dy=0 dh=0 dv=0
PairPos2: "'kern' Horizontal Kerning in Arabic lookup 2 per glyph data 2" afii57415 dx=60 dy=0 dh=60 dv=0 dx=0 dy=0 dh=0 dv=0
PairPos2: "'kern' Horizontal Kerning in Arabic lookup 2 per glyph data 1" uniFEF3 dx=40 dy=0 dh=40 dv=0 dx=0 dy=0 dh=0 dv=0
PairPos2: "'kern' Horizontal Kerning in Arabic lookup 2 per glyph data 1" uniFB58 dx=40 dy=0 dh=40 dv=0 dx=0 dy=0 dh=0 dv=0
PairPos2: "'kern' Horizontal Kerning in Arabic lookup 2 per glyph data 1" afii57413 dx=40 dy=0 dh=40 dv=0 dx=0 dy=0 dh=0 dv=0
PairPos2: "'kern' Horizontal Kerning in Arabic lookup 2 per glyph data 1" uniFB94 dx=110 dy=0 dh=110 dv=0 dx=0 dy=0 dh=0 dv=0
PairPos2: "'kern' Horizontal Kerning in Arabic lookup 2 per glyph data 1" afii57509 dx=110 dy=0 dh=110 dv=0 dx=0 dy=0 dh=0 dv=0
PairPos2: "'kern' Horizontal Kerning in Arabic lookup 2 per glyph data 1" uniFB90 dx=110 dy=0 dh=110 dv=0 dx=0 dy=0 dh=0 dv=0
PairPos2: "'kern' Horizontal Kerning in Arabic lookup 2 per glyph data 1" uni06A9 dx=110 dy=0 dh=110 dv=0 dx=0 dy=0 dh=0 dv=0
PairPos2: "'kern' Horizontal Kerning in Arabic lookup 2 per glyph data 1" uniFEDB dx=110 dy=0 dh=110 dv=0 dx=0 dy=0 dh=0 dv=0
EndChar

StartChar: I
Encoding: 43 73 12
Width: 249
GlyphClass: 2
Flags: W
AnchorPoint: "Anchor-8" 0 0 basechar 0
AnchorPoint: "Anchor-7" 0 0 basechar 0
AnchorPoint: "Anchor-6" 125 648 basechar 0
AnchorPoint: "Anchor-5" 192 10 basechar 0
AnchorPoint: "Anchor-4" 125 0 basechar 0
LayerCount: 2
Fore
SplineSet
97 0 m 1,0,-1
 97 648 l 1,1,-1
 152 648 l 1,2,-1
 152 0 l 1,3,-1
 97 0 l 1,0,-1
EndSplineSet
PairPos2: "'kern' Horizontal Kerning in Arabic lookup 2 per glyph data 2" uni0671 dx=60 dy=0 dh=60 dv=0 dx=0 dy=0 dh=0 dv=0
PairPos2: "'kern' Horizontal Kerning in Arabic lookup 2 per glyph data 2" afii57410 dx=60 dy=0 dh=60 dv=0 dx=0 dy=0 dh=0 dv=0
PairPos2: "'kern' Horizontal Kerning in Arabic lookup 2 per glyph data 2" afii57411 dx=60 dy=0 dh=60 dv=0 dx=0 dy=0 dh=0 dv=0
PairPos2: "'kern' Horizontal Kerning in Arabic lookup 2 per glyph data 2" uniFE8E.short dx=60 dy=0 dh=60 dv=0 dx=0 dy=0 dh=0 dv=0
PairPos2: "'kern' Horizontal Kerning in Arabic lookup 2 per glyph data 2" afii57415.short dx=60 dy=0 dh=60 dv=0 dx=0 dy=0 dh=0 dv=0
PairPos2: "'kern' Horizontal Kerning in Arabic lookup 2 per glyph data 2" afii57415 dx=60 dy=0 dh=60 dv=0 dx=0 dy=0 dh=0 dv=0
PairPos2: "'kern' Horizontal Kerning in Arabic lookup 2 per glyph data 1" uniFEF3 dx=40 dy=0 dh=40 dv=0 dx=0 dy=0 dh=0 dv=0
PairPos2: "'kern' Horizontal Kerning in Arabic lookup 2 per glyph data 1" uniFB58 dx=40 dy=0 dh=40 dv=0 dx=0 dy=0 dh=0 dv=0
PairPos2: "'kern' Horizontal Kerning in Arabic lookup 2 per glyph data 1" afii57413 dx=40 dy=0 dh=40 dv=0 dx=0 dy=0 dh=0 dv=0
PairPos2: "'kern' Horizontal Kerning in Arabic lookup 2 per glyph data 1" uniFB94 dx=110 dy=0 dh=110 dv=0 dx=0 dy=0 dh=0 dv=0
PairPos2: "'kern' Horizontal Kerning in Arabic lookup 2 per glyph data 1" afii57509 dx=110 dy=0 dh=110 dv=0 dx=0 dy=0 dh=0 dv=0
PairPos2: "'kern' Horizontal Kerning in Arabic lookup 2 per glyph data 1" uniFB90 dx=110 dy=0 dh=110 dv=0 dx=0 dy=0 dh=0 dv=0
PairPos2: "'kern' Horizontal Kerning in Arabic lookup 2 per glyph data 1" uni06A9 dx=110 dy=0 dh=110 dv=0 dx=0 dy=0 dh=0 dv=0
PairPos2: "'kern' Horizontal Kerning in Arabic lookup 2 per glyph data 1" uniFEDB dx=110 dy=0 dh=110 dv=0 dx=0 dy=0 dh=0 dv=0
EndChar

StartChar: J
Encoding: 44 74 13
Width: 433
GlyphClass: 2
Flags: W
AnchorPoint: "Anchor-8" 0 0 basechar 0
AnchorPoint: "Anchor-7" 0 0 basechar 0
AnchorPoint: "Anchor-6" 98 648 basechar 0
AnchorPoint: "Anchor-5" 0 0 basechar 0
AnchorPoint: "Anchor-4" 98 0 basechar 0
LayerCount: 2
Fore
SplineSet
3 42 m 1,1,-1
 32 83 l 1,2,3
 59 62 59 62 90 50.5 c 128,-1,4
 121 39 121 39 161 39 c 0,5,6
 224 39 224 39 257 78.5 c 128,-1,7
 290 118 290 118 290 182 c 2,8,-1
 290 648 l 1,9,-1
 346 648 l 1,10,-1
 346 181 l 2,11,12
 346 118 346 118 322.5 75 c 128,-1,13
 299 32 299 32 257.5 10.5 c 128,-1,14
 216 -11 216 -11 160 -11 c 0,15,0
 72 -11 72 -11 3 42 c 1,1,-1
EndSplineSet
PairPos2: "'kern' Horizontal Kerning in Arabic lookup 2 per glyph data 2" uni0671 dx=60 dy=0 dh=60 dv=0 dx=0 dy=0 dh=0 dv=0
PairPos2: "'kern' Horizontal Kerning in Arabic lookup 2 per glyph data 2" afii57410 dx=60 dy=0 dh=60 dv=0 dx=0 dy=0 dh=0 dv=0
PairPos2: "'kern' Horizontal Kerning in Arabic lookup 2 per glyph data 2" afii57411 dx=60 dy=0 dh=60 dv=0 dx=0 dy=0 dh=0 dv=0
PairPos2: "'kern' Horizontal Kerning in Arabic lookup 2 per glyph data 2" uniFE8E.short dx=60 dy=0 dh=60 dv=0 dx=0 dy=0 dh=0 dv=0
PairPos2: "'kern' Horizontal Kerning in Arabic lookup 2 per glyph data 2" afii57415.short dx=60 dy=0 dh=60 dv=0 dx=0 dy=0 dh=0 dv=0
PairPos2: "'kern' Horizontal Kerning in Arabic lookup 2 per glyph data 2" afii57415 dx=60 dy=0 dh=60 dv=0 dx=0 dy=0 dh=0 dv=0
PairPos2: "'kern' Horizontal Kerning in Arabic lookup 2 per glyph data 1" uniFEF3 dx=40 dy=0 dh=40 dv=0 dx=0 dy=0 dh=0 dv=0
PairPos2: "'kern' Horizontal Kerning in Arabic lookup 2 per glyph data 1" uniFB58 dx=40 dy=0 dh=40 dv=0 dx=0 dy=0 dh=0 dv=0
PairPos2: "'kern' Horizontal Kerning in Arabic lookup 2 per glyph data 1" afii57413 dx=40 dy=0 dh=40 dv=0 dx=0 dy=0 dh=0 dv=0
PairPos2: "'kern' Horizontal Kerning in Arabic lookup 2 per glyph data 1" uniFB94 dx=110 dy=0 dh=110 dv=0 dx=0 dy=0 dh=0 dv=0
PairPos2: "'kern' Horizontal Kerning in Arabic lookup 2 per glyph data 1" afii57509 dx=110 dy=0 dh=110 dv=0 dx=0 dy=0 dh=0 dv=0
PairPos2: "'kern' Horizontal Kerning in Arabic lookup 2 per glyph data 1" uniFB90 dx=110 dy=0 dh=110 dv=0 dx=0 dy=0 dh=0 dv=0
PairPos2: "'kern' Horizontal Kerning in Arabic lookup 2 per glyph data 1" uni06A9 dx=110 dy=0 dh=110 dv=0 dx=0 dy=0 dh=0 dv=0
PairPos2: "'kern' Horizontal Kerning in Arabic lookup 2 per glyph data 1" uniFEDB dx=110 dy=0 dh=110 dv=0 dx=0 dy=0 dh=0 dv=0
EndChar

StartChar: K
Encoding: 45 75 14
Width: 555
GlyphClass: 2
Flags: W
AnchorPoint: "Anchor-8" 0 0 basechar 0
AnchorPoint: "Anchor-7" 0 0 basechar 0
AnchorPoint: "Anchor-6" 290 648 basechar 0
AnchorPoint: "Anchor-5" 192 10 basechar 0
AnchorPoint: "Anchor-4" 289 0 basechar 0
LayerCount: 2
Fore
SplineSet
219 338 m 1,0,-1
 545 5 l 1,1,-1
 545 0 l 1,2,-1
 478 0 l 1,3,-1
 152 332 l 1,4,-1
 152 0 l 1,5,-1
 97 0 l 1,6,-1
 97 648 l 1,7,-1
 152 648 l 1,8,-1
 152 340 l 1,9,-1
 465 648 l 1,10,-1
 528 648 l 1,11,-1
 528 643 l 1,12,-1
 219 338 l 1,0,-1
EndSplineSet
PairPos2: "'kern' Horizontal Kerning in Arabic lookup 2 per glyph data 2" uni0671 dx=60 dy=0 dh=60 dv=0 dx=0 dy=0 dh=0 dv=0
PairPos2: "'kern' Horizontal Kerning in Arabic lookup 2 per glyph data 2" afii57410 dx=60 dy=0 dh=60 dv=0 dx=0 dy=0 dh=0 dv=0
PairPos2: "'kern' Horizontal Kerning in Arabic lookup 2 per glyph data 2" afii57411 dx=60 dy=0 dh=60 dv=0 dx=0 dy=0 dh=0 dv=0
PairPos2: "'kern' Horizontal Kerning in Arabic lookup 2 per glyph data 2" uniFE8E.short dx=60 dy=0 dh=60 dv=0 dx=0 dy=0 dh=0 dv=0
PairPos2: "'kern' Horizontal Kerning in Arabic lookup 2 per glyph data 2" afii57415.short dx=60 dy=0 dh=60 dv=0 dx=0 dy=0 dh=0 dv=0
PairPos2: "'kern' Horizontal Kerning in Arabic lookup 2 per glyph data 2" afii57415 dx=60 dy=0 dh=60 dv=0 dx=0 dy=0 dh=0 dv=0
PairPos2: "'kern' Horizontal Kerning in Arabic lookup 2 per glyph data 1" uniFEF3 dx=40 dy=0 dh=40 dv=0 dx=0 dy=0 dh=0 dv=0
PairPos2: "'kern' Horizontal Kerning in Arabic lookup 2 per glyph data 1" uniFB58 dx=40 dy=0 dh=40 dv=0 dx=0 dy=0 dh=0 dv=0
PairPos2: "'kern' Horizontal Kerning in Arabic lookup 2 per glyph data 1" afii57413 dx=40 dy=0 dh=40 dv=0 dx=0 dy=0 dh=0 dv=0
PairPos2: "'kern' Horizontal Kerning in Arabic lookup 2 per glyph data 1" uniFB94 dx=110 dy=0 dh=110 dv=0 dx=0 dy=0 dh=0 dv=0
PairPos2: "'kern' Horizontal Kerning in Arabic lookup 2 per glyph data 1" afii57509 dx=110 dy=0 dh=110 dv=0 dx=0 dy=0 dh=0 dv=0
PairPos2: "'kern' Horizontal Kerning in Arabic lookup 2 per glyph data 1" uniFB90 dx=110 dy=0 dh=110 dv=0 dx=0 dy=0 dh=0 dv=0
PairPos2: "'kern' Horizontal Kerning in Arabic lookup 2 per glyph data 1" uni06A9 dx=110 dy=0 dh=110 dv=0 dx=0 dy=0 dh=0 dv=0
PairPos2: "'kern' Horizontal Kerning in Arabic lookup 2 per glyph data 1" uniFEDB dx=110 dy=0 dh=110 dv=0 dx=0 dy=0 dh=0 dv=0
EndChar

StartChar: L
Encoding: 46 76 15
Width: 505
GlyphClass: 2
Flags: W
AnchorPoint: "Anchor-8" 194 648 basechar 0
AnchorPoint: "Anchor-7" 271 324 basechar 0
AnchorPoint: "Anchor-6" 125 648 basechar 0
AnchorPoint: "Anchor-5" 192 10 basechar 0
AnchorPoint: "Anchor-4" 291 0 basechar 0
LayerCount: 2
Fore
SplineSet
152 49 m 1,0,-1
 482 49 l 1,1,-1
 482 0 l 1,2,-1
 97 0 l 1,3,-1
 97 648 l 1,4,-1
 152 648 l 1,5,-1
 152 49 l 1,0,-1
EndSplineSet
PairPos2: "'kern' Horizontal Kerning in Arabic lookup 2 per glyph data 2" uni0671 dx=60 dy=0 dh=60 dv=0 dx=0 dy=0 dh=0 dv=0
PairPos2: "'kern' Horizontal Kerning in Arabic lookup 2 per glyph data 2" afii57410 dx=60 dy=0 dh=60 dv=0 dx=0 dy=0 dh=0 dv=0
PairPos2: "'kern' Horizontal Kerning in Arabic lookup 2 per glyph data 2" afii57411 dx=60 dy=0 dh=60 dv=0 dx=0 dy=0 dh=0 dv=0
PairPos2: "'kern' Horizontal Kerning in Arabic lookup 2 per glyph data 2" uniFE8E.short dx=60 dy=0 dh=60 dv=0 dx=0 dy=0 dh=0 dv=0
PairPos2: "'kern' Horizontal Kerning in Arabic lookup 2 per glyph data 2" afii57415.short dx=60 dy=0 dh=60 dv=0 dx=0 dy=0 dh=0 dv=0
PairPos2: "'kern' Horizontal Kerning in Arabic lookup 2 per glyph data 2" afii57415 dx=60 dy=0 dh=60 dv=0 dx=0 dy=0 dh=0 dv=0
PairPos2: "'kern' Horizontal Kerning in Arabic lookup 2 per glyph data 1" uniFEF3 dx=40 dy=0 dh=40 dv=0 dx=0 dy=0 dh=0 dv=0
PairPos2: "'kern' Horizontal Kerning in Arabic lookup 2 per glyph data 1" uniFB58 dx=40 dy=0 dh=40 dv=0 dx=0 dy=0 dh=0 dv=0
PairPos2: "'kern' Horizontal Kerning in Arabic lookup 2 per glyph data 1" afii57413 dx=40 dy=0 dh=40 dv=0 dx=0 dy=0 dh=0 dv=0
PairPos2: "'kern' Horizontal Kerning in Arabic lookup 2 per glyph data 1" uniFB94 dx=110 dy=0 dh=110 dv=0 dx=0 dy=0 dh=0 dv=0
PairPos2: "'kern' Horizontal Kerning in Arabic lookup 2 per glyph data 1" afii57509 dx=110 dy=0 dh=110 dv=0 dx=0 dy=0 dh=0 dv=0
PairPos2: "'kern' Horizontal Kerning in Arabic lookup 2 per glyph data 1" uniFB90 dx=110 dy=0 dh=110 dv=0 dx=0 dy=0 dh=0 dv=0
PairPos2: "'kern' Horizontal Kerning in Arabic lookup 2 per glyph data 1" uni06A9 dx=110 dy=0 dh=110 dv=0 dx=0 dy=0 dh=0 dv=0
PairPos2: "'kern' Horizontal Kerning in Arabic lookup 2 per glyph data 1" uniFEDB dx=110 dy=0 dh=110 dv=0 dx=0 dy=0 dh=0 dv=0
EndChar

StartChar: M
Encoding: 47 77 16
Width: 823
GlyphClass: 2
Flags: W
AnchorPoint: "Anchor-8" 0 0 basechar 0
AnchorPoint: "Anchor-7" 0 0 basechar 0
AnchorPoint: "Anchor-6" 416 648 basechar 0
AnchorPoint: "Anchor-5" 0 0 basechar 0
AnchorPoint: "Anchor-4" 416 0 basechar 0
LayerCount: 2
Fore
SplineSet
726 648 m 1,0,-1
 726 0 l 1,1,-1
 672 0 l 1,2,-1
 672 561 l 1,3,4
 657 527 657 527 635 486 c 2,5,-1
 438 115 l 1,6,-1
 381 115 l 1,7,-1
 187 486 l 1,8,-1
 177 506 l 2,9,10
 160 536 160 536 150 558 c 1,11,-1
 150 0 l 1,12,-1
 97 0 l 1,13,-1
 97 648 l 1,14,-1
 162 648 l 1,15,-1
 360 270 l 1,16,-1
 374 242 l 2,17,18
 401 190 401 190 411 166 c 1,19,20
 420 187 420 187 433.5 214.5 c 128,-1,21
 447 242 447 242 462 270 c 2,22,-1
 664 648 l 1,23,-1
 726 648 l 1,0,-1
EndSplineSet
PairPos2: "'kern' Horizontal Kerning in Arabic lookup 2 per glyph data 2" uni0671 dx=60 dy=0 dh=60 dv=0 dx=0 dy=0 dh=0 dv=0
PairPos2: "'kern' Horizontal Kerning in Arabic lookup 2 per glyph data 2" afii57410 dx=60 dy=0 dh=60 dv=0 dx=0 dy=0 dh=0 dv=0
PairPos2: "'kern' Horizontal Kerning in Arabic lookup 2 per glyph data 2" afii57411 dx=60 dy=0 dh=60 dv=0 dx=0 dy=0 dh=0 dv=0
PairPos2: "'kern' Horizontal Kerning in Arabic lookup 2 per glyph data 2" uniFE8E.short dx=60 dy=0 dh=60 dv=0 dx=0 dy=0 dh=0 dv=0
PairPos2: "'kern' Horizontal Kerning in Arabic lookup 2 per glyph data 2" afii57415.short dx=60 dy=0 dh=60 dv=0 dx=0 dy=0 dh=0 dv=0
PairPos2: "'kern' Horizontal Kerning in Arabic lookup 2 per glyph data 2" afii57415 dx=60 dy=0 dh=60 dv=0 dx=0 dy=0 dh=0 dv=0
PairPos2: "'kern' Horizontal Kerning in Arabic lookup 2 per glyph data 1" uniFEF3 dx=40 dy=0 dh=40 dv=0 dx=0 dy=0 dh=0 dv=0
PairPos2: "'kern' Horizontal Kerning in Arabic lookup 2 per glyph data 1" uniFB58 dx=40 dy=0 dh=40 dv=0 dx=0 dy=0 dh=0 dv=0
PairPos2: "'kern' Horizontal Kerning in Arabic lookup 2 per glyph data 1" afii57413 dx=40 dy=0 dh=40 dv=0 dx=0 dy=0 dh=0 dv=0
PairPos2: "'kern' Horizontal Kerning in Arabic lookup 2 per glyph data 1" uniFB94 dx=110 dy=0 dh=110 dv=0 dx=0 dy=0 dh=0 dv=0
PairPos2: "'kern' Horizontal Kerning in Arabic lookup 2 per glyph data 1" afii57509 dx=110 dy=0 dh=110 dv=0 dx=0 dy=0 dh=0 dv=0
PairPos2: "'kern' Horizontal Kerning in Arabic lookup 2 per glyph data 1" uniFB90 dx=110 dy=0 dh=110 dv=0 dx=0 dy=0 dh=0 dv=0
PairPos2: "'kern' Horizontal Kerning in Arabic lookup 2 per glyph data 1" uni06A9 dx=110 dy=0 dh=110 dv=0 dx=0 dy=0 dh=0 dv=0
PairPos2: "'kern' Horizontal Kerning in Arabic lookup 2 per glyph data 1" uniFEDB dx=110 dy=0 dh=110 dv=0 dx=0 dy=0 dh=0 dv=0
EndChar

StartChar: N
Encoding: 48 78 17
Width: 698
GlyphClass: 2
Flags: W
AnchorPoint: "Anchor-8" 0 0 basechar 0
AnchorPoint: "Anchor-7" 0 0 basechar 0
AnchorPoint: "Anchor-6" 349 648 basechar 0
AnchorPoint: "Anchor-5" 0 0 basechar 0
AnchorPoint: "Anchor-4" 349 0 basechar 0
LayerCount: 2
Fore
SplineSet
601 648 m 1,0,-1
 601 0 l 1,1,-1
 536 0 l 1,2,-1
 191 506 l 2,3,4
 187 512 187 512 173.5 531.5 c 128,-1,5
 160 551 160 551 150 570 c 1,6,-1
 150 0 l 1,7,-1
 97 0 l 1,8,-1
 97 648 l 1,9,-1
 158 648 l 1,10,-1
 501 148 l 2,11,12
 514 130 514 130 526.5 110.5 c 128,-1,13
 539 91 539 91 548 73 c 1,14,-1
 548 648 l 1,15,-1
 601 648 l 1,0,-1
EndSplineSet
PairPos2: "'kern' Horizontal Kerning in Arabic lookup 2 per glyph data 2" uni0671 dx=60 dy=0 dh=60 dv=0 dx=0 dy=0 dh=0 dv=0
PairPos2: "'kern' Horizontal Kerning in Arabic lookup 2 per glyph data 2" afii57410 dx=60 dy=0 dh=60 dv=0 dx=0 dy=0 dh=0 dv=0
PairPos2: "'kern' Horizontal Kerning in Arabic lookup 2 per glyph data 2" afii57411 dx=60 dy=0 dh=60 dv=0 dx=0 dy=0 dh=0 dv=0
PairPos2: "'kern' Horizontal Kerning in Arabic lookup 2 per glyph data 2" uniFE8E.short dx=60 dy=0 dh=60 dv=0 dx=0 dy=0 dh=0 dv=0
PairPos2: "'kern' Horizontal Kerning in Arabic lookup 2 per glyph data 2" afii57415.short dx=60 dy=0 dh=60 dv=0 dx=0 dy=0 dh=0 dv=0
PairPos2: "'kern' Horizontal Kerning in Arabic lookup 2 per glyph data 2" afii57415 dx=60 dy=0 dh=60 dv=0 dx=0 dy=0 dh=0 dv=0
PairPos2: "'kern' Horizontal Kerning in Arabic lookup 2 per glyph data 1" uniFEF3 dx=40 dy=0 dh=40 dv=0 dx=0 dy=0 dh=0 dv=0
PairPos2: "'kern' Horizontal Kerning in Arabic lookup 2 per glyph data 1" uniFB58 dx=40 dy=0 dh=40 dv=0 dx=0 dy=0 dh=0 dv=0
PairPos2: "'kern' Horizontal Kerning in Arabic lookup 2 per glyph data 1" afii57413 dx=40 dy=0 dh=40 dv=0 dx=0 dy=0 dh=0 dv=0
PairPos2: "'kern' Horizontal Kerning in Arabic lookup 2 per glyph data 1" uniFB94 dx=110 dy=0 dh=110 dv=0 dx=0 dy=0 dh=0 dv=0
PairPos2: "'kern' Horizontal Kerning in Arabic lookup 2 per glyph data 1" afii57509 dx=110 dy=0 dh=110 dv=0 dx=0 dy=0 dh=0 dv=0
PairPos2: "'kern' Horizontal Kerning in Arabic lookup 2 per glyph data 1" uniFB90 dx=110 dy=0 dh=110 dv=0 dx=0 dy=0 dh=0 dv=0
PairPos2: "'kern' Horizontal Kerning in Arabic lookup 2 per glyph data 1" uni06A9 dx=110 dy=0 dh=110 dv=0 dx=0 dy=0 dh=0 dv=0
PairPos2: "'kern' Horizontal Kerning in Arabic lookup 2 per glyph data 1" uniFEDB dx=110 dy=0 dh=110 dv=0 dx=0 dy=0 dh=0 dv=0
EndChar

StartChar: O
Encoding: 49 79 18
Width: 691
GlyphClass: 2
Flags: W
AnchorPoint: "Anchor-8" 669 648 basechar 0
AnchorPoint: "Anchor-7" 346 324 basechar 0
AnchorPoint: "Anchor-6" 346 648 basechar 0
AnchorPoint: "Anchor-5" 620 10 basechar 0
AnchorPoint: "Anchor-4" 346 0 basechar 0
LayerCount: 2
Fore
SplineSet
185 31.5 m 128,-1,1
 120 74 120 74 86 150 c 128,-1,2
 52 226 52 226 52 326 c 0,3,4
 52 438 52 438 93.5 512.5 c 128,-1,5
 135 587 135 587 202.5 623 c 128,-1,6
 270 659 270 659 349 659 c 0,7,8
 441 659 441 659 506 616.5 c 128,-1,9
 571 574 571 574 605 498 c 128,-1,10
 639 422 639 422 639 322 c 0,11,12
 639 210 639 210 598 135 c 128,-1,13
 557 60 557 60 489.5 24.5 c 128,-1,14
 422 -11 422 -11 342 -11 c 0,15,0
 250 -11 250 -11 185 31.5 c 128,-1,1
473 73.5 m 128,-1,17
 527 110 527 110 554.5 174 c 128,-1,18
 582 238 582 238 582 321 c 0,19,20
 582 405 582 405 556 470.5 c 128,-1,21
 530 536 530 536 478 573.5 c 128,-1,22
 426 611 426 611 349 611 c 256,23,24
 272 611 272 611 217.5 575 c 128,-1,25
 163 539 163 539 135.5 474.5 c 128,-1,26
 108 410 108 410 108 327 c 256,27,28
 108 244 108 244 134 178 c 128,-1,29
 160 112 160 112 212.5 74.5 c 128,-1,30
 265 37 265 37 342 37 c 256,31,16
 419 37 419 37 473 73.5 c 128,-1,17
EndSplineSet
Substitution2: "Single Substitution lookup 23 subtable" ordmasculine
Substitution2: "'aalt' Access All Alternates in Arabic lookup 0 subtable" ordmasculine
PairPos2: "'kern' Horizontal Kerning in Arabic lookup 2 per glyph data 2" uni0671 dx=60 dy=0 dh=60 dv=0 dx=0 dy=0 dh=0 dv=0
PairPos2: "'kern' Horizontal Kerning in Arabic lookup 2 per glyph data 2" afii57410 dx=60 dy=0 dh=60 dv=0 dx=0 dy=0 dh=0 dv=0
PairPos2: "'kern' Horizontal Kerning in Arabic lookup 2 per glyph data 2" afii57411 dx=60 dy=0 dh=60 dv=0 dx=0 dy=0 dh=0 dv=0
PairPos2: "'kern' Horizontal Kerning in Arabic lookup 2 per glyph data 2" uniFE8E.short dx=60 dy=0 dh=60 dv=0 dx=0 dy=0 dh=0 dv=0
PairPos2: "'kern' Horizontal Kerning in Arabic lookup 2 per glyph data 2" afii57415.short dx=60 dy=0 dh=60 dv=0 dx=0 dy=0 dh=0 dv=0
PairPos2: "'kern' Horizontal Kerning in Arabic lookup 2 per glyph data 2" afii57415 dx=60 dy=0 dh=60 dv=0 dx=0 dy=0 dh=0 dv=0
PairPos2: "'kern' Horizontal Kerning in Arabic lookup 2 per glyph data 1" uniFEF3 dx=40 dy=0 dh=40 dv=0 dx=0 dy=0 dh=0 dv=0
PairPos2: "'kern' Horizontal Kerning in Arabic lookup 2 per glyph data 1" uniFB58 dx=40 dy=0 dh=40 dv=0 dx=0 dy=0 dh=0 dv=0
PairPos2: "'kern' Horizontal Kerning in Arabic lookup 2 per glyph data 1" afii57413 dx=40 dy=0 dh=40 dv=0 dx=0 dy=0 dh=0 dv=0
PairPos2: "'kern' Horizontal Kerning in Arabic lookup 2 per glyph data 1" uniFB94 dx=110 dy=0 dh=110 dv=0 dx=0 dy=0 dh=0 dv=0
PairPos2: "'kern' Horizontal Kerning in Arabic lookup 2 per glyph data 1" afii57509 dx=110 dy=0 dh=110 dv=0 dx=0 dy=0 dh=0 dv=0
PairPos2: "'kern' Horizontal Kerning in Arabic lookup 2 per glyph data 1" uniFB90 dx=110 dy=0 dh=110 dv=0 dx=0 dy=0 dh=0 dv=0
PairPos2: "'kern' Horizontal Kerning in Arabic lookup 2 per glyph data 1" uni06A9 dx=110 dy=0 dh=110 dv=0 dx=0 dy=0 dh=0 dv=0
PairPos2: "'kern' Horizontal Kerning in Arabic lookup 2 per glyph data 1" uniFEDB dx=110 dy=0 dh=110 dv=0 dx=0 dy=0 dh=0 dv=0
EndChar

StartChar: P
Encoding: 50 80 19
Width: 554
GlyphClass: 2
Flags: W
AnchorPoint: "Anchor-8" 0 0 basechar 0
AnchorPoint: "Anchor-7" 0 0 basechar 0
AnchorPoint: "Anchor-6" 276 648 basechar 0
AnchorPoint: "Anchor-5" 192 10 basechar 0
AnchorPoint: "Anchor-4" 276 0 basechar 0
LayerCount: 2
Fore
SplineSet
417.5 624.5 m 128,-1,1
 469 601 469 601 496 558.5 c 128,-1,2
 523 516 523 516 523 458 c 0,3,4
 523 403 523 403 496.5 356.5 c 128,-1,5
 470 310 470 310 416 282 c 128,-1,6
 362 254 362 254 283 254 c 2,7,-1
 152 254 l 1,8,-1
 152 0 l 1,9,-1
 97 0 l 1,10,-1
 97 648 l 1,11,-1
 295 648 l 2,12,0
 366 648 366 648 417.5 624.5 c 128,-1,1
383.5 322.5 m 128,-1,14
 426 343 426 343 446.5 377.5 c 128,-1,15
 467 412 467 412 467 454 c 0,16,17
 467 522 467 522 423 561 c 128,-1,18
 379 600 379 600 293 600 c 2,19,-1
 152 600 l 1,20,-1
 152 302 l 1,21,-1
 280 302 l 2,22,13
 341 302 341 302 383.5 322.5 c 128,-1,14
EndSplineSet
PairPos2: "'kern' Horizontal Kerning in Arabic lookup 2 per glyph data 2" uni0671 dx=60 dy=0 dh=60 dv=0 dx=0 dy=0 dh=0 dv=0
PairPos2: "'kern' Horizontal Kerning in Arabic lookup 2 per glyph data 2" afii57410 dx=60 dy=0 dh=60 dv=0 dx=0 dy=0 dh=0 dv=0
PairPos2: "'kern' Horizontal Kerning in Arabic lookup 2 per glyph data 2" afii57411 dx=60 dy=0 dh=60 dv=0 dx=0 dy=0 dh=0 dv=0
PairPos2: "'kern' Horizontal Kerning in Arabic lookup 2 per glyph data 2" uniFE8E.short dx=60 dy=0 dh=60 dv=0 dx=0 dy=0 dh=0 dv=0
PairPos2: "'kern' Horizontal Kerning in Arabic lookup 2 per glyph data 2" afii57415.short dx=60 dy=0 dh=60 dv=0 dx=0 dy=0 dh=0 dv=0
PairPos2: "'kern' Horizontal Kerning in Arabic lookup 2 per glyph data 2" afii57415 dx=60 dy=0 dh=60 dv=0 dx=0 dy=0 dh=0 dv=0
PairPos2: "'kern' Horizontal Kerning in Arabic lookup 2 per glyph data 1" uniFEF3 dx=40 dy=0 dh=40 dv=0 dx=0 dy=0 dh=0 dv=0
PairPos2: "'kern' Horizontal Kerning in Arabic lookup 2 per glyph data 1" uniFB58 dx=40 dy=0 dh=40 dv=0 dx=0 dy=0 dh=0 dv=0
PairPos2: "'kern' Horizontal Kerning in Arabic lookup 2 per glyph data 1" afii57413 dx=40 dy=0 dh=40 dv=0 dx=0 dy=0 dh=0 dv=0
PairPos2: "'kern' Horizontal Kerning in Arabic lookup 2 per glyph data 1" uniFB94 dx=110 dy=0 dh=110 dv=0 dx=0 dy=0 dh=0 dv=0
PairPos2: "'kern' Horizontal Kerning in Arabic lookup 2 per glyph data 1" afii57509 dx=110 dy=0 dh=110 dv=0 dx=0 dy=0 dh=0 dv=0
PairPos2: "'kern' Horizontal Kerning in Arabic lookup 2 per glyph data 1" uniFB90 dx=110 dy=0 dh=110 dv=0 dx=0 dy=0 dh=0 dv=0
PairPos2: "'kern' Horizontal Kerning in Arabic lookup 2 per glyph data 1" uni06A9 dx=110 dy=0 dh=110 dv=0 dx=0 dy=0 dh=0 dv=0
PairPos2: "'kern' Horizontal Kerning in Arabic lookup 2 per glyph data 1" uniFEDB dx=110 dy=0 dh=110 dv=0 dx=0 dy=0 dh=0 dv=0
EndChar

StartChar: Q
Encoding: 51 81 20
Width: 691
GlyphClass: 2
Flags: W
AnchorPoint: "Anchor-8" 671 648 basechar 0
AnchorPoint: "Anchor-7" 346 324 basechar 0
AnchorPoint: "Anchor-6" 358 648 basechar 0
AnchorPoint: "Anchor-5" 484 10 basechar 0
AnchorPoint: "Anchor-4" 358 0 basechar 0
LayerCount: 2
Fore
SplineSet
628 -125 m 1,0,-1
 412 -3 l 1,1,2
 375 -11 375 -11 342 -11 c 0,3,4
 250 -11 250 -11 185 31.5 c 128,-1,5
 120 74 120 74 86 150 c 128,-1,6
 52 226 52 226 52 326 c 0,7,8
 52 438 52 438 93.5 512.5 c 128,-1,9
 135 587 135 587 202.5 623 c 128,-1,10
 270 659 270 659 349 659 c 0,11,12
 441 659 441 659 506 616.5 c 128,-1,13
 571 574 571 574 605 498 c 128,-1,14
 639 422 639 422 639 322 c 0,15,16
 639 205 639 205 591.5 126.5 c 128,-1,17
 544 48 544 48 465 14 c 1,18,-1
 657 -81 l 1,19,-1
 628 -125 l 1,0,-1
134 178 m 128,-1,21
 160 112 160 112 212.5 74.5 c 128,-1,22
 265 37 265 37 342 37 c 256,23,24
 419 37 419 37 473 73.5 c 128,-1,25
 527 110 527 110 554.5 174 c 128,-1,26
 582 238 582 238 582 321 c 0,27,28
 582 405 582 405 556 470.5 c 128,-1,29
 530 536 530 536 478 573.5 c 128,-1,30
 426 611 426 611 349 611 c 256,31,32
 272 611 272 611 217.5 575 c 128,-1,33
 163 539 163 539 135.5 474.5 c 128,-1,34
 108 410 108 410 108 327 c 256,35,20
 108 244 108 244 134 178 c 128,-1,21
EndSplineSet
PairPos2: "'kern' Horizontal Kerning in Arabic lookup 2 per glyph data 2" uni0671 dx=60 dy=0 dh=60 dv=0 dx=0 dy=0 dh=0 dv=0
PairPos2: "'kern' Horizontal Kerning in Arabic lookup 2 per glyph data 2" afii57410 dx=60 dy=0 dh=60 dv=0 dx=0 dy=0 dh=0 dv=0
PairPos2: "'kern' Horizontal Kerning in Arabic lookup 2 per glyph data 2" afii57411 dx=60 dy=0 dh=60 dv=0 dx=0 dy=0 dh=0 dv=0
PairPos2: "'kern' Horizontal Kerning in Arabic lookup 2 per glyph data 2" uniFE8E.short dx=60 dy=0 dh=60 dv=0 dx=0 dy=0 dh=0 dv=0
PairPos2: "'kern' Horizontal Kerning in Arabic lookup 2 per glyph data 2" afii57415.short dx=60 dy=0 dh=60 dv=0 dx=0 dy=0 dh=0 dv=0
PairPos2: "'kern' Horizontal Kerning in Arabic lookup 2 per glyph data 2" afii57415 dx=60 dy=0 dh=60 dv=0 dx=0 dy=0 dh=0 dv=0
PairPos2: "'kern' Horizontal Kerning in Arabic lookup 2 per glyph data 1" uniFEF3 dx=40 dy=0 dh=40 dv=0 dx=0 dy=0 dh=0 dv=0
PairPos2: "'kern' Horizontal Kerning in Arabic lookup 2 per glyph data 1" uniFB58 dx=40 dy=0 dh=40 dv=0 dx=0 dy=0 dh=0 dv=0
PairPos2: "'kern' Horizontal Kerning in Arabic lookup 2 per glyph data 1" afii57413 dx=40 dy=0 dh=40 dv=0 dx=0 dy=0 dh=0 dv=0
PairPos2: "'kern' Horizontal Kerning in Arabic lookup 2 per glyph data 1" uniFB94 dx=110 dy=0 dh=110 dv=0 dx=0 dy=0 dh=0 dv=0
PairPos2: "'kern' Horizontal Kerning in Arabic lookup 2 per glyph data 1" afii57509 dx=110 dy=0 dh=110 dv=0 dx=0 dy=0 dh=0 dv=0
PairPos2: "'kern' Horizontal Kerning in Arabic lookup 2 per glyph data 1" uniFB90 dx=110 dy=0 dh=110 dv=0 dx=0 dy=0 dh=0 dv=0
PairPos2: "'kern' Horizontal Kerning in Arabic lookup 2 per glyph data 1" uni06A9 dx=110 dy=0 dh=110 dv=0 dx=0 dy=0 dh=0 dv=0
PairPos2: "'kern' Horizontal Kerning in Arabic lookup 2 per glyph data 1" uniFEDB dx=110 dy=0 dh=110 dv=0 dx=0 dy=0 dh=0 dv=0
EndChar

StartChar: R
Encoding: 52 82 21
Width: 567
GlyphClass: 2
Flags: W
AnchorPoint: "Anchor-8" 0 0 basechar 0
AnchorPoint: "Anchor-7" 0 0 basechar 0
AnchorPoint: "Anchor-6" 279 648 basechar 0
AnchorPoint: "Anchor-5" 192 10 basechar 0
AnchorPoint: "Anchor-4" 283 0 basechar 0
LayerCount: 2
Fore
SplineSet
547 5 m 1,0,-1
 547 0 l 1,1,-1
 484 0 l 1,2,-1
 278 269 l 1,3,-1
 152 269 l 1,4,-1
 152 0 l 1,5,-1
 97 0 l 1,6,-1
 97 648 l 1,7,-1
 286 648 l 2,8,9
 357 648 357 648 408 625.5 c 128,-1,10
 459 603 459 603 486 561.5 c 128,-1,11
 513 520 513 520 513 464 c 0,12,13
 513 415 513 415 493.5 375.5 c 128,-1,14
 474 336 474 336 435 309 c 128,-1,15
 396 282 396 282 339 273 c 1,16,-1
 547 5 l 1,0,-1
152 316 m 1,17,-1
 284 316 l 2,18,19
 370 316 370 316 413.5 355 c 128,-1,20
 457 394 457 394 457 460 c 256,21,22
 457 526 457 526 413.5 563 c 128,-1,23
 370 600 370 600 284 600 c 2,24,-1
 152 600 l 1,25,-1
 152 316 l 1,17,-1
EndSplineSet
PairPos2: "'kern' Horizontal Kerning in Arabic lookup 2 per glyph data 2" uni0671 dx=60 dy=0 dh=60 dv=0 dx=0 dy=0 dh=0 dv=0
PairPos2: "'kern' Horizontal Kerning in Arabic lookup 2 per glyph data 2" afii57410 dx=60 dy=0 dh=60 dv=0 dx=0 dy=0 dh=0 dv=0
PairPos2: "'kern' Horizontal Kerning in Arabic lookup 2 per glyph data 2" afii57411 dx=60 dy=0 dh=60 dv=0 dx=0 dy=0 dh=0 dv=0
PairPos2: "'kern' Horizontal Kerning in Arabic lookup 2 per glyph data 2" uniFE8E.short dx=60 dy=0 dh=60 dv=0 dx=0 dy=0 dh=0 dv=0
PairPos2: "'kern' Horizontal Kerning in Arabic lookup 2 per glyph data 2" afii57415.short dx=60 dy=0 dh=60 dv=0 dx=0 dy=0 dh=0 dv=0
PairPos2: "'kern' Horizontal Kerning in Arabic lookup 2 per glyph data 2" afii57415 dx=60 dy=0 dh=60 dv=0 dx=0 dy=0 dh=0 dv=0
PairPos2: "'kern' Horizontal Kerning in Arabic lookup 2 per glyph data 1" uniFEF3 dx=40 dy=0 dh=40 dv=0 dx=0 dy=0 dh=0 dv=0
PairPos2: "'kern' Horizontal Kerning in Arabic lookup 2 per glyph data 1" uniFB58 dx=40 dy=0 dh=40 dv=0 dx=0 dy=0 dh=0 dv=0
PairPos2: "'kern' Horizontal Kerning in Arabic lookup 2 per glyph data 1" afii57413 dx=40 dy=0 dh=40 dv=0 dx=0 dy=0 dh=0 dv=0
PairPos2: "'kern' Horizontal Kerning in Arabic lookup 2 per glyph data 1" uniFB94 dx=110 dy=0 dh=110 dv=0 dx=0 dy=0 dh=0 dv=0
PairPos2: "'kern' Horizontal Kerning in Arabic lookup 2 per glyph data 1" afii57509 dx=110 dy=0 dh=110 dv=0 dx=0 dy=0 dh=0 dv=0
PairPos2: "'kern' Horizontal Kerning in Arabic lookup 2 per glyph data 1" uniFB90 dx=110 dy=0 dh=110 dv=0 dx=0 dy=0 dh=0 dv=0
PairPos2: "'kern' Horizontal Kerning in Arabic lookup 2 per glyph data 1" uni06A9 dx=110 dy=0 dh=110 dv=0 dx=0 dy=0 dh=0 dv=0
PairPos2: "'kern' Horizontal Kerning in Arabic lookup 2 per glyph data 1" uniFEDB dx=110 dy=0 dh=110 dv=0 dx=0 dy=0 dh=0 dv=0
EndChar

StartChar: S
Encoding: 53 83 22
Width: 548
GlyphClass: 2
Flags: W
AnchorPoint: "Anchor-8" 0 0 basechar 0
AnchorPoint: "Anchor-7" 0 0 basechar 0
AnchorPoint: "Anchor-6" 278 648 basechar 0
AnchorPoint: "Anchor-5" 0 0 basechar 0
AnchorPoint: "Anchor-4" 270 0 basechar 0
LayerCount: 2
Fore
SplineSet
148 7.5 m 128,-1,1
 92 26 92 26 44 62 c 1,2,-1
 71 102 l 1,3,4
 115 69 115 69 166.5 53 c 128,-1,5
 218 37 218 37 267 37 c 0,6,7
 351 37 351 37 392 71 c 128,-1,8
 433 105 433 105 433 165 c 0,9,10
 433 205 433 205 414 230.5 c 128,-1,11
 395 256 395 256 363 273 c 128,-1,12
 331 290 331 290 274 311 c 2,13,-1
 255 317 l 2,14,15
 193 340 193 340 155.5 360 c 128,-1,16
 118 380 118 380 94 412.5 c 128,-1,17
 70 445 70 445 70 494 c 0,18,19
 70 545 70 545 98.5 582.5 c 128,-1,20
 127 620 127 620 174 639.5 c 128,-1,21
 221 659 221 659 276 659 c 256,22,23
 331 659 331 659 380 644.5 c 128,-1,24
 429 630 429 630 480 597 c 1,25,-1
 453 557 l 1,26,27
 408 585 408 585 365.5 598 c 128,-1,28
 323 611 323 611 274 611 c 0,29,30
 238 611 238 611 204 599 c 128,-1,31
 170 587 170 587 148 562 c 128,-1,32
 126 537 126 537 126 498 c 0,33,34
 126 465 126 465 140.5 443 c 128,-1,35
 155 421 155 421 185.5 404 c 128,-1,36
 216 387 216 387 271 367 c 2,37,-1
 290 360 l 2,38,39
 354 337 354 337 393 317 c 128,-1,40
 432 297 432 297 460.5 260 c 128,-1,41
 489 223 489 223 489 165 c 0,42,43
 489 110 489 110 463 70.5 c 128,-1,44
 437 31 437 31 387 10 c 128,-1,45
 337 -11 337 -11 266 -11 c 0,46,0
 204 -11 204 -11 148 7.5 c 128,-1,1
EndSplineSet
PairPos2: "'kern' Horizontal Kerning in Arabic lookup 2 per glyph data 2" uni0671 dx=60 dy=0 dh=60 dv=0 dx=0 dy=0 dh=0 dv=0
PairPos2: "'kern' Horizontal Kerning in Arabic lookup 2 per glyph data 2" afii57410 dx=60 dy=0 dh=60 dv=0 dx=0 dy=0 dh=0 dv=0
PairPos2: "'kern' Horizontal Kerning in Arabic lookup 2 per glyph data 2" afii57411 dx=60 dy=0 dh=60 dv=0 dx=0 dy=0 dh=0 dv=0
PairPos2: "'kern' Horizontal Kerning in Arabic lookup 2 per glyph data 2" uniFE8E.short dx=60 dy=0 dh=60 dv=0 dx=0 dy=0 dh=0 dv=0
PairPos2: "'kern' Horizontal Kerning in Arabic lookup 2 per glyph data 2" afii57415.short dx=60 dy=0 dh=60 dv=0 dx=0 dy=0 dh=0 dv=0
PairPos2: "'kern' Horizontal Kerning in Arabic lookup 2 per glyph data 2" afii57415 dx=60 dy=0 dh=60 dv=0 dx=0 dy=0 dh=0 dv=0
PairPos2: "'kern' Horizontal Kerning in Arabic lookup 2 per glyph data 1" uniFEF3 dx=40 dy=0 dh=40 dv=0 dx=0 dy=0 dh=0 dv=0
PairPos2: "'kern' Horizontal Kerning in Arabic lookup 2 per glyph data 1" uniFB58 dx=40 dy=0 dh=40 dv=0 dx=0 dy=0 dh=0 dv=0
PairPos2: "'kern' Horizontal Kerning in Arabic lookup 2 per glyph data 1" afii57413 dx=40 dy=0 dh=40 dv=0 dx=0 dy=0 dh=0 dv=0
PairPos2: "'kern' Horizontal Kerning in Arabic lookup 2 per glyph data 1" uniFB94 dx=110 dy=0 dh=110 dv=0 dx=0 dy=0 dh=0 dv=0
PairPos2: "'kern' Horizontal Kerning in Arabic lookup 2 per glyph data 1" afii57509 dx=110 dy=0 dh=110 dv=0 dx=0 dy=0 dh=0 dv=0
PairPos2: "'kern' Horizontal Kerning in Arabic lookup 2 per glyph data 1" uniFB90 dx=110 dy=0 dh=110 dv=0 dx=0 dy=0 dh=0 dv=0
PairPos2: "'kern' Horizontal Kerning in Arabic lookup 2 per glyph data 1" uni06A9 dx=110 dy=0 dh=110 dv=0 dx=0 dy=0 dh=0 dv=0
PairPos2: "'kern' Horizontal Kerning in Arabic lookup 2 per glyph data 1" uniFEDB dx=110 dy=0 dh=110 dv=0 dx=0 dy=0 dh=0 dv=0
EndChar

StartChar: T
Encoding: 54 84 23
Width: 569
GlyphClass: 2
Flags: W
AnchorPoint: "Anchor-8" 0 0 basechar 0
AnchorPoint: "Anchor-7" 285 337 basechar 0
AnchorPoint: "Anchor-6" 285 648 basechar 0
AnchorPoint: "Anchor-5" 352 10 basechar 0
AnchorPoint: "Anchor-4" 285 0 basechar 0
LayerCount: 2
Fore
SplineSet
547 648 m 1,0,-1
 547 599 l 1,1,-1
 312 599 l 1,2,-1
 312 0 l 1,3,-1
 257 0 l 1,4,-1
 257 599 l 1,5,-1
 22 599 l 1,6,-1
 22 648 l 1,7,-1
 547 648 l 1,0,-1
EndSplineSet
PairPos2: "'kern' Horizontal Kerning in Arabic lookup 2 per glyph data 2" uni0671 dx=60 dy=0 dh=60 dv=0 dx=0 dy=0 dh=0 dv=0
PairPos2: "'kern' Horizontal Kerning in Arabic lookup 2 per glyph data 2" afii57410 dx=60 dy=0 dh=60 dv=0 dx=0 dy=0 dh=0 dv=0
PairPos2: "'kern' Horizontal Kerning in Arabic lookup 2 per glyph data 2" afii57411 dx=60 dy=0 dh=60 dv=0 dx=0 dy=0 dh=0 dv=0
PairPos2: "'kern' Horizontal Kerning in Arabic lookup 2 per glyph data 2" uniFE8E.short dx=60 dy=0 dh=60 dv=0 dx=0 dy=0 dh=0 dv=0
PairPos2: "'kern' Horizontal Kerning in Arabic lookup 2 per glyph data 2" afii57415.short dx=60 dy=0 dh=60 dv=0 dx=0 dy=0 dh=0 dv=0
PairPos2: "'kern' Horizontal Kerning in Arabic lookup 2 per glyph data 2" afii57415 dx=60 dy=0 dh=60 dv=0 dx=0 dy=0 dh=0 dv=0
PairPos2: "'kern' Horizontal Kerning in Arabic lookup 2 per glyph data 1" uniFEF3 dx=40 dy=0 dh=40 dv=0 dx=0 dy=0 dh=0 dv=0
PairPos2: "'kern' Horizontal Kerning in Arabic lookup 2 per glyph data 1" uniFB58 dx=40 dy=0 dh=40 dv=0 dx=0 dy=0 dh=0 dv=0
PairPos2: "'kern' Horizontal Kerning in Arabic lookup 2 per glyph data 1" afii57413 dx=40 dy=0 dh=40 dv=0 dx=0 dy=0 dh=0 dv=0
PairPos2: "'kern' Horizontal Kerning in Arabic lookup 2 per glyph data 1" uniFB94 dx=110 dy=0 dh=110 dv=0 dx=0 dy=0 dh=0 dv=0
PairPos2: "'kern' Horizontal Kerning in Arabic lookup 2 per glyph data 1" afii57509 dx=110 dy=0 dh=110 dv=0 dx=0 dy=0 dh=0 dv=0
PairPos2: "'kern' Horizontal Kerning in Arabic lookup 2 per glyph data 1" uniFB90 dx=110 dy=0 dh=110 dv=0 dx=0 dy=0 dh=0 dv=0
PairPos2: "'kern' Horizontal Kerning in Arabic lookup 2 per glyph data 1" uni06A9 dx=110 dy=0 dh=110 dv=0 dx=0 dy=0 dh=0 dv=0
PairPos2: "'kern' Horizontal Kerning in Arabic lookup 2 per glyph data 1" uniFEDB dx=110 dy=0 dh=110 dv=0 dx=0 dy=0 dh=0 dv=0
EndChar

StartChar: U
Encoding: 55 85 24
Width: 670
GlyphClass: 2
Flags: W
AnchorPoint: "Anchor-8" 660 648 basechar 0
AnchorPoint: "Anchor-7" 0 0 basechar 0
AnchorPoint: "Anchor-6" 335 648 basechar 0
AnchorPoint: "Anchor-5" 473 10 basechar 0
AnchorPoint: "Anchor-4" 335 0 basechar 0
LayerCount: 2
Fore
SplineSet
190.5 22.5 m 128,-1,1
 134 56 134 56 106 115 c 128,-1,2
 78 174 78 174 78 252 c 2,3,-1
 78 648 l 1,4,-1
 133 648 l 1,5,-1
 133 263 l 2,6,7
 133 38 133 38 336 38 c 0,8,9
 434 38 434 38 485.5 94.5 c 128,-1,10
 537 151 537 151 537 259 c 2,11,-1
 537 648 l 1,12,-1
 592 648 l 1,13,-1
 592 255 l 2,14,15
 592 163 592 163 557.5 103.5 c 128,-1,16
 523 44 523 44 464.5 16.5 c 128,-1,17
 406 -11 406 -11 332 -11 c 0,18,0
 247 -11 247 -11 190.5 22.5 c 128,-1,1
EndSplineSet
PairPos2: "'kern' Horizontal Kerning in Arabic lookup 2 per glyph data 2" uni0671 dx=60 dy=0 dh=60 dv=0 dx=0 dy=0 dh=0 dv=0
PairPos2: "'kern' Horizontal Kerning in Arabic lookup 2 per glyph data 2" afii57410 dx=60 dy=0 dh=60 dv=0 dx=0 dy=0 dh=0 dv=0
PairPos2: "'kern' Horizontal Kerning in Arabic lookup 2 per glyph data 2" afii57411 dx=60 dy=0 dh=60 dv=0 dx=0 dy=0 dh=0 dv=0
PairPos2: "'kern' Horizontal Kerning in Arabic lookup 2 per glyph data 2" uniFE8E.short dx=60 dy=0 dh=60 dv=0 dx=0 dy=0 dh=0 dv=0
PairPos2: "'kern' Horizontal Kerning in Arabic lookup 2 per glyph data 2" afii57415.short dx=60 dy=0 dh=60 dv=0 dx=0 dy=0 dh=0 dv=0
PairPos2: "'kern' Horizontal Kerning in Arabic lookup 2 per glyph data 2" afii57415 dx=60 dy=0 dh=60 dv=0 dx=0 dy=0 dh=0 dv=0
PairPos2: "'kern' Horizontal Kerning in Arabic lookup 2 per glyph data 1" uniFEF3 dx=40 dy=0 dh=40 dv=0 dx=0 dy=0 dh=0 dv=0
PairPos2: "'kern' Horizontal Kerning in Arabic lookup 2 per glyph data 1" uniFB58 dx=40 dy=0 dh=40 dv=0 dx=0 dy=0 dh=0 dv=0
PairPos2: "'kern' Horizontal Kerning in Arabic lookup 2 per glyph data 1" afii57413 dx=40 dy=0 dh=40 dv=0 dx=0 dy=0 dh=0 dv=0
PairPos2: "'kern' Horizontal Kerning in Arabic lookup 2 per glyph data 1" uniFB94 dx=110 dy=0 dh=110 dv=0 dx=0 dy=0 dh=0 dv=0
PairPos2: "'kern' Horizontal Kerning in Arabic lookup 2 per glyph data 1" afii57509 dx=110 dy=0 dh=110 dv=0 dx=0 dy=0 dh=0 dv=0
PairPos2: "'kern' Horizontal Kerning in Arabic lookup 2 per glyph data 1" uniFB90 dx=110 dy=0 dh=110 dv=0 dx=0 dy=0 dh=0 dv=0
PairPos2: "'kern' Horizontal Kerning in Arabic lookup 2 per glyph data 1" uni06A9 dx=110 dy=0 dh=110 dv=0 dx=0 dy=0 dh=0 dv=0
PairPos2: "'kern' Horizontal Kerning in Arabic lookup 2 per glyph data 1" uniFEDB dx=110 dy=0 dh=110 dv=0 dx=0 dy=0 dh=0 dv=0
EndChar

StartChar: V
Encoding: 56 86 25
Width: 612
GlyphClass: 2
Flags: W
AnchorPoint: "Anchor-8" 0 0 basechar 0
AnchorPoint: "Anchor-7" 0 0 basechar 0
AnchorPoint: "Anchor-6" 307 648 basechar 0
AnchorPoint: "Anchor-5" 0 0 basechar 0
AnchorPoint: "Anchor-4" 307 0 basechar 0
LayerCount: 2
Fore
SplineSet
536 648 m 1,0,-1
 590 648 l 1,1,-1
 590 643 l 1,2,-1
 336 0 l 1,3,-1
 277 0 l 1,4,-1
 22 643 l 1,5,-1
 22 648 l 1,6,-1
 79 648 l 1,7,-1
 308 60 l 1,8,-1
 536 648 l 1,0,-1
EndSplineSet
PairPos2: "'kern' Horizontal Kerning in Arabic lookup 2 per glyph data 2" uni0671 dx=60 dy=0 dh=60 dv=0 dx=0 dy=0 dh=0 dv=0
PairPos2: "'kern' Horizontal Kerning in Arabic lookup 2 per glyph data 2" afii57410 dx=60 dy=0 dh=60 dv=0 dx=0 dy=0 dh=0 dv=0
PairPos2: "'kern' Horizontal Kerning in Arabic lookup 2 per glyph data 2" afii57411 dx=60 dy=0 dh=60 dv=0 dx=0 dy=0 dh=0 dv=0
PairPos2: "'kern' Horizontal Kerning in Arabic lookup 2 per glyph data 2" uniFE8E.short dx=60 dy=0 dh=60 dv=0 dx=0 dy=0 dh=0 dv=0
PairPos2: "'kern' Horizontal Kerning in Arabic lookup 2 per glyph data 2" afii57415.short dx=60 dy=0 dh=60 dv=0 dx=0 dy=0 dh=0 dv=0
PairPos2: "'kern' Horizontal Kerning in Arabic lookup 2 per glyph data 2" afii57415 dx=60 dy=0 dh=60 dv=0 dx=0 dy=0 dh=0 dv=0
PairPos2: "'kern' Horizontal Kerning in Arabic lookup 2 per glyph data 1" uniFEF3 dx=40 dy=0 dh=40 dv=0 dx=0 dy=0 dh=0 dv=0
PairPos2: "'kern' Horizontal Kerning in Arabic lookup 2 per glyph data 1" uniFB58 dx=40 dy=0 dh=40 dv=0 dx=0 dy=0 dh=0 dv=0
PairPos2: "'kern' Horizontal Kerning in Arabic lookup 2 per glyph data 1" afii57413 dx=40 dy=0 dh=40 dv=0 dx=0 dy=0 dh=0 dv=0
PairPos2: "'kern' Horizontal Kerning in Arabic lookup 2 per glyph data 1" uniFB94 dx=110 dy=0 dh=110 dv=0 dx=0 dy=0 dh=0 dv=0
PairPos2: "'kern' Horizontal Kerning in Arabic lookup 2 per glyph data 1" afii57509 dx=110 dy=0 dh=110 dv=0 dx=0 dy=0 dh=0 dv=0
PairPos2: "'kern' Horizontal Kerning in Arabic lookup 2 per glyph data 1" uniFB90 dx=110 dy=0 dh=110 dv=0 dx=0 dy=0 dh=0 dv=0
PairPos2: "'kern' Horizontal Kerning in Arabic lookup 2 per glyph data 1" uni06A9 dx=110 dy=0 dh=110 dv=0 dx=0 dy=0 dh=0 dv=0
PairPos2: "'kern' Horizontal Kerning in Arabic lookup 2 per glyph data 1" uniFEDB dx=110 dy=0 dh=110 dv=0 dx=0 dy=0 dh=0 dv=0
EndChar

StartChar: W
Encoding: 57 87 26
Width: 903
GlyphClass: 2
Flags: W
AnchorPoint: "Anchor-8" 0 0 basechar 0
AnchorPoint: "Anchor-7" 0 0 basechar 0
AnchorPoint: "Anchor-6" 455 648 basechar 0
AnchorPoint: "Anchor-5" 0 0 basechar 0
AnchorPoint: "Anchor-4" 455 0 basechar 0
LayerCount: 2
Fore
SplineSet
875 648 m 1,0,-1
 875 643 l 1,1,-1
 685 0 l 1,2,-1
 626 0 l 1,3,-1
 486 468 l 2,4,5
 461 553 461 553 452 599 c 1,6,7
 435 528 435 528 418 468 c 2,8,-1
 278 0 l 1,9,-1
 220 0 l 1,10,-1
 28 643 l 1,11,-1
 28 648 l 1,12,-1
 84 648 l 1,13,-1
 214 197 l 2,14,15
 235 126 235 126 250 62 c 1,16,-1
 259 99 l 2,17,18
 273 164 273 164 283 197 c 2,19,-1
 421 648 l 1,20,-1
 486 648 l 1,21,-1
 624 197 l 2,22,23
 631 174 631 174 639.5 140.5 c 128,-1,24
 648 107 648 107 651 95 c 2,25,-1
 659 61 l 1,26,27
 678 141 678 141 694 197 c 2,28,-1
 821 648 l 1,29,-1
 875 648 l 1,0,-1
EndSplineSet
PairPos2: "'kern' Horizontal Kerning in Arabic lookup 2 per glyph data 2" uni0671 dx=60 dy=0 dh=60 dv=0 dx=0 dy=0 dh=0 dv=0
PairPos2: "'kern' Horizontal Kerning in Arabic lookup 2 per glyph data 2" afii57410 dx=60 dy=0 dh=60 dv=0 dx=0 dy=0 dh=0 dv=0
PairPos2: "'kern' Horizontal Kerning in Arabic lookup 2 per glyph data 2" afii57411 dx=60 dy=0 dh=60 dv=0 dx=0 dy=0 dh=0 dv=0
PairPos2: "'kern' Horizontal Kerning in Arabic lookup 2 per glyph data 2" uniFE8E.short dx=60 dy=0 dh=60 dv=0 dx=0 dy=0 dh=0 dv=0
PairPos2: "'kern' Horizontal Kerning in Arabic lookup 2 per glyph data 2" afii57415.short dx=60 dy=0 dh=60 dv=0 dx=0 dy=0 dh=0 dv=0
PairPos2: "'kern' Horizontal Kerning in Arabic lookup 2 per glyph data 2" afii57415 dx=60 dy=0 dh=60 dv=0 dx=0 dy=0 dh=0 dv=0
PairPos2: "'kern' Horizontal Kerning in Arabic lookup 2 per glyph data 1" uniFEF3 dx=40 dy=0 dh=40 dv=0 dx=0 dy=0 dh=0 dv=0
PairPos2: "'kern' Horizontal Kerning in Arabic lookup 2 per glyph data 1" uniFB58 dx=40 dy=0 dh=40 dv=0 dx=0 dy=0 dh=0 dv=0
PairPos2: "'kern' Horizontal Kerning in Arabic lookup 2 per glyph data 1" afii57413 dx=40 dy=0 dh=40 dv=0 dx=0 dy=0 dh=0 dv=0
PairPos2: "'kern' Horizontal Kerning in Arabic lookup 2 per glyph data 1" uniFB94 dx=110 dy=0 dh=110 dv=0 dx=0 dy=0 dh=0 dv=0
PairPos2: "'kern' Horizontal Kerning in Arabic lookup 2 per glyph data 1" afii57509 dx=110 dy=0 dh=110 dv=0 dx=0 dy=0 dh=0 dv=0
PairPos2: "'kern' Horizontal Kerning in Arabic lookup 2 per glyph data 1" uniFB90 dx=110 dy=0 dh=110 dv=0 dx=0 dy=0 dh=0 dv=0
PairPos2: "'kern' Horizontal Kerning in Arabic lookup 2 per glyph data 1" uni06A9 dx=110 dy=0 dh=110 dv=0 dx=0 dy=0 dh=0 dv=0
PairPos2: "'kern' Horizontal Kerning in Arabic lookup 2 per glyph data 1" uniFEDB dx=110 dy=0 dh=110 dv=0 dx=0 dy=0 dh=0 dv=0
EndChar

StartChar: X
Encoding: 58 88 27
Width: 565
GlyphClass: 2
Flags: W
AnchorPoint: "Anchor-8" 0 0 basechar 0
AnchorPoint: "Anchor-7" 0 0 basechar 0
AnchorPoint: "Anchor-6" 283 648 basechar 0
AnchorPoint: "Anchor-5" 0 0 basechar 0
AnchorPoint: "Anchor-4" 283 0 basechar 0
LayerCount: 2
Fore
SplineSet
315 338 m 1,0,-1
 544 0 l 1,1,-1
 479 0 l 1,2,-1
 281 297 l 1,3,-1
 81 0 l 1,4,-1
 22 0 l 1,5,-1
 248 336 l 1,6,-1
 36 648 l 1,7,-1
 100 648 l 1,8,-1
 282 376 l 1,9,-1
 466 648 l 1,10,-1
 525 648 l 1,11,-1
 315 338 l 1,0,-1
EndSplineSet
PairPos2: "'kern' Horizontal Kerning in Arabic lookup 2 per glyph data 2" uni0671 dx=60 dy=0 dh=60 dv=0 dx=0 dy=0 dh=0 dv=0
PairPos2: "'kern' Horizontal Kerning in Arabic lookup 2 per glyph data 2" afii57410 dx=60 dy=0 dh=60 dv=0 dx=0 dy=0 dh=0 dv=0
PairPos2: "'kern' Horizontal Kerning in Arabic lookup 2 per glyph data 2" afii57411 dx=60 dy=0 dh=60 dv=0 dx=0 dy=0 dh=0 dv=0
PairPos2: "'kern' Horizontal Kerning in Arabic lookup 2 per glyph data 2" uniFE8E.short dx=60 dy=0 dh=60 dv=0 dx=0 dy=0 dh=0 dv=0
PairPos2: "'kern' Horizontal Kerning in Arabic lookup 2 per glyph data 2" afii57415.short dx=60 dy=0 dh=60 dv=0 dx=0 dy=0 dh=0 dv=0
PairPos2: "'kern' Horizontal Kerning in Arabic lookup 2 per glyph data 2" afii57415 dx=60 dy=0 dh=60 dv=0 dx=0 dy=0 dh=0 dv=0
PairPos2: "'kern' Horizontal Kerning in Arabic lookup 2 per glyph data 1" uniFEF3 dx=40 dy=0 dh=40 dv=0 dx=0 dy=0 dh=0 dv=0
PairPos2: "'kern' Horizontal Kerning in Arabic lookup 2 per glyph data 1" uniFB58 dx=40 dy=0 dh=40 dv=0 dx=0 dy=0 dh=0 dv=0
PairPos2: "'kern' Horizontal Kerning in Arabic lookup 2 per glyph data 1" afii57413 dx=40 dy=0 dh=40 dv=0 dx=0 dy=0 dh=0 dv=0
PairPos2: "'kern' Horizontal Kerning in Arabic lookup 2 per glyph data 1" uniFB94 dx=110 dy=0 dh=110 dv=0 dx=0 dy=0 dh=0 dv=0
PairPos2: "'kern' Horizontal Kerning in Arabic lookup 2 per glyph data 1" afii57509 dx=110 dy=0 dh=110 dv=0 dx=0 dy=0 dh=0 dv=0
PairPos2: "'kern' Horizontal Kerning in Arabic lookup 2 per glyph data 1" uniFB90 dx=110 dy=0 dh=110 dv=0 dx=0 dy=0 dh=0 dv=0
PairPos2: "'kern' Horizontal Kerning in Arabic lookup 2 per glyph data 1" uni06A9 dx=110 dy=0 dh=110 dv=0 dx=0 dy=0 dh=0 dv=0
PairPos2: "'kern' Horizontal Kerning in Arabic lookup 2 per glyph data 1" uniFEDB dx=110 dy=0 dh=110 dv=0 dx=0 dy=0 dh=0 dv=0
EndChar

StartChar: Y
Encoding: 59 89 28
Width: 566
GlyphClass: 2
Flags: W
AnchorPoint: "Anchor-8" 0 0 basechar 0
AnchorPoint: "Anchor-7" 0 0 basechar 0
AnchorPoint: "Anchor-6" 283 648 basechar 0
AnchorPoint: "Anchor-5" 0 0 basechar 0
AnchorPoint: "Anchor-4" 283 0 basechar 0
LayerCount: 2
Fore
SplineSet
544 648 m 1,0,-1
 544 643 l 1,1,-1
 309 262 l 1,2,-1
 309 0 l 1,3,-1
 254 0 l 1,4,-1
 254 264 l 1,5,-1
 22 643 l 1,6,-1
 22 648 l 1,7,-1
 81 648 l 1,8,-1
 284 312 l 1,9,-1
 488 648 l 1,10,-1
 544 648 l 1,0,-1
EndSplineSet
PairPos2: "'kern' Horizontal Kerning in Arabic lookup 2 per glyph data 2" uni0671 dx=60 dy=0 dh=60 dv=0 dx=0 dy=0 dh=0 dv=0
PairPos2: "'kern' Horizontal Kerning in Arabic lookup 2 per glyph data 2" afii57410 dx=60 dy=0 dh=60 dv=0 dx=0 dy=0 dh=0 dv=0
PairPos2: "'kern' Horizontal Kerning in Arabic lookup 2 per glyph data 2" afii57411 dx=60 dy=0 dh=60 dv=0 dx=0 dy=0 dh=0 dv=0
PairPos2: "'kern' Horizontal Kerning in Arabic lookup 2 per glyph data 2" uniFE8E.short dx=60 dy=0 dh=60 dv=0 dx=0 dy=0 dh=0 dv=0
PairPos2: "'kern' Horizontal Kerning in Arabic lookup 2 per glyph data 2" afii57415.short dx=60 dy=0 dh=60 dv=0 dx=0 dy=0 dh=0 dv=0
PairPos2: "'kern' Horizontal Kerning in Arabic lookup 2 per glyph data 2" afii57415 dx=60 dy=0 dh=60 dv=0 dx=0 dy=0 dh=0 dv=0
PairPos2: "'kern' Horizontal Kerning in Arabic lookup 2 per glyph data 1" uniFEF3 dx=40 dy=0 dh=40 dv=0 dx=0 dy=0 dh=0 dv=0
PairPos2: "'kern' Horizontal Kerning in Arabic lookup 2 per glyph data 1" uniFB58 dx=40 dy=0 dh=40 dv=0 dx=0 dy=0 dh=0 dv=0
PairPos2: "'kern' Horizontal Kerning in Arabic lookup 2 per glyph data 1" afii57413 dx=40 dy=0 dh=40 dv=0 dx=0 dy=0 dh=0 dv=0
PairPos2: "'kern' Horizontal Kerning in Arabic lookup 2 per glyph data 1" uniFB94 dx=110 dy=0 dh=110 dv=0 dx=0 dy=0 dh=0 dv=0
PairPos2: "'kern' Horizontal Kerning in Arabic lookup 2 per glyph data 1" afii57509 dx=110 dy=0 dh=110 dv=0 dx=0 dy=0 dh=0 dv=0
PairPos2: "'kern' Horizontal Kerning in Arabic lookup 2 per glyph data 1" uniFB90 dx=110 dy=0 dh=110 dv=0 dx=0 dy=0 dh=0 dv=0
PairPos2: "'kern' Horizontal Kerning in Arabic lookup 2 per glyph data 1" uni06A9 dx=110 dy=0 dh=110 dv=0 dx=0 dy=0 dh=0 dv=0
PairPos2: "'kern' Horizontal Kerning in Arabic lookup 2 per glyph data 1" uniFEDB dx=110 dy=0 dh=110 dv=0 dx=0 dy=0 dh=0 dv=0
EndChar

StartChar: Z
Encoding: 60 90 29
Width: 542
GlyphClass: 2
Flags: W
AnchorPoint: "Anchor-8" 0 0 basechar 0
AnchorPoint: "Anchor-7" 0 0 basechar 0
AnchorPoint: "Anchor-6" 271 648 basechar 0
AnchorPoint: "Anchor-5" 0 0 basechar 0
AnchorPoint: "Anchor-4" 271 0 basechar 0
LayerCount: 2
Fore
SplineSet
491 648 m 1,0,-1
 491 614 l 1,1,-1
 110 49 l 1,2,-1
 481 49 l 1,3,-1
 481 0 l 1,4,-1
 42 0 l 1,5,-1
 42 35 l 1,6,-1
 422 599 l 1,7,-1
 67 599 l 1,8,-1
 73 648 l 1,9,-1
 491 648 l 1,0,-1
EndSplineSet
PairPos2: "'kern' Horizontal Kerning in Arabic lookup 2 per glyph data 2" uni0671 dx=60 dy=0 dh=60 dv=0 dx=0 dy=0 dh=0 dv=0
PairPos2: "'kern' Horizontal Kerning in Arabic lookup 2 per glyph data 2" afii57410 dx=60 dy=0 dh=60 dv=0 dx=0 dy=0 dh=0 dv=0
PairPos2: "'kern' Horizontal Kerning in Arabic lookup 2 per glyph data 2" afii57411 dx=60 dy=0 dh=60 dv=0 dx=0 dy=0 dh=0 dv=0
PairPos2: "'kern' Horizontal Kerning in Arabic lookup 2 per glyph data 2" uniFE8E.short dx=60 dy=0 dh=60 dv=0 dx=0 dy=0 dh=0 dv=0
PairPos2: "'kern' Horizontal Kerning in Arabic lookup 2 per glyph data 2" afii57415.short dx=60 dy=0 dh=60 dv=0 dx=0 dy=0 dh=0 dv=0
PairPos2: "'kern' Horizontal Kerning in Arabic lookup 2 per glyph data 2" afii57415 dx=60 dy=0 dh=60 dv=0 dx=0 dy=0 dh=0 dv=0
PairPos2: "'kern' Horizontal Kerning in Arabic lookup 2 per glyph data 1" uniFEF3 dx=40 dy=0 dh=40 dv=0 dx=0 dy=0 dh=0 dv=0
PairPos2: "'kern' Horizontal Kerning in Arabic lookup 2 per glyph data 1" uniFB58 dx=40 dy=0 dh=40 dv=0 dx=0 dy=0 dh=0 dv=0
PairPos2: "'kern' Horizontal Kerning in Arabic lookup 2 per glyph data 1" afii57413 dx=40 dy=0 dh=40 dv=0 dx=0 dy=0 dh=0 dv=0
PairPos2: "'kern' Horizontal Kerning in Arabic lookup 2 per glyph data 1" uniFB94 dx=110 dy=0 dh=110 dv=0 dx=0 dy=0 dh=0 dv=0
PairPos2: "'kern' Horizontal Kerning in Arabic lookup 2 per glyph data 1" afii57509 dx=110 dy=0 dh=110 dv=0 dx=0 dy=0 dh=0 dv=0
PairPos2: "'kern' Horizontal Kerning in Arabic lookup 2 per glyph data 1" uniFB90 dx=110 dy=0 dh=110 dv=0 dx=0 dy=0 dh=0 dv=0
PairPos2: "'kern' Horizontal Kerning in Arabic lookup 2 per glyph data 1" uni06A9 dx=110 dy=0 dh=110 dv=0 dx=0 dy=0 dh=0 dv=0
PairPos2: "'kern' Horizontal Kerning in Arabic lookup 2 per glyph data 1" uniFEDB dx=110 dy=0 dh=110 dv=0 dx=0 dy=0 dh=0 dv=0
EndChar

StartChar: a
Encoding: 67 97 30
Width: 454
GlyphClass: 2
Flags: W
AnchorPoint: "Anchor-8" 0 0 basechar 0
AnchorPoint: "Anchor-7" 0 0 basechar 0
AnchorPoint: "Anchor-6" 216 430 basechar 0
AnchorPoint: "Anchor-5" 419 10 basechar 0
AnchorPoint: "Anchor-4" 259 0 basechar 0
LayerCount: 2
Fore
SplineSet
381 298 m 2,1,-1
 381 0 l 1,2,-1
 334 0 l 1,3,-1
 330 48 l 1,4,5
 292 18 292 18 249.5 3.5 c 128,-1,6
 207 -11 207 -11 164 -11 c 0,7,8
 125 -11 125 -11 95.5 3 c 128,-1,9
 66 17 66 17 49.5 42.5 c 128,-1,10
 33 68 33 68 33 102 c 0,11,12
 33 182 33 182 116 221 c 128,-1,13
 199 260 199 260 329 262 c 1,14,-1
 329 292 l 2,15,16
 329 343 329 343 306.5 369 c 128,-1,17
 284 395 284 395 236 395 c 0,18,19
 198 395 198 395 159.5 382.5 c 128,-1,20
 121 370 121 370 76 341 c 1,21,-1
 52 378 l 1,22,23
 142 440 142 440 241 440 c 0,24,0
 381 440 381 440 381 298 c 2,1,-1
110.5 53 m 128,-1,26
 132 34 132 34 176 34 c 0,27,28
 217 34 217 34 254 49 c 128,-1,29
 291 64 291 64 329 92 c 1,30,-1
 329 221 l 1,31,32
 222 219 222 219 155.5 191.5 c 128,-1,33
 89 164 89 164 89 106 c 0,34,25
 89 72 89 72 110.5 53 c 128,-1,26
EndSplineSet
Substitution2: "Single Substitution lookup 23 subtable" ordfeminine
Substitution2: "'aalt' Access All Alternates in Arabic lookup 0 subtable" ordfeminine
PairPos2: "'kern' Horizontal Kerning in Arabic lookup 2 per glyph data 2" uni0671 dx=60 dy=0 dh=60 dv=0 dx=0 dy=0 dh=0 dv=0
PairPos2: "'kern' Horizontal Kerning in Arabic lookup 2 per glyph data 2" afii57410 dx=60 dy=0 dh=60 dv=0 dx=0 dy=0 dh=0 dv=0
PairPos2: "'kern' Horizontal Kerning in Arabic lookup 2 per glyph data 2" afii57411 dx=60 dy=0 dh=60 dv=0 dx=0 dy=0 dh=0 dv=0
PairPos2: "'kern' Horizontal Kerning in Arabic lookup 2 per glyph data 2" uniFE8E.short dx=60 dy=0 dh=60 dv=0 dx=0 dy=0 dh=0 dv=0
PairPos2: "'kern' Horizontal Kerning in Arabic lookup 2 per glyph data 2" afii57415.short dx=60 dy=0 dh=60 dv=0 dx=0 dy=0 dh=0 dv=0
PairPos2: "'kern' Horizontal Kerning in Arabic lookup 2 per glyph data 2" afii57415 dx=60 dy=0 dh=60 dv=0 dx=0 dy=0 dh=0 dv=0
PairPos2: "'kern' Horizontal Kerning in Arabic lookup 2 per glyph data 1" uniFEF3 dx=40 dy=0 dh=40 dv=0 dx=0 dy=0 dh=0 dv=0
PairPos2: "'kern' Horizontal Kerning in Arabic lookup 2 per glyph data 1" uniFB58 dx=40 dy=0 dh=40 dv=0 dx=0 dy=0 dh=0 dv=0
PairPos2: "'kern' Horizontal Kerning in Arabic lookup 2 per glyph data 1" afii57413 dx=40 dy=0 dh=40 dv=0 dx=0 dy=0 dh=0 dv=0
PairPos2: "'kern' Horizontal Kerning in Arabic lookup 2 per glyph data 1" uniFB94 dx=110 dy=0 dh=110 dv=0 dx=0 dy=0 dh=0 dv=0
PairPos2: "'kern' Horizontal Kerning in Arabic lookup 2 per glyph data 1" afii57509 dx=110 dy=0 dh=110 dv=0 dx=0 dy=0 dh=0 dv=0
PairPos2: "'kern' Horizontal Kerning in Arabic lookup 2 per glyph data 1" uniFB90 dx=110 dy=0 dh=110 dv=0 dx=0 dy=0 dh=0 dv=0
PairPos2: "'kern' Horizontal Kerning in Arabic lookup 2 per glyph data 1" uni06A9 dx=110 dy=0 dh=110 dv=0 dx=0 dy=0 dh=0 dv=0
PairPos2: "'kern' Horizontal Kerning in Arabic lookup 2 per glyph data 1" uniFEDB dx=110 dy=0 dh=110 dv=0 dx=0 dy=0 dh=0 dv=0
EndChar

StartChar: b
Encoding: 68 98 31
Width: 498
GlyphClass: 2
Flags: W
AnchorPoint: "Anchor-8" 0 0 basechar 0
AnchorPoint: "Anchor-7" 0 0 basechar 0
AnchorPoint: "Anchor-6" 104 688 basechar 0
AnchorPoint: "Anchor-5" 0 0 basechar 0
AnchorPoint: "Anchor-4" 253 0 basechar 0
LayerCount: 2
Fore
SplineSet
416 383.5 m 128,-1,1
 457 327 457 327 457 231 c 0,2,3
 457 148 457 148 422.5 93.5 c 128,-1,4
 388 39 388 39 333.5 14 c 128,-1,5
 279 -11 279 -11 216 -11 c 0,6,7
 184 -11 184 -11 150.5 -4.5 c 128,-1,8
 117 2 117 2 79 16 c 1,9,-1
 79 688 l 1,10,-1
 131 694 l 1,11,-1
 131 397 l 1,12,13
 169 417 169 417 210 428.5 c 128,-1,14
 251 440 251 440 288 440 c 0,15,0
 375 440 375 440 416 383.5 c 128,-1,1
351.5 84.5 m 128,-1,17
 401 135 401 135 401 233 c 0,18,19
 401 311 401 311 372 353 c 128,-1,20
 343 395 343 395 278 395 c 256,21,22
 213 395 213 395 131 356 c 1,23,-1
 131 45 l 1,24,25
 173 34 173 34 214 34 c 0,26,16
 302 34 302 34 351.5 84.5 c 128,-1,17
EndSplineSet
PairPos2: "'kern' Horizontal Kerning in Arabic lookup 2 per glyph data 2" uni0671 dx=60 dy=0 dh=60 dv=0 dx=0 dy=0 dh=0 dv=0
PairPos2: "'kern' Horizontal Kerning in Arabic lookup 2 per glyph data 2" afii57410 dx=60 dy=0 dh=60 dv=0 dx=0 dy=0 dh=0 dv=0
PairPos2: "'kern' Horizontal Kerning in Arabic lookup 2 per glyph data 2" afii57411 dx=60 dy=0 dh=60 dv=0 dx=0 dy=0 dh=0 dv=0
PairPos2: "'kern' Horizontal Kerning in Arabic lookup 2 per glyph data 2" uniFE8E.short dx=60 dy=0 dh=60 dv=0 dx=0 dy=0 dh=0 dv=0
PairPos2: "'kern' Horizontal Kerning in Arabic lookup 2 per glyph data 2" afii57415.short dx=60 dy=0 dh=60 dv=0 dx=0 dy=0 dh=0 dv=0
PairPos2: "'kern' Horizontal Kerning in Arabic lookup 2 per glyph data 2" afii57415 dx=60 dy=0 dh=60 dv=0 dx=0 dy=0 dh=0 dv=0
PairPos2: "'kern' Horizontal Kerning in Arabic lookup 2 per glyph data 1" uniFEF3 dx=40 dy=0 dh=40 dv=0 dx=0 dy=0 dh=0 dv=0
PairPos2: "'kern' Horizontal Kerning in Arabic lookup 2 per glyph data 1" uniFB58 dx=40 dy=0 dh=40 dv=0 dx=0 dy=0 dh=0 dv=0
PairPos2: "'kern' Horizontal Kerning in Arabic lookup 2 per glyph data 1" afii57413 dx=40 dy=0 dh=40 dv=0 dx=0 dy=0 dh=0 dv=0
PairPos2: "'kern' Horizontal Kerning in Arabic lookup 2 per glyph data 1" uniFB94 dx=110 dy=0 dh=110 dv=0 dx=0 dy=0 dh=0 dv=0
PairPos2: "'kern' Horizontal Kerning in Arabic lookup 2 per glyph data 1" afii57509 dx=110 dy=0 dh=110 dv=0 dx=0 dy=0 dh=0 dv=0
PairPos2: "'kern' Horizontal Kerning in Arabic lookup 2 per glyph data 1" uniFB90 dx=110 dy=0 dh=110 dv=0 dx=0 dy=0 dh=0 dv=0
PairPos2: "'kern' Horizontal Kerning in Arabic lookup 2 per glyph data 1" uni06A9 dx=110 dy=0 dh=110 dv=0 dx=0 dy=0 dh=0 dv=0
PairPos2: "'kern' Horizontal Kerning in Arabic lookup 2 per glyph data 1" uniFEDB dx=110 dy=0 dh=110 dv=0 dx=0 dy=0 dh=0 dv=0
EndChar

StartChar: c
Encoding: 69 99 32
Width: 409
GlyphClass: 2
Flags: W
AnchorPoint: "Anchor-8" 0 0 basechar 0
AnchorPoint: "Anchor-7" 0 0 basechar 0
AnchorPoint: "Anchor-6" 243 430 basechar 0
AnchorPoint: "Anchor-5" 0 0 basechar 0
AnchorPoint: "Anchor-4" 220 0 basechar 0
LayerCount: 2
Fore
SplineSet
130 14.5 m 128,-1,1
 87 40 87 40 64 88.5 c 128,-1,2
 41 137 41 137 41 205 c 0,3,4
 41 284 41 284 71.5 337 c 128,-1,5
 102 390 102 390 149.5 415 c 128,-1,6
 197 440 197 440 249 440 c 0,7,8
 313 440 313 440 379 405 c 1,9,-1
 360 365 l 1,10,11
 328 380 328 380 300.5 387.5 c 128,-1,12
 273 395 273 395 245 395 c 0,13,14
 199 395 199 395 165.5 371 c 128,-1,15
 132 347 132 347 114 304 c 128,-1,16
 96 261 96 261 96 205 c 0,17,18
 96 35 96 35 238 35 c 0,19,20
 274 35 274 35 306 46 c 128,-1,21
 338 57 338 57 370 78 c 1,22,-1
 392 40 l 1,23,24
 320 -11 320 -11 232 -11 c 0,25,0
 173 -11 173 -11 130 14.5 c 128,-1,1
EndSplineSet
PairPos2: "'kern' Horizontal Kerning in Arabic lookup 2 per glyph data 2" uni0671 dx=60 dy=0 dh=60 dv=0 dx=0 dy=0 dh=0 dv=0
PairPos2: "'kern' Horizontal Kerning in Arabic lookup 2 per glyph data 2" afii57410 dx=60 dy=0 dh=60 dv=0 dx=0 dy=0 dh=0 dv=0
PairPos2: "'kern' Horizontal Kerning in Arabic lookup 2 per glyph data 2" afii57411 dx=60 dy=0 dh=60 dv=0 dx=0 dy=0 dh=0 dv=0
PairPos2: "'kern' Horizontal Kerning in Arabic lookup 2 per glyph data 2" uniFE8E.short dx=60 dy=0 dh=60 dv=0 dx=0 dy=0 dh=0 dv=0
PairPos2: "'kern' Horizontal Kerning in Arabic lookup 2 per glyph data 2" afii57415.short dx=60 dy=0 dh=60 dv=0 dx=0 dy=0 dh=0 dv=0
PairPos2: "'kern' Horizontal Kerning in Arabic lookup 2 per glyph data 2" afii57415 dx=60 dy=0 dh=60 dv=0 dx=0 dy=0 dh=0 dv=0
PairPos2: "'kern' Horizontal Kerning in Arabic lookup 2 per glyph data 1" uniFEF3 dx=40 dy=0 dh=40 dv=0 dx=0 dy=0 dh=0 dv=0
PairPos2: "'kern' Horizontal Kerning in Arabic lookup 2 per glyph data 1" uniFB58 dx=40 dy=0 dh=40 dv=0 dx=0 dy=0 dh=0 dv=0
PairPos2: "'kern' Horizontal Kerning in Arabic lookup 2 per glyph data 1" afii57413 dx=40 dy=0 dh=40 dv=0 dx=0 dy=0 dh=0 dv=0
PairPos2: "'kern' Horizontal Kerning in Arabic lookup 2 per glyph data 1" uniFB94 dx=110 dy=0 dh=110 dv=0 dx=0 dy=0 dh=0 dv=0
PairPos2: "'kern' Horizontal Kerning in Arabic lookup 2 per glyph data 1" afii57509 dx=110 dy=0 dh=110 dv=0 dx=0 dy=0 dh=0 dv=0
PairPos2: "'kern' Horizontal Kerning in Arabic lookup 2 per glyph data 1" uniFB90 dx=110 dy=0 dh=110 dv=0 dx=0 dy=0 dh=0 dv=0
PairPos2: "'kern' Horizontal Kerning in Arabic lookup 2 per glyph data 1" uni06A9 dx=110 dy=0 dh=110 dv=0 dx=0 dy=0 dh=0 dv=0
PairPos2: "'kern' Horizontal Kerning in Arabic lookup 2 per glyph data 1" uniFEDB dx=110 dy=0 dh=110 dv=0 dx=0 dy=0 dh=0 dv=0
EndChar

StartChar: d
Encoding: 70 100 33
Width: 498
GlyphClass: 2
Flags: W
AnchorPoint: "Anchor-8" 427 688 basechar 0
AnchorPoint: "Anchor-7" 322 574 basechar 0
AnchorPoint: "Anchor-6" 393 688 basechar 0
AnchorPoint: "Anchor-5" 0 0 basechar 0
AnchorPoint: "Anchor-4" 236 0 basechar 0
LayerCount: 2
Fore
SplineSet
419 694 m 1,0,-1
 419 0 l 1,1,-1
 372 0 l 1,2,-1
 369 35 l 1,3,4
 333 13 333 13 293.5 1 c 128,-1,5
 254 -11 254 -11 217 -11 c 0,6,7
 158 -11 158 -11 118.5 16.5 c 128,-1,8
 79 44 79 44 60 92 c 128,-1,9
 41 140 41 140 41 200 c 0,10,11
 41 272 41 272 68 326.5 c 128,-1,12
 95 381 95 381 145 410.5 c 128,-1,13
 195 440 195 440 262 440 c 0,14,15
 317 440 317 440 367 421 c 1,16,-1
 367 688 l 1,17,-1
 419 694 l 1,0,-1
129 80 m 128,-1,19
 162 35 162 35 228 35 c 0,20,21
 267 35 267 35 301 46.5 c 128,-1,22
 335 58 335 58 367 77 c 1,23,-1
 367 377 l 1,24,25
 317 397 317 397 265 397 c 256,26,27
 213 397 213 397 175 374.5 c 128,-1,28
 137 352 137 352 116.5 308 c 128,-1,29
 96 264 96 264 96 202 c 0,30,18
 96 125 96 125 129 80 c 128,-1,19
EndSplineSet
PairPos2: "'kern' Horizontal Kerning in Arabic lookup 2 per glyph data 2" uni0671 dx=60 dy=0 dh=60 dv=0 dx=0 dy=0 dh=0 dv=0
PairPos2: "'kern' Horizontal Kerning in Arabic lookup 2 per glyph data 2" afii57410 dx=60 dy=0 dh=60 dv=0 dx=0 dy=0 dh=0 dv=0
PairPos2: "'kern' Horizontal Kerning in Arabic lookup 2 per glyph data 2" afii57411 dx=60 dy=0 dh=60 dv=0 dx=0 dy=0 dh=0 dv=0
PairPos2: "'kern' Horizontal Kerning in Arabic lookup 2 per glyph data 2" uniFE8E.short dx=60 dy=0 dh=60 dv=0 dx=0 dy=0 dh=0 dv=0
PairPos2: "'kern' Horizontal Kerning in Arabic lookup 2 per glyph data 2" afii57415.short dx=60 dy=0 dh=60 dv=0 dx=0 dy=0 dh=0 dv=0
PairPos2: "'kern' Horizontal Kerning in Arabic lookup 2 per glyph data 2" afii57415 dx=60 dy=0 dh=60 dv=0 dx=0 dy=0 dh=0 dv=0
PairPos2: "'kern' Horizontal Kerning in Arabic lookup 2 per glyph data 1" uniFEF3 dx=40 dy=0 dh=40 dv=0 dx=0 dy=0 dh=0 dv=0
PairPos2: "'kern' Horizontal Kerning in Arabic lookup 2 per glyph data 1" uniFB58 dx=40 dy=0 dh=40 dv=0 dx=0 dy=0 dh=0 dv=0
PairPos2: "'kern' Horizontal Kerning in Arabic lookup 2 per glyph data 1" afii57413 dx=40 dy=0 dh=40 dv=0 dx=0 dy=0 dh=0 dv=0
PairPos2: "'kern' Horizontal Kerning in Arabic lookup 2 per glyph data 1" uniFB94 dx=110 dy=0 dh=110 dv=0 dx=0 dy=0 dh=0 dv=0
PairPos2: "'kern' Horizontal Kerning in Arabic lookup 2 per glyph data 1" afii57509 dx=110 dy=0 dh=110 dv=0 dx=0 dy=0 dh=0 dv=0
PairPos2: "'kern' Horizontal Kerning in Arabic lookup 2 per glyph data 1" uniFB90 dx=110 dy=0 dh=110 dv=0 dx=0 dy=0 dh=0 dv=0
PairPos2: "'kern' Horizontal Kerning in Arabic lookup 2 per glyph data 1" uni06A9 dx=110 dy=0 dh=110 dv=0 dx=0 dy=0 dh=0 dv=0
PairPos2: "'kern' Horizontal Kerning in Arabic lookup 2 per glyph data 1" uniFEDB dx=110 dy=0 dh=110 dv=0 dx=0 dy=0 dh=0 dv=0
EndChar

StartChar: e
Encoding: 71 101 34
Width: 454
GlyphClass: 2
Flags: W
AnchorPoint: "Anchor-8" 0 0 basechar 0
AnchorPoint: "Anchor-7" 0 0 basechar 0
AnchorPoint: "Anchor-6" 242 430 basechar 0
AnchorPoint: "Anchor-5" 380 10 basechar 0
AnchorPoint: "Anchor-4" 232 0 basechar 0
LayerCount: 2
Fore
SplineSet
411 211 m 1,1,-1
 93 211 l 1,2,3
 94 119 94 119 131.5 76.5 c 128,-1,4
 169 34 169 34 236 34 c 0,5,6
 268 34 268 34 293 40.5 c 128,-1,7
 318 47 318 47 336.5 56.5 c 128,-1,8
 355 66 355 66 379 82 c 1,9,-1
 400 44 l 1,10,11
 363 18 363 18 323.5 3.5 c 128,-1,12
 284 -11 284 -11 235 -11 c 0,13,14
 146 -11 146 -11 93.5 44 c 128,-1,15
 41 99 41 99 41 214 c 0,16,17
 41 271 41 271 63 322.5 c 128,-1,18
 85 374 85 374 130 407 c 128,-1,19
 175 440 175 440 242 440 c 0,20,21
 299 440 299 440 337.5 416 c 128,-1,22
 376 392 376 392 394.5 351.5 c 128,-1,23
 413 311 413 311 413 259 c 0,24,0
 413 230 413 230 411 211 c 1,1,-1
166 378 m 128,-1,26
 135 357 135 357 117.5 324 c 128,-1,27
 100 291 100 291 95 252 c 1,28,-1
 363 252 l 1,29,-1
 363 260 l 2,30,31
 363 326 363 326 333 362.5 c 128,-1,32
 303 399 303 399 242 399 c 0,33,25
 197 399 197 399 166 378 c 128,-1,26
EndSplineSet
PairPos2: "'kern' Horizontal Kerning in Arabic lookup 2 per glyph data 2" uni0671 dx=60 dy=0 dh=60 dv=0 dx=0 dy=0 dh=0 dv=0
PairPos2: "'kern' Horizontal Kerning in Arabic lookup 2 per glyph data 2" afii57410 dx=60 dy=0 dh=60 dv=0 dx=0 dy=0 dh=0 dv=0
PairPos2: "'kern' Horizontal Kerning in Arabic lookup 2 per glyph data 2" afii57411 dx=60 dy=0 dh=60 dv=0 dx=0 dy=0 dh=0 dv=0
PairPos2: "'kern' Horizontal Kerning in Arabic lookup 2 per glyph data 2" uniFE8E.short dx=60 dy=0 dh=60 dv=0 dx=0 dy=0 dh=0 dv=0
PairPos2: "'kern' Horizontal Kerning in Arabic lookup 2 per glyph data 2" afii57415.short dx=60 dy=0 dh=60 dv=0 dx=0 dy=0 dh=0 dv=0
PairPos2: "'kern' Horizontal Kerning in Arabic lookup 2 per glyph data 2" afii57415 dx=60 dy=0 dh=60 dv=0 dx=0 dy=0 dh=0 dv=0
PairPos2: "'kern' Horizontal Kerning in Arabic lookup 2 per glyph data 1" uniFEF3 dx=40 dy=0 dh=40 dv=0 dx=0 dy=0 dh=0 dv=0
PairPos2: "'kern' Horizontal Kerning in Arabic lookup 2 per glyph data 1" uniFB58 dx=40 dy=0 dh=40 dv=0 dx=0 dy=0 dh=0 dv=0
PairPos2: "'kern' Horizontal Kerning in Arabic lookup 2 per glyph data 1" afii57413 dx=40 dy=0 dh=40 dv=0 dx=0 dy=0 dh=0 dv=0
PairPos2: "'kern' Horizontal Kerning in Arabic lookup 2 per glyph data 1" uniFB94 dx=110 dy=0 dh=110 dv=0 dx=0 dy=0 dh=0 dv=0
PairPos2: "'kern' Horizontal Kerning in Arabic lookup 2 per glyph data 1" afii57509 dx=110 dy=0 dh=110 dv=0 dx=0 dy=0 dh=0 dv=0
PairPos2: "'kern' Horizontal Kerning in Arabic lookup 2 per glyph data 1" uniFB90 dx=110 dy=0 dh=110 dv=0 dx=0 dy=0 dh=0 dv=0
PairPos2: "'kern' Horizontal Kerning in Arabic lookup 2 per glyph data 1" uni06A9 dx=110 dy=0 dh=110 dv=0 dx=0 dy=0 dh=0 dv=0
PairPos2: "'kern' Horizontal Kerning in Arabic lookup 2 per glyph data 1" uniFEDB dx=110 dy=0 dh=110 dv=0 dx=0 dy=0 dh=0 dv=0
EndChar

StartChar: f
Encoding: 72 102 35
Width: 316
GlyphClass: 2
Flags: W
AnchorPoint: "Anchor-8" 0 0 basechar 0
AnchorPoint: "Anchor-7" 0 0 basechar 0
AnchorPoint: "Anchor-6" 253 688 basechar 0
AnchorPoint: "Anchor-5" 0 0 basechar 0
AnchorPoint: "Anchor-4" 144 0 basechar 0
LayerCount: 2
Fore
SplineSet
189.5 619.5 m 128,-1,1
 166 591 166 591 166 542 c 2,2,-1
 166 430 l 1,3,-1
 310 430 l 1,4,-1
 305 388 l 1,5,-1
 166 388 l 1,6,-1
 166 0 l 1,7,-1
 114 0 l 1,8,-1
 114 388 l 1,9,-1
 23 388 l 1,10,-1
 23 430 l 1,11,-1
 114 430 l 1,12,-1
 114 540 l 2,13,14
 114 587 114 587 131.5 621.5 c 128,-1,15
 149 656 149 656 181.5 674.5 c 128,-1,16
 214 693 214 693 258 693 c 0,17,18
 284 693 284 693 306 688.5 c 128,-1,19
 328 684 328 684 351 675 c 1,20,-1
 336 633 l 1,21,22
 315 640 315 640 298 644 c 128,-1,23
 281 648 281 648 261 648 c 0,24,0
 213 648 213 648 189.5 619.5 c 128,-1,1
EndSplineSet
PairPos2: "'kern' Horizontal Kerning in Arabic lookup 2 per glyph data 2" uni0671 dx=60 dy=0 dh=60 dv=0 dx=0 dy=0 dh=0 dv=0
PairPos2: "'kern' Horizontal Kerning in Arabic lookup 2 per glyph data 2" afii57410 dx=60 dy=0 dh=60 dv=0 dx=0 dy=0 dh=0 dv=0
PairPos2: "'kern' Horizontal Kerning in Arabic lookup 2 per glyph data 2" afii57411 dx=60 dy=0 dh=60 dv=0 dx=0 dy=0 dh=0 dv=0
PairPos2: "'kern' Horizontal Kerning in Arabic lookup 2 per glyph data 2" uniFE8E.short dx=60 dy=0 dh=60 dv=0 dx=0 dy=0 dh=0 dv=0
PairPos2: "'kern' Horizontal Kerning in Arabic lookup 2 per glyph data 2" afii57415.short dx=60 dy=0 dh=60 dv=0 dx=0 dy=0 dh=0 dv=0
PairPos2: "'kern' Horizontal Kerning in Arabic lookup 2 per glyph data 2" afii57415 dx=60 dy=0 dh=60 dv=0 dx=0 dy=0 dh=0 dv=0
PairPos2: "'kern' Horizontal Kerning in Arabic lookup 2 per glyph data 1" uniFEF3 dx=40 dy=0 dh=40 dv=0 dx=0 dy=0 dh=0 dv=0
PairPos2: "'kern' Horizontal Kerning in Arabic lookup 2 per glyph data 1" uniFB58 dx=40 dy=0 dh=40 dv=0 dx=0 dy=0 dh=0 dv=0
PairPos2: "'kern' Horizontal Kerning in Arabic lookup 2 per glyph data 1" afii57413 dx=40 dy=0 dh=40 dv=0 dx=0 dy=0 dh=0 dv=0
PairPos2: "'kern' Horizontal Kerning in Arabic lookup 2 per glyph data 1" uniFB94 dx=110 dy=0 dh=110 dv=0 dx=0 dy=0 dh=0 dv=0
PairPos2: "'kern' Horizontal Kerning in Arabic lookup 2 per glyph data 1" afii57509 dx=110 dy=0 dh=110 dv=0 dx=0 dy=0 dh=0 dv=0
PairPos2: "'kern' Horizontal Kerning in Arabic lookup 2 per glyph data 1" uniFB90 dx=110 dy=0 dh=110 dv=0 dx=0 dy=0 dh=0 dv=0
PairPos2: "'kern' Horizontal Kerning in Arabic lookup 2 per glyph data 1" uni06A9 dx=110 dy=0 dh=110 dv=0 dx=0 dy=0 dh=0 dv=0
PairPos2: "'kern' Horizontal Kerning in Arabic lookup 2 per glyph data 1" uniFEDB dx=110 dy=0 dh=110 dv=0 dx=0 dy=0 dh=0 dv=0
EndChar

StartChar: g
Encoding: 73 103 36
Width: 480
GlyphClass: 2
Flags: W
AnchorPoint: "Anchor-8" 0 0 basechar 0
AnchorPoint: "Anchor-7" 0 0 basechar 0
AnchorPoint: "Anchor-6" 239 430 basechar 0
AnchorPoint: "Anchor-5" 0 0 basechar 0
AnchorPoint: "Anchor-4" 236 -186 basechar 0
LayerCount: 2
Fore
SplineSet
429.5 15.5 m 128,-1,1
 467 -11 467 -11 467 -59 c 0,2,3
 467 -99 467 -99 439 -130.5 c 128,-1,4
 411 -162 411 -162 358.5 -179.5 c 128,-1,5
 306 -197 306 -197 234 -197 c 0,6,7
 141 -197 141 -197 89 -166 c 128,-1,8
 37 -135 37 -135 37 -73 c 0,9,10
 37 -38 37 -38 55 -11.5 c 128,-1,11
 73 15 73 15 110 40 c 1,12,13
 77 59 77 59 77 95 c 0,14,15
 77 114 77 114 88 130.5 c 128,-1,16
 99 147 99 147 122 162 c 1,17,18
 90 183 90 183 74 215.5 c 128,-1,19
 58 248 58 248 58 286 c 0,20,21
 58 337 58 337 82 371.5 c 128,-1,22
 106 406 106 406 147.5 423 c 128,-1,23
 189 440 189 440 241 440 c 0,24,25
 272 440 272 440 295 434 c 1,26,-1
 445 491 l 1,27,-1
 463 448 l 1,28,-1
 344 412 l 1,29,30
 382 389 382 389 400 355.5 c 128,-1,31
 418 322 418 322 418 285 c 0,32,33
 418 235 418 235 393.5 201 c 128,-1,34
 369 167 369 167 327 150 c 128,-1,35
 285 133 285 133 233 133 c 0,36,37
 190 133 190 133 154 146 c 1,38,39
 129 124 129 124 129 104 c 256,40,41
 129 84 129 84 152 74 c 128,-1,42
 175 64 175 64 225 59 c 2,43,-1
 316 50 l 2,44,0
 392 42 392 42 429.5 15.5 c 128,-1,1
140.5 367.5 m 128,-1,46
 110 335 110 335 110 287 c 0,47,48
 110 237 110 237 140.5 205.5 c 128,-1,49
 171 174 171 174 239 174 c 0,50,51
 299 174 299 174 332.5 202.5 c 128,-1,52
 366 231 366 231 366 284 c 0,53,54
 366 319 366 319 350 345.5 c 128,-1,55
 334 372 334 372 305 386 c 128,-1,56
 276 400 276 400 238 400 c 0,57,45
 171 400 171 400 140.5 367.5 c 128,-1,46
316.5 -144.5 m 128,-1,59
 357 -136 357 -136 385 -116 c 128,-1,60
 413 -96 413 -96 413 -63 c 0,61,62
 413 -33 413 -33 386.5 -16.5 c 128,-1,63
 360 0 360 0 302 6 c 2,64,-1
 212 15 l 2,65,66
 178 18 178 18 147 26 c 1,67,68
 88 -14 88 -14 88 -66 c 0,69,70
 88 -114 88 -114 125 -133.5 c 128,-1,71
 162 -153 162 -153 236 -153 c 0,72,58
 276 -153 276 -153 316.5 -144.5 c 128,-1,59
EndSplineSet
PairPos2: "'kern' Horizontal Kerning in Arabic lookup 2 per glyph data 2" uni0671 dx=60 dy=0 dh=60 dv=0 dx=0 dy=0 dh=0 dv=0
PairPos2: "'kern' Horizontal Kerning in Arabic lookup 2 per glyph data 2" afii57410 dx=60 dy=0 dh=60 dv=0 dx=0 dy=0 dh=0 dv=0
PairPos2: "'kern' Horizontal Kerning in Arabic lookup 2 per glyph data 2" afii57411 dx=60 dy=0 dh=60 dv=0 dx=0 dy=0 dh=0 dv=0
PairPos2: "'kern' Horizontal Kerning in Arabic lookup 2 per glyph data 2" uniFE8E.short dx=60 dy=0 dh=60 dv=0 dx=0 dy=0 dh=0 dv=0
PairPos2: "'kern' Horizontal Kerning in Arabic lookup 2 per glyph data 2" afii57415.short dx=60 dy=0 dh=60 dv=0 dx=0 dy=0 dh=0 dv=0
PairPos2: "'kern' Horizontal Kerning in Arabic lookup 2 per glyph data 2" afii57415 dx=60 dy=0 dh=60 dv=0 dx=0 dy=0 dh=0 dv=0
PairPos2: "'kern' Horizontal Kerning in Arabic lookup 2 per glyph data 1" uniFEF3 dx=40 dy=0 dh=40 dv=0 dx=0 dy=0 dh=0 dv=0
PairPos2: "'kern' Horizontal Kerning in Arabic lookup 2 per glyph data 1" uniFB58 dx=40 dy=0 dh=40 dv=0 dx=0 dy=0 dh=0 dv=0
PairPos2: "'kern' Horizontal Kerning in Arabic lookup 2 per glyph data 1" afii57413 dx=40 dy=0 dh=40 dv=0 dx=0 dy=0 dh=0 dv=0
PairPos2: "'kern' Horizontal Kerning in Arabic lookup 2 per glyph data 1" uniFB94 dx=110 dy=0 dh=110 dv=0 dx=0 dy=0 dh=0 dv=0
PairPos2: "'kern' Horizontal Kerning in Arabic lookup 2 per glyph data 1" afii57509 dx=110 dy=0 dh=110 dv=0 dx=0 dy=0 dh=0 dv=0
PairPos2: "'kern' Horizontal Kerning in Arabic lookup 2 per glyph data 1" uniFB90 dx=110 dy=0 dh=110 dv=0 dx=0 dy=0 dh=0 dv=0
PairPos2: "'kern' Horizontal Kerning in Arabic lookup 2 per glyph data 1" uni06A9 dx=110 dy=0 dh=110 dv=0 dx=0 dy=0 dh=0 dv=0
PairPos2: "'kern' Horizontal Kerning in Arabic lookup 2 per glyph data 1" uniFEDB dx=110 dy=0 dh=110 dv=0 dx=0 dy=0 dh=0 dv=0
EndChar

StartChar: h
Encoding: 74 104 37
Width: 511
GlyphClass: 2
Flags: W
AnchorPoint: "Anchor-8" 131 688 basechar 0
AnchorPoint: "Anchor-7" 176 574 basechar 0
AnchorPoint: "Anchor-6" 252 688 basechar 0
AnchorPoint: "Anchor-5" 0 0 basechar 0
AnchorPoint: "Anchor-4" 254 0 basechar 0
LayerCount: 2
Fore
SplineSet
398 409.5 m 128,-1,1
 437 379 437 379 437 304 c 2,2,-1
 437 0 l 1,3,-1
 385 0 l 1,4,-1
 385 282 l 2,5,6
 385 322 385 322 375.5 346.5 c 128,-1,7
 366 371 366 371 344 383 c 128,-1,8
 322 395 322 395 284 395 c 0,9,10
 248 395 248 395 208.5 383.5 c 128,-1,11
 169 372 169 372 131 355 c 1,12,-1
 131 0 l 1,13,-1
 79 0 l 1,14,-1
 79 688 l 1,15,-1
 131 694 l 1,16,-1
 131 394 l 1,17,18
 170 414 170 414 213.5 427 c 128,-1,19
 257 440 257 440 298 440 c 0,20,0
 359 440 359 440 398 409.5 c 128,-1,1
EndSplineSet
PairPos2: "'kern' Horizontal Kerning in Arabic lookup 2 per glyph data 2" uni0671 dx=60 dy=0 dh=60 dv=0 dx=0 dy=0 dh=0 dv=0
PairPos2: "'kern' Horizontal Kerning in Arabic lookup 2 per glyph data 2" afii57410 dx=60 dy=0 dh=60 dv=0 dx=0 dy=0 dh=0 dv=0
PairPos2: "'kern' Horizontal Kerning in Arabic lookup 2 per glyph data 2" afii57411 dx=60 dy=0 dh=60 dv=0 dx=0 dy=0 dh=0 dv=0
PairPos2: "'kern' Horizontal Kerning in Arabic lookup 2 per glyph data 2" uniFE8E.short dx=60 dy=0 dh=60 dv=0 dx=0 dy=0 dh=0 dv=0
PairPos2: "'kern' Horizontal Kerning in Arabic lookup 2 per glyph data 2" afii57415.short dx=60 dy=0 dh=60 dv=0 dx=0 dy=0 dh=0 dv=0
PairPos2: "'kern' Horizontal Kerning in Arabic lookup 2 per glyph data 2" afii57415 dx=60 dy=0 dh=60 dv=0 dx=0 dy=0 dh=0 dv=0
PairPos2: "'kern' Horizontal Kerning in Arabic lookup 2 per glyph data 1" uniFEF3 dx=40 dy=0 dh=40 dv=0 dx=0 dy=0 dh=0 dv=0
PairPos2: "'kern' Horizontal Kerning in Arabic lookup 2 per glyph data 1" uniFB58 dx=40 dy=0 dh=40 dv=0 dx=0 dy=0 dh=0 dv=0
PairPos2: "'kern' Horizontal Kerning in Arabic lookup 2 per glyph data 1" afii57413 dx=40 dy=0 dh=40 dv=0 dx=0 dy=0 dh=0 dv=0
PairPos2: "'kern' Horizontal Kerning in Arabic lookup 2 per glyph data 1" uniFB94 dx=110 dy=0 dh=110 dv=0 dx=0 dy=0 dh=0 dv=0
PairPos2: "'kern' Horizontal Kerning in Arabic lookup 2 per glyph data 1" afii57509 dx=110 dy=0 dh=110 dv=0 dx=0 dy=0 dh=0 dv=0
PairPos2: "'kern' Horizontal Kerning in Arabic lookup 2 per glyph data 1" uniFB90 dx=110 dy=0 dh=110 dv=0 dx=0 dy=0 dh=0 dv=0
PairPos2: "'kern' Horizontal Kerning in Arabic lookup 2 per glyph data 1" uni06A9 dx=110 dy=0 dh=110 dv=0 dx=0 dy=0 dh=0 dv=0
PairPos2: "'kern' Horizontal Kerning in Arabic lookup 2 per glyph data 1" uniFEDB dx=110 dy=0 dh=110 dv=0 dx=0 dy=0 dh=0 dv=0
EndChar

StartChar: i
Encoding: 75 105 38
Width: 210
GlyphClass: 2
Flags: W
AnchorPoint: "Anchor-8" 0 0 basechar 0
AnchorPoint: "Anchor-7" 0 0 basechar 0
AnchorPoint: "Anchor-6" 105 626 basechar 0
AnchorPoint: "Anchor-5" 172 10 basechar 0
AnchorPoint: "Anchor-4" 0 0 basechar 0
LayerCount: 2
Fore
SplineSet
77.5 560.5 m 128,-1,1
 66 572 66 572 66 587 c 0,2,3
 66 603 66 603 77.5 614.5 c 128,-1,4
 89 626 89 626 104 626 c 0,5,6
 120 626 120 626 131.5 614.5 c 128,-1,7
 143 603 143 603 143 587 c 0,8,9
 143 572 143 572 131.5 560.5 c 128,-1,10
 120 549 120 549 104 549 c 0,11,0
 89 549 89 549 77.5 560.5 c 128,-1,1
79 0 m 1,12,-1
 79 430 l 1,13,-1
 131 436 l 1,14,-1
 131 0 l 1,15,-1
 79 0 l 1,12,-1
EndSplineSet
Substitution2: "Single Substitution lookup 23 subtable" dotlessi
Substitution2: "'aalt' Access All Alternates in Arabic lookup 0 subtable" dotlessi
PairPos2: "'kern' Horizontal Kerning in Arabic lookup 2 per glyph data 2" uni0671 dx=60 dy=0 dh=60 dv=0 dx=0 dy=0 dh=0 dv=0
PairPos2: "'kern' Horizontal Kerning in Arabic lookup 2 per glyph data 2" afii57410 dx=60 dy=0 dh=60 dv=0 dx=0 dy=0 dh=0 dv=0
PairPos2: "'kern' Horizontal Kerning in Arabic lookup 2 per glyph data 2" afii57411 dx=60 dy=0 dh=60 dv=0 dx=0 dy=0 dh=0 dv=0
PairPos2: "'kern' Horizontal Kerning in Arabic lookup 2 per glyph data 2" uniFE8E.short dx=60 dy=0 dh=60 dv=0 dx=0 dy=0 dh=0 dv=0
PairPos2: "'kern' Horizontal Kerning in Arabic lookup 2 per glyph data 2" afii57415.short dx=60 dy=0 dh=60 dv=0 dx=0 dy=0 dh=0 dv=0
PairPos2: "'kern' Horizontal Kerning in Arabic lookup 2 per glyph data 2" afii57415 dx=60 dy=0 dh=60 dv=0 dx=0 dy=0 dh=0 dv=0
PairPos2: "'kern' Horizontal Kerning in Arabic lookup 2 per glyph data 1" uniFEF3 dx=40 dy=0 dh=40 dv=0 dx=0 dy=0 dh=0 dv=0
PairPos2: "'kern' Horizontal Kerning in Arabic lookup 2 per glyph data 1" uniFB58 dx=40 dy=0 dh=40 dv=0 dx=0 dy=0 dh=0 dv=0
PairPos2: "'kern' Horizontal Kerning in Arabic lookup 2 per glyph data 1" afii57413 dx=40 dy=0 dh=40 dv=0 dx=0 dy=0 dh=0 dv=0
PairPos2: "'kern' Horizontal Kerning in Arabic lookup 2 per glyph data 1" uniFB94 dx=110 dy=0 dh=110 dv=0 dx=0 dy=0 dh=0 dv=0
PairPos2: "'kern' Horizontal Kerning in Arabic lookup 2 per glyph data 1" afii57509 dx=110 dy=0 dh=110 dv=0 dx=0 dy=0 dh=0 dv=0
PairPos2: "'kern' Horizontal Kerning in Arabic lookup 2 per glyph data 1" uniFB90 dx=110 dy=0 dh=110 dv=0 dx=0 dy=0 dh=0 dv=0
PairPos2: "'kern' Horizontal Kerning in Arabic lookup 2 per glyph data 1" uni06A9 dx=110 dy=0 dh=110 dv=0 dx=0 dy=0 dh=0 dv=0
PairPos2: "'kern' Horizontal Kerning in Arabic lookup 2 per glyph data 1" uniFEDB dx=110 dy=0 dh=110 dv=0 dx=0 dy=0 dh=0 dv=0
EndChar

StartChar: j
Encoding: 76 106 39
Width: 210
GlyphClass: 2
Flags: W
AnchorPoint: "Anchor-8" 0 0 basechar 0
AnchorPoint: "Anchor-7" 0 0 basechar 0
AnchorPoint: "Anchor-6" 105 626 basechar 0
AnchorPoint: "Anchor-5" 0 0 basechar 0
AnchorPoint: "Anchor-4" 0 0 basechar 0
LayerCount: 2
Fore
SplineSet
77.5 560.5 m 128,-1,1
 66 572 66 572 66 587 c 0,2,3
 66 603 66 603 77.5 614.5 c 128,-1,4
 89 626 89 626 104 626 c 0,5,6
 120 626 120 626 131.5 614.5 c 128,-1,7
 143 603 143 603 143 587 c 0,8,9
 143 572 143 572 131.5 560.5 c 128,-1,10
 120 549 120 549 104 549 c 0,11,0
 89 549 89 549 77.5 560.5 c 128,-1,1
-44 -192 m 128,-1,13
 -67 -187 -67 -187 -87 -179 c 1,14,-1
 -72 -139 l 1,15,16
 -34 -153 -34 -153 -1 -153 c 0,17,18
 43 -153 43 -153 61 -124 c 128,-1,19
 79 -95 79 -95 79 -50 c 2,20,-1
 79 430 l 1,21,-1
 131 436 l 1,22,-1
 131 -48 l 2,23,24
 131 -119 131 -119 98.5 -158 c 128,-1,25
 66 -197 66 -197 1 -197 c 0,26,12
 -21 -197 -21 -197 -44 -192 c 128,-1,13
EndSplineSet
PairPos2: "'kern' Horizontal Kerning in Arabic lookup 2 per glyph data 2" uni0671 dx=60 dy=0 dh=60 dv=0 dx=0 dy=0 dh=0 dv=0
PairPos2: "'kern' Horizontal Kerning in Arabic lookup 2 per glyph data 2" afii57410 dx=60 dy=0 dh=60 dv=0 dx=0 dy=0 dh=0 dv=0
PairPos2: "'kern' Horizontal Kerning in Arabic lookup 2 per glyph data 2" afii57411 dx=60 dy=0 dh=60 dv=0 dx=0 dy=0 dh=0 dv=0
PairPos2: "'kern' Horizontal Kerning in Arabic lookup 2 per glyph data 2" uniFE8E.short dx=60 dy=0 dh=60 dv=0 dx=0 dy=0 dh=0 dv=0
PairPos2: "'kern' Horizontal Kerning in Arabic lookup 2 per glyph data 2" afii57415.short dx=60 dy=0 dh=60 dv=0 dx=0 dy=0 dh=0 dv=0
PairPos2: "'kern' Horizontal Kerning in Arabic lookup 2 per glyph data 2" afii57415 dx=60 dy=0 dh=60 dv=0 dx=0 dy=0 dh=0 dv=0
PairPos2: "'kern' Horizontal Kerning in Arabic lookup 2 per glyph data 1" uniFEF3 dx=40 dy=0 dh=40 dv=0 dx=0 dy=0 dh=0 dv=0
PairPos2: "'kern' Horizontal Kerning in Arabic lookup 2 per glyph data 1" uniFB58 dx=40 dy=0 dh=40 dv=0 dx=0 dy=0 dh=0 dv=0
PairPos2: "'kern' Horizontal Kerning in Arabic lookup 2 per glyph data 1" afii57413 dx=40 dy=0 dh=40 dv=0 dx=0 dy=0 dh=0 dv=0
PairPos2: "'kern' Horizontal Kerning in Arabic lookup 2 per glyph data 1" uniFB94 dx=110 dy=0 dh=110 dv=0 dx=0 dy=0 dh=0 dv=0
PairPos2: "'kern' Horizontal Kerning in Arabic lookup 2 per glyph data 1" afii57509 dx=110 dy=0 dh=110 dv=0 dx=0 dy=0 dh=0 dv=0
PairPos2: "'kern' Horizontal Kerning in Arabic lookup 2 per glyph data 1" uniFB90 dx=110 dy=0 dh=110 dv=0 dx=0 dy=0 dh=0 dv=0
PairPos2: "'kern' Horizontal Kerning in Arabic lookup 2 per glyph data 1" uni06A9 dx=110 dy=0 dh=110 dv=0 dx=0 dy=0 dh=0 dv=0
PairPos2: "'kern' Horizontal Kerning in Arabic lookup 2 per glyph data 1" uniFEDB dx=110 dy=0 dh=110 dv=0 dx=0 dy=0 dh=0 dv=0
EndChar

StartChar: k
Encoding: 77 107 40
Width: 428
GlyphClass: 2
Flags: W
AnchorPoint: "Anchor-8" 132 688 basechar 0
AnchorPoint: "Anchor-7" 106 313 basechar 0
AnchorPoint: "Anchor-6" 107 688 basechar 0
AnchorPoint: "Anchor-5" 0 0 basechar 0
AnchorPoint: "Anchor-4" 234 0 basechar 0
LayerCount: 2
Fore
SplineSet
195 231 m 1,0,-1
 410 5 l 1,1,-1
 410 0 l 1,2,-1
 348 0 l 1,3,-1
 132 227 l 1,4,-1
 132 0 l 1,5,-1
 80 0 l 1,6,-1
 80 688 l 1,7,-1
 132 694 l 1,8,-1
 132 233 l 1,9,-1
 335 430 l 1,10,-1
 393 430 l 1,11,-1
 393 425 l 1,12,-1
 195 231 l 1,0,-1
EndSplineSet
PairPos2: "'kern' Horizontal Kerning in Arabic lookup 2 per glyph data 2" uni0671 dx=60 dy=0 dh=60 dv=0 dx=0 dy=0 dh=0 dv=0
PairPos2: "'kern' Horizontal Kerning in Arabic lookup 2 per glyph data 2" afii57410 dx=60 dy=0 dh=60 dv=0 dx=0 dy=0 dh=0 dv=0
PairPos2: "'kern' Horizontal Kerning in Arabic lookup 2 per glyph data 2" afii57411 dx=60 dy=0 dh=60 dv=0 dx=0 dy=0 dh=0 dv=0
PairPos2: "'kern' Horizontal Kerning in Arabic lookup 2 per glyph data 2" uniFE8E.short dx=60 dy=0 dh=60 dv=0 dx=0 dy=0 dh=0 dv=0
PairPos2: "'kern' Horizontal Kerning in Arabic lookup 2 per glyph data 2" afii57415.short dx=60 dy=0 dh=60 dv=0 dx=0 dy=0 dh=0 dv=0
PairPos2: "'kern' Horizontal Kerning in Arabic lookup 2 per glyph data 2" afii57415 dx=60 dy=0 dh=60 dv=0 dx=0 dy=0 dh=0 dv=0
PairPos2: "'kern' Horizontal Kerning in Arabic lookup 2 per glyph data 1" uniFEF3 dx=40 dy=0 dh=40 dv=0 dx=0 dy=0 dh=0 dv=0
PairPos2: "'kern' Horizontal Kerning in Arabic lookup 2 per glyph data 1" uniFB58 dx=40 dy=0 dh=40 dv=0 dx=0 dy=0 dh=0 dv=0
PairPos2: "'kern' Horizontal Kerning in Arabic lookup 2 per glyph data 1" afii57413 dx=40 dy=0 dh=40 dv=0 dx=0 dy=0 dh=0 dv=0
PairPos2: "'kern' Horizontal Kerning in Arabic lookup 2 per glyph data 1" uniFB94 dx=110 dy=0 dh=110 dv=0 dx=0 dy=0 dh=0 dv=0
PairPos2: "'kern' Horizontal Kerning in Arabic lookup 2 per glyph data 1" afii57509 dx=110 dy=0 dh=110 dv=0 dx=0 dy=0 dh=0 dv=0
PairPos2: "'kern' Horizontal Kerning in Arabic lookup 2 per glyph data 1" uniFB90 dx=110 dy=0 dh=110 dv=0 dx=0 dy=0 dh=0 dv=0
PairPos2: "'kern' Horizontal Kerning in Arabic lookup 2 per glyph data 1" uni06A9 dx=110 dy=0 dh=110 dv=0 dx=0 dy=0 dh=0 dv=0
PairPos2: "'kern' Horizontal Kerning in Arabic lookup 2 per glyph data 1" uniFEDB dx=110 dy=0 dh=110 dv=0 dx=0 dy=0 dh=0 dv=0
EndChar

StartChar: l
Encoding: 78 108 41
Width: 210
GlyphClass: 2
Flags: W
AnchorPoint: "Anchor-8" 131 688 basechar 0
AnchorPoint: "Anchor-7" 105 313 basechar 0
AnchorPoint: "Anchor-6" 105 688 basechar 0
AnchorPoint: "Anchor-5" 0 0 basechar 0
AnchorPoint: "Anchor-4" 105 0 basechar 0
LayerCount: 2
Fore
SplineSet
79 0 m 1,0,-1
 79 688 l 1,1,-1
 131 694 l 1,2,-1
 131 0 l 1,3,-1
 79 0 l 1,0,-1
EndSplineSet
PairPos2: "'kern' Horizontal Kerning in Arabic lookup 2 per glyph data 2" uni0671 dx=60 dy=0 dh=60 dv=0 dx=0 dy=0 dh=0 dv=0
PairPos2: "'kern' Horizontal Kerning in Arabic lookup 2 per glyph data 2" afii57410 dx=60 dy=0 dh=60 dv=0 dx=0 dy=0 dh=0 dv=0
PairPos2: "'kern' Horizontal Kerning in Arabic lookup 2 per glyph data 2" afii57411 dx=60 dy=0 dh=60 dv=0 dx=0 dy=0 dh=0 dv=0
PairPos2: "'kern' Horizontal Kerning in Arabic lookup 2 per glyph data 2" uniFE8E.short dx=60 dy=0 dh=60 dv=0 dx=0 dy=0 dh=0 dv=0
PairPos2: "'kern' Horizontal Kerning in Arabic lookup 2 per glyph data 2" afii57415.short dx=60 dy=0 dh=60 dv=0 dx=0 dy=0 dh=0 dv=0
PairPos2: "'kern' Horizontal Kerning in Arabic lookup 2 per glyph data 2" afii57415 dx=60 dy=0 dh=60 dv=0 dx=0 dy=0 dh=0 dv=0
PairPos2: "'kern' Horizontal Kerning in Arabic lookup 2 per glyph data 1" uniFEF3 dx=40 dy=0 dh=40 dv=0 dx=0 dy=0 dh=0 dv=0
PairPos2: "'kern' Horizontal Kerning in Arabic lookup 2 per glyph data 1" uniFB58 dx=40 dy=0 dh=40 dv=0 dx=0 dy=0 dh=0 dv=0
PairPos2: "'kern' Horizontal Kerning in Arabic lookup 2 per glyph data 1" afii57413 dx=40 dy=0 dh=40 dv=0 dx=0 dy=0 dh=0 dv=0
PairPos2: "'kern' Horizontal Kerning in Arabic lookup 2 per glyph data 1" uniFB94 dx=110 dy=0 dh=110 dv=0 dx=0 dy=0 dh=0 dv=0
PairPos2: "'kern' Horizontal Kerning in Arabic lookup 2 per glyph data 1" afii57509 dx=110 dy=0 dh=110 dv=0 dx=0 dy=0 dh=0 dv=0
PairPos2: "'kern' Horizontal Kerning in Arabic lookup 2 per glyph data 1" uniFB90 dx=110 dy=0 dh=110 dv=0 dx=0 dy=0 dh=0 dv=0
PairPos2: "'kern' Horizontal Kerning in Arabic lookup 2 per glyph data 1" uni06A9 dx=110 dy=0 dh=110 dv=0 dx=0 dy=0 dh=0 dv=0
PairPos2: "'kern' Horizontal Kerning in Arabic lookup 2 per glyph data 1" uniFEDB dx=110 dy=0 dh=110 dv=0 dx=0 dy=0 dh=0 dv=0
EndChar

StartChar: m
Encoding: 79 109 42
Width: 759
GlyphClass: 2
Flags: W
AnchorPoint: "Anchor-8" 0 0 basechar 0
AnchorPoint: "Anchor-7" 0 0 basechar 0
AnchorPoint: "Anchor-6" 386 430 basechar 0
AnchorPoint: "Anchor-5" 0 0 basechar 0
AnchorPoint: "Anchor-4" 381 0 basechar 0
LayerCount: 2
Fore
SplineSet
648.5 411 m 128,-1,1
 685 382 685 382 685 310 c 2,2,-1
 685 0 l 1,3,-1
 633 0 l 1,4,-1
 633 289 l 2,5,6
 633 346 633 346 613.5 370.5 c 128,-1,7
 594 395 594 395 546 395 c 0,8,9
 487 395 487 395 403 353 c 1,10,11
 408 333 408 333 408 310 c 2,12,-1
 408 0 l 1,13,-1
 356 0 l 1,14,-1
 356 289 l 2,15,16
 356 327 356 327 347.5 350 c 128,-1,17
 339 373 339 373 320.5 384 c 128,-1,18
 302 395 302 395 269 395 c 0,19,20
 237 395 237 395 200.5 383.5 c 128,-1,21
 164 372 164 372 131 355 c 1,22,-1
 131 0 l 1,23,-1
 79 0 l 1,24,-1
 79 430 l 1,25,-1
 131 436 l 1,26,-1
 131 395 l 1,27,28
 215 440 215 440 282 440 c 0,29,30
 316 440 316 440 344 428.5 c 128,-1,31
 372 417 372 417 389 389 c 1,32,33
 428 410 428 410 473 425 c 128,-1,34
 518 440 518 440 559 440 c 0,35,0
 612 440 612 440 648.5 411 c 128,-1,1
EndSplineSet
PairPos2: "'kern' Horizontal Kerning in Arabic lookup 2 per glyph data 2" uni0671 dx=60 dy=0 dh=60 dv=0 dx=0 dy=0 dh=0 dv=0
PairPos2: "'kern' Horizontal Kerning in Arabic lookup 2 per glyph data 2" afii57410 dx=60 dy=0 dh=60 dv=0 dx=0 dy=0 dh=0 dv=0
PairPos2: "'kern' Horizontal Kerning in Arabic lookup 2 per glyph data 2" afii57411 dx=60 dy=0 dh=60 dv=0 dx=0 dy=0 dh=0 dv=0
PairPos2: "'kern' Horizontal Kerning in Arabic lookup 2 per glyph data 2" uniFE8E.short dx=60 dy=0 dh=60 dv=0 dx=0 dy=0 dh=0 dv=0
PairPos2: "'kern' Horizontal Kerning in Arabic lookup 2 per glyph data 2" afii57415.short dx=60 dy=0 dh=60 dv=0 dx=0 dy=0 dh=0 dv=0
PairPos2: "'kern' Horizontal Kerning in Arabic lookup 2 per glyph data 2" afii57415 dx=60 dy=0 dh=60 dv=0 dx=0 dy=0 dh=0 dv=0
PairPos2: "'kern' Horizontal Kerning in Arabic lookup 2 per glyph data 1" uniFEF3 dx=40 dy=0 dh=40 dv=0 dx=0 dy=0 dh=0 dv=0
PairPos2: "'kern' Horizontal Kerning in Arabic lookup 2 per glyph data 1" uniFB58 dx=40 dy=0 dh=40 dv=0 dx=0 dy=0 dh=0 dv=0
PairPos2: "'kern' Horizontal Kerning in Arabic lookup 2 per glyph data 1" afii57413 dx=40 dy=0 dh=40 dv=0 dx=0 dy=0 dh=0 dv=0
PairPos2: "'kern' Horizontal Kerning in Arabic lookup 2 per glyph data 1" uniFB94 dx=110 dy=0 dh=110 dv=0 dx=0 dy=0 dh=0 dv=0
PairPos2: "'kern' Horizontal Kerning in Arabic lookup 2 per glyph data 1" afii57509 dx=110 dy=0 dh=110 dv=0 dx=0 dy=0 dh=0 dv=0
PairPos2: "'kern' Horizontal Kerning in Arabic lookup 2 per glyph data 1" uniFB90 dx=110 dy=0 dh=110 dv=0 dx=0 dy=0 dh=0 dv=0
PairPos2: "'kern' Horizontal Kerning in Arabic lookup 2 per glyph data 1" uni06A9 dx=110 dy=0 dh=110 dv=0 dx=0 dy=0 dh=0 dv=0
PairPos2: "'kern' Horizontal Kerning in Arabic lookup 2 per glyph data 1" uniFEDB dx=110 dy=0 dh=110 dv=0 dx=0 dy=0 dh=0 dv=0
EndChar

StartChar: n
Encoding: 80 110 43
Width: 511
GlyphClass: 2
Flags: W
AnchorPoint: "Anchor-8" 0 0 basechar 0
AnchorPoint: "Anchor-7" 0 0 basechar 0
AnchorPoint: "Anchor-6" 262 430 basechar 0
AnchorPoint: "Anchor-5" 0 0 basechar 0
AnchorPoint: "Anchor-4" 256 0 basechar 0
LayerCount: 2
Fore
SplineSet
398 409.5 m 128,-1,1
 437 379 437 379 437 303 c 2,2,-1
 437 0 l 1,3,-1
 385 0 l 1,4,-1
 385 282 l 2,5,6
 385 322 385 322 375.5 346.5 c 128,-1,7
 366 371 366 371 344.5 383 c 128,-1,8
 323 395 323 395 285 395 c 0,9,10
 249 395 249 395 208.5 383.5 c 128,-1,11
 168 372 168 372 131 355 c 1,12,-1
 131 0 l 1,13,-1
 79 0 l 1,14,-1
 79 430 l 1,15,-1
 131 436 l 1,16,-1
 131 394 l 1,17,18
 169 413 169 413 212.5 426.5 c 128,-1,19
 256 440 256 440 298 440 c 0,20,0
 359 440 359 440 398 409.5 c 128,-1,1
EndSplineSet
PairPos2: "'kern' Horizontal Kerning in Arabic lookup 2 per glyph data 2" uni0671 dx=60 dy=0 dh=60 dv=0 dx=0 dy=0 dh=0 dv=0
PairPos2: "'kern' Horizontal Kerning in Arabic lookup 2 per glyph data 2" afii57410 dx=60 dy=0 dh=60 dv=0 dx=0 dy=0 dh=0 dv=0
PairPos2: "'kern' Horizontal Kerning in Arabic lookup 2 per glyph data 2" afii57411 dx=60 dy=0 dh=60 dv=0 dx=0 dy=0 dh=0 dv=0
PairPos2: "'kern' Horizontal Kerning in Arabic lookup 2 per glyph data 2" uniFE8E.short dx=60 dy=0 dh=60 dv=0 dx=0 dy=0 dh=0 dv=0
PairPos2: "'kern' Horizontal Kerning in Arabic lookup 2 per glyph data 2" afii57415.short dx=60 dy=0 dh=60 dv=0 dx=0 dy=0 dh=0 dv=0
PairPos2: "'kern' Horizontal Kerning in Arabic lookup 2 per glyph data 2" afii57415 dx=60 dy=0 dh=60 dv=0 dx=0 dy=0 dh=0 dv=0
PairPos2: "'kern' Horizontal Kerning in Arabic lookup 2 per glyph data 1" uniFEF3 dx=40 dy=0 dh=40 dv=0 dx=0 dy=0 dh=0 dv=0
PairPos2: "'kern' Horizontal Kerning in Arabic lookup 2 per glyph data 1" uniFB58 dx=40 dy=0 dh=40 dv=0 dx=0 dy=0 dh=0 dv=0
PairPos2: "'kern' Horizontal Kerning in Arabic lookup 2 per glyph data 1" afii57413 dx=40 dy=0 dh=40 dv=0 dx=0 dy=0 dh=0 dv=0
PairPos2: "'kern' Horizontal Kerning in Arabic lookup 2 per glyph data 1" uniFB94 dx=110 dy=0 dh=110 dv=0 dx=0 dy=0 dh=0 dv=0
PairPos2: "'kern' Horizontal Kerning in Arabic lookup 2 per glyph data 1" afii57509 dx=110 dy=0 dh=110 dv=0 dx=0 dy=0 dh=0 dv=0
PairPos2: "'kern' Horizontal Kerning in Arabic lookup 2 per glyph data 1" uniFB90 dx=110 dy=0 dh=110 dv=0 dx=0 dy=0 dh=0 dv=0
PairPos2: "'kern' Horizontal Kerning in Arabic lookup 2 per glyph data 1" uni06A9 dx=110 dy=0 dh=110 dv=0 dx=0 dy=0 dh=0 dv=0
PairPos2: "'kern' Horizontal Kerning in Arabic lookup 2 per glyph data 1" uniFEDB dx=110 dy=0 dh=110 dv=0 dx=0 dy=0 dh=0 dv=0
EndChar

StartChar: o
Encoding: 81 111 44
Width: 497
GlyphClass: 2
Flags: W
AnchorPoint: "Anchor-8" 477 430 basechar 0
AnchorPoint: "Anchor-7" 249 215 basechar 0
AnchorPoint: "Anchor-6" 249 430 basechar 0
AnchorPoint: "Anchor-5" 447 10 basechar 0
AnchorPoint: "Anchor-4" 249 0 basechar 0
LayerCount: 2
Fore
SplineSet
132 19 m 128,-1,1
 87 49 87 49 64 100.5 c 128,-1,2
 41 152 41 152 41 216 c 0,3,4
 41 293 41 293 70 343.5 c 128,-1,5
 99 394 99 394 147 417 c 128,-1,6
 195 440 195 440 255 440 c 0,7,8
 320 440 320 440 365.5 411 c 128,-1,9
 411 382 411 382 433.5 331 c 128,-1,10
 456 280 456 280 456 215 c 0,11,12
 456 137 456 137 428 86.5 c 128,-1,13
 400 36 400 36 352 12.5 c 128,-1,14
 304 -11 304 -11 242 -11 c 0,15,0
 177 -11 177 -11 132 19 c 128,-1,1
363 82.5 m 128,-1,17
 401 131 401 131 401 216 c 0,18,19
 401 298 401 298 364 347 c 128,-1,20
 327 396 327 396 251 396 c 0,21,22
 172 396 172 396 134 347.5 c 128,-1,23
 96 299 96 299 96 216 c 256,24,25
 96 133 96 133 133.5 83.5 c 128,-1,26
 171 34 171 34 248 34 c 256,27,16
 325 34 325 34 363 82.5 c 128,-1,17
EndSplineSet
Substitution2: "Single Substitution lookup 23 subtable" ordmasculine
Substitution2: "'aalt' Access All Alternates in Arabic lookup 0 subtable" ordmasculine
PairPos2: "'kern' Horizontal Kerning in Arabic lookup 2 per glyph data 2" uni0671 dx=60 dy=0 dh=60 dv=0 dx=0 dy=0 dh=0 dv=0
PairPos2: "'kern' Horizontal Kerning in Arabic lookup 2 per glyph data 2" afii57410 dx=60 dy=0 dh=60 dv=0 dx=0 dy=0 dh=0 dv=0
PairPos2: "'kern' Horizontal Kerning in Arabic lookup 2 per glyph data 2" afii57411 dx=60 dy=0 dh=60 dv=0 dx=0 dy=0 dh=0 dv=0
PairPos2: "'kern' Horizontal Kerning in Arabic lookup 2 per glyph data 2" uniFE8E.short dx=60 dy=0 dh=60 dv=0 dx=0 dy=0 dh=0 dv=0
PairPos2: "'kern' Horizontal Kerning in Arabic lookup 2 per glyph data 2" afii57415.short dx=60 dy=0 dh=60 dv=0 dx=0 dy=0 dh=0 dv=0
PairPos2: "'kern' Horizontal Kerning in Arabic lookup 2 per glyph data 2" afii57415 dx=60 dy=0 dh=60 dv=0 dx=0 dy=0 dh=0 dv=0
PairPos2: "'kern' Horizontal Kerning in Arabic lookup 2 per glyph data 1" uniFEF3 dx=40 dy=0 dh=40 dv=0 dx=0 dy=0 dh=0 dv=0
PairPos2: "'kern' Horizontal Kerning in Arabic lookup 2 per glyph data 1" uniFB58 dx=40 dy=0 dh=40 dv=0 dx=0 dy=0 dh=0 dv=0
PairPos2: "'kern' Horizontal Kerning in Arabic lookup 2 per glyph data 1" afii57413 dx=40 dy=0 dh=40 dv=0 dx=0 dy=0 dh=0 dv=0
PairPos2: "'kern' Horizontal Kerning in Arabic lookup 2 per glyph data 1" uniFB94 dx=110 dy=0 dh=110 dv=0 dx=0 dy=0 dh=0 dv=0
PairPos2: "'kern' Horizontal Kerning in Arabic lookup 2 per glyph data 1" afii57509 dx=110 dy=0 dh=110 dv=0 dx=0 dy=0 dh=0 dv=0
PairPos2: "'kern' Horizontal Kerning in Arabic lookup 2 per glyph data 1" uniFB90 dx=110 dy=0 dh=110 dv=0 dx=0 dy=0 dh=0 dv=0
PairPos2: "'kern' Horizontal Kerning in Arabic lookup 2 per glyph data 1" uni06A9 dx=110 dy=0 dh=110 dv=0 dx=0 dy=0 dh=0 dv=0
PairPos2: "'kern' Horizontal Kerning in Arabic lookup 2 per glyph data 1" uniFEDB dx=110 dy=0 dh=110 dv=0 dx=0 dy=0 dh=0 dv=0
EndChar

StartChar: p
Encoding: 82 112 45
Width: 498
GlyphClass: 2
Flags: W
AnchorPoint: "Anchor-8" 0 0 basechar 0
AnchorPoint: "Anchor-7" 0 0 basechar 0
AnchorPoint: "Anchor-6" 249 430 basechar 0
AnchorPoint: "Anchor-5" 0 0 basechar 0
AnchorPoint: "Anchor-4" 105 -186 basechar 0
LayerCount: 2
Fore
SplineSet
414 381 m 128,-1,1
 457 322 457 322 457 226 c 0,2,3
 457 147 457 147 426 93.5 c 128,-1,4
 395 40 395 40 343.5 14.5 c 128,-1,5
 292 -11 292 -11 231 -11 c 0,6,7
 180 -11 180 -11 131 6 c 1,8,-1
 131 -186 l 1,9,-1
 79 -186 l 1,10,-1
 79 430 l 1,11,-1
 131 436 l 1,12,-1
 131 395 l 1,13,14
 168 416 168 416 207.5 428 c 128,-1,15
 247 440 247 440 282 440 c 0,16,0
 371 440 371 440 414 381 c 128,-1,1
320 55 m 128,-1,18
 359 77 359 77 380 120.5 c 128,-1,19
 401 164 401 164 401 226 c 0,20,21
 401 307 401 307 369.5 351 c 128,-1,22
 338 395 338 395 272 395 c 0,23,24
 202 395 202 395 131 353 c 1,25,-1
 131 49 l 1,26,27
 176 33 176 33 228 33 c 0,28,17
 281 33 281 33 320 55 c 128,-1,18
EndSplineSet
PairPos2: "'kern' Horizontal Kerning in Arabic lookup 2 per glyph data 2" uni0671 dx=60 dy=0 dh=60 dv=0 dx=0 dy=0 dh=0 dv=0
PairPos2: "'kern' Horizontal Kerning in Arabic lookup 2 per glyph data 2" afii57410 dx=60 dy=0 dh=60 dv=0 dx=0 dy=0 dh=0 dv=0
PairPos2: "'kern' Horizontal Kerning in Arabic lookup 2 per glyph data 2" afii57411 dx=60 dy=0 dh=60 dv=0 dx=0 dy=0 dh=0 dv=0
PairPos2: "'kern' Horizontal Kerning in Arabic lookup 2 per glyph data 2" uniFE8E.short dx=60 dy=0 dh=60 dv=0 dx=0 dy=0 dh=0 dv=0
PairPos2: "'kern' Horizontal Kerning in Arabic lookup 2 per glyph data 2" afii57415.short dx=60 dy=0 dh=60 dv=0 dx=0 dy=0 dh=0 dv=0
PairPos2: "'kern' Horizontal Kerning in Arabic lookup 2 per glyph data 2" afii57415 dx=60 dy=0 dh=60 dv=0 dx=0 dy=0 dh=0 dv=0
PairPos2: "'kern' Horizontal Kerning in Arabic lookup 2 per glyph data 1" uniFEF3 dx=40 dy=0 dh=40 dv=0 dx=0 dy=0 dh=0 dv=0
PairPos2: "'kern' Horizontal Kerning in Arabic lookup 2 per glyph data 1" uniFB58 dx=40 dy=0 dh=40 dv=0 dx=0 dy=0 dh=0 dv=0
PairPos2: "'kern' Horizontal Kerning in Arabic lookup 2 per glyph data 1" afii57413 dx=40 dy=0 dh=40 dv=0 dx=0 dy=0 dh=0 dv=0
PairPos2: "'kern' Horizontal Kerning in Arabic lookup 2 per glyph data 1" uniFB94 dx=110 dy=0 dh=110 dv=0 dx=0 dy=0 dh=0 dv=0
PairPos2: "'kern' Horizontal Kerning in Arabic lookup 2 per glyph data 1" afii57509 dx=110 dy=0 dh=110 dv=0 dx=0 dy=0 dh=0 dv=0
PairPos2: "'kern' Horizontal Kerning in Arabic lookup 2 per glyph data 1" uniFB90 dx=110 dy=0 dh=110 dv=0 dx=0 dy=0 dh=0 dv=0
PairPos2: "'kern' Horizontal Kerning in Arabic lookup 2 per glyph data 1" uni06A9 dx=110 dy=0 dh=110 dv=0 dx=0 dy=0 dh=0 dv=0
PairPos2: "'kern' Horizontal Kerning in Arabic lookup 2 per glyph data 1" uniFEDB dx=110 dy=0 dh=110 dv=0 dx=0 dy=0 dh=0 dv=0
EndChar

StartChar: q
Encoding: 83 113 46
Width: 498
GlyphClass: 2
Flags: W
AnchorPoint: "Anchor-8" 0 0 basechar 0
AnchorPoint: "Anchor-7" 0 0 basechar 0
AnchorPoint: "Anchor-6" 233 430 basechar 0
AnchorPoint: "Anchor-5" 0 0 basechar 0
AnchorPoint: "Anchor-4" 393 -186 basechar 0
LayerCount: 2
Fore
SplineSet
343.5 433 m 128,-1,1
 379 426 379 426 419 412 c 1,2,-1
 419 -186 l 1,3,-1
 367 -186 l 1,4,-1
 367 32 l 1,5,6
 331 11 331 11 292.5 0 c 128,-1,7
 254 -11 254 -11 216 -11 c 0,8,9
 157 -11 157 -11 118 17 c 128,-1,10
 79 45 79 45 60 92.5 c 128,-1,11
 41 140 41 140 41 199 c 0,12,13
 41 275 41 275 71 329.5 c 128,-1,14
 101 384 101 384 153.5 412 c 128,-1,15
 206 440 206 440 272 440 c 0,16,0
 308 440 308 440 343.5 433 c 128,-1,1
297 46 m 128,-1,18
 331 57 331 57 367 76 c 1,19,-1
 367 383 l 1,20,21
 320 396 320 396 274 396 c 0,22,23
 220 396 220 396 180 374 c 128,-1,24
 140 352 140 352 118 308 c 128,-1,25
 96 264 96 264 96 199 c 0,26,27
 96 125 96 125 128 80 c 128,-1,28
 160 35 160 35 226 35 c 0,29,17
 263 35 263 35 297 46 c 128,-1,18
EndSplineSet
PairPos2: "'kern' Horizontal Kerning in Arabic lookup 2 per glyph data 2" uni0671 dx=60 dy=0 dh=60 dv=0 dx=0 dy=0 dh=0 dv=0
PairPos2: "'kern' Horizontal Kerning in Arabic lookup 2 per glyph data 2" afii57410 dx=60 dy=0 dh=60 dv=0 dx=0 dy=0 dh=0 dv=0
PairPos2: "'kern' Horizontal Kerning in Arabic lookup 2 per glyph data 2" afii57411 dx=60 dy=0 dh=60 dv=0 dx=0 dy=0 dh=0 dv=0
PairPos2: "'kern' Horizontal Kerning in Arabic lookup 2 per glyph data 2" uniFE8E.short dx=60 dy=0 dh=60 dv=0 dx=0 dy=0 dh=0 dv=0
PairPos2: "'kern' Horizontal Kerning in Arabic lookup 2 per glyph data 2" afii57415.short dx=60 dy=0 dh=60 dv=0 dx=0 dy=0 dh=0 dv=0
PairPos2: "'kern' Horizontal Kerning in Arabic lookup 2 per glyph data 2" afii57415 dx=60 dy=0 dh=60 dv=0 dx=0 dy=0 dh=0 dv=0
PairPos2: "'kern' Horizontal Kerning in Arabic lookup 2 per glyph data 1" uniFEF3 dx=40 dy=0 dh=40 dv=0 dx=0 dy=0 dh=0 dv=0
PairPos2: "'kern' Horizontal Kerning in Arabic lookup 2 per glyph data 1" uniFB58 dx=40 dy=0 dh=40 dv=0 dx=0 dy=0 dh=0 dv=0
PairPos2: "'kern' Horizontal Kerning in Arabic lookup 2 per glyph data 1" afii57413 dx=40 dy=0 dh=40 dv=0 dx=0 dy=0 dh=0 dv=0
PairPos2: "'kern' Horizontal Kerning in Arabic lookup 2 per glyph data 1" uniFB94 dx=110 dy=0 dh=110 dv=0 dx=0 dy=0 dh=0 dv=0
PairPos2: "'kern' Horizontal Kerning in Arabic lookup 2 per glyph data 1" afii57509 dx=110 dy=0 dh=110 dv=0 dx=0 dy=0 dh=0 dv=0
PairPos2: "'kern' Horizontal Kerning in Arabic lookup 2 per glyph data 1" uniFB90 dx=110 dy=0 dh=110 dv=0 dx=0 dy=0 dh=0 dv=0
PairPos2: "'kern' Horizontal Kerning in Arabic lookup 2 per glyph data 1" uni06A9 dx=110 dy=0 dh=110 dv=0 dx=0 dy=0 dh=0 dv=0
PairPos2: "'kern' Horizontal Kerning in Arabic lookup 2 per glyph data 1" uniFEDB dx=110 dy=0 dh=110 dv=0 dx=0 dy=0 dh=0 dv=0
EndChar

StartChar: r
Encoding: 84 114 47
Width: 335
GlyphClass: 2
Flags: W
AnchorPoint: "Anchor-8" 0 0 basechar 0
AnchorPoint: "Anchor-7" 0 0 basechar 0
AnchorPoint: "Anchor-6" 192 430 basechar 0
AnchorPoint: "Anchor-5" 0 0 basechar 0
AnchorPoint: "Anchor-4" 105 0 basechar 0
LayerCount: 2
Fore
SplineSet
284 438.5 m 128,-1,1
 297 437 297 437 313 433 c 1,2,-1
 300 380 l 1,3,4
 271 389 271 389 249 389 c 0,5,6
 214 389 214 389 183.5 368.5 c 128,-1,7
 153 348 153 348 131 301 c 1,8,-1
 131 0 l 1,9,-1
 79 0 l 1,10,-1
 79 430 l 1,11,-1
 131 436 l 1,12,-1
 131 365 l 1,13,14
 156 403 156 403 188.5 421.5 c 128,-1,15
 221 440 221 440 257 440 c 0,16,0
 271 440 271 440 284 438.5 c 128,-1,1
EndSplineSet
PairPos2: "'kern' Horizontal Kerning in Arabic lookup 2 per glyph data 2" uni0671 dx=60 dy=0 dh=60 dv=0 dx=0 dy=0 dh=0 dv=0
PairPos2: "'kern' Horizontal Kerning in Arabic lookup 2 per glyph data 2" afii57410 dx=60 dy=0 dh=60 dv=0 dx=0 dy=0 dh=0 dv=0
PairPos2: "'kern' Horizontal Kerning in Arabic lookup 2 per glyph data 2" afii57411 dx=60 dy=0 dh=60 dv=0 dx=0 dy=0 dh=0 dv=0
PairPos2: "'kern' Horizontal Kerning in Arabic lookup 2 per glyph data 2" uniFE8E.short dx=60 dy=0 dh=60 dv=0 dx=0 dy=0 dh=0 dv=0
PairPos2: "'kern' Horizontal Kerning in Arabic lookup 2 per glyph data 2" afii57415.short dx=60 dy=0 dh=60 dv=0 dx=0 dy=0 dh=0 dv=0
PairPos2: "'kern' Horizontal Kerning in Arabic lookup 2 per glyph data 2" afii57415 dx=60 dy=0 dh=60 dv=0 dx=0 dy=0 dh=0 dv=0
PairPos2: "'kern' Horizontal Kerning in Arabic lookup 2 per glyph data 1" uniFEF3 dx=40 dy=0 dh=40 dv=0 dx=0 dy=0 dh=0 dv=0
PairPos2: "'kern' Horizontal Kerning in Arabic lookup 2 per glyph data 1" uniFB58 dx=40 dy=0 dh=40 dv=0 dx=0 dy=0 dh=0 dv=0
PairPos2: "'kern' Horizontal Kerning in Arabic lookup 2 per glyph data 1" afii57413 dx=40 dy=0 dh=40 dv=0 dx=0 dy=0 dh=0 dv=0
PairPos2: "'kern' Horizontal Kerning in Arabic lookup 2 per glyph data 1" uniFB94 dx=110 dy=0 dh=110 dv=0 dx=0 dy=0 dh=0 dv=0
PairPos2: "'kern' Horizontal Kerning in Arabic lookup 2 per glyph data 1" afii57509 dx=110 dy=0 dh=110 dv=0 dx=0 dy=0 dh=0 dv=0
PairPos2: "'kern' Horizontal Kerning in Arabic lookup 2 per glyph data 1" uniFB90 dx=110 dy=0 dh=110 dv=0 dx=0 dy=0 dh=0 dv=0
PairPos2: "'kern' Horizontal Kerning in Arabic lookup 2 per glyph data 1" uni06A9 dx=110 dy=0 dh=110 dv=0 dx=0 dy=0 dh=0 dv=0
PairPos2: "'kern' Horizontal Kerning in Arabic lookup 2 per glyph data 1" uniFEDB dx=110 dy=0 dh=110 dv=0 dx=0 dy=0 dh=0 dv=0
EndChar

StartChar: s
Encoding: 85 115 48
Width: 409
GlyphClass: 2
Flags: W
AnchorPoint: "Anchor-8" 0 0 basechar 0
AnchorPoint: "Anchor-7" 0 0 basechar 0
AnchorPoint: "Anchor-6" 200 430 basechar 0
AnchorPoint: "Anchor-5" 0 0 basechar 0
AnchorPoint: "Anchor-4" 198 0 basechar 0
LayerCount: 2
Fore
SplineSet
109 3 m 128,-1,1
 66 17 66 17 26 46 c 1,2,-1
 51 85 l 1,3,4
 122 33 122 33 204 33 c 0,5,6
 256 33 256 33 287.5 54 c 128,-1,7
 319 75 319 75 319 112 c 0,8,9
 319 136 319 136 307.5 152.5 c 128,-1,10
 296 169 296 169 272.5 180.5 c 128,-1,11
 249 192 249 192 208 203 c 2,12,-1
 175 212 l 2,13,14
 111 228 111 228 79 254 c 128,-1,15
 47 280 47 280 47 325 c 0,16,17
 47 360 47 360 66.5 386 c 128,-1,18
 86 412 86 412 120.5 426 c 128,-1,19
 155 440 155 440 199 440 c 0,20,21
 241 440 241 440 277.5 430.5 c 128,-1,22
 314 421 314 421 358 397 c 1,23,-1
 335 358 l 1,24,25
 296 379 296 379 264.5 387.5 c 128,-1,26
 233 396 233 396 200 396 c 0,27,28
 154 396 154 396 127.5 378.5 c 128,-1,29
 101 361 101 361 101 328 c 0,30,31
 101 308 101 308 110.5 295.5 c 128,-1,32
 120 283 120 283 139 274.5 c 128,-1,33
 158 266 158 266 192 257 c 2,34,-1
 225 248 l 2,35,36
 278 234 278 234 310 217.5 c 128,-1,37
 342 201 342 201 357.5 176.5 c 128,-1,38
 373 152 373 152 373 116 c 0,39,40
 373 79 373 79 353 50 c 128,-1,41
 333 21 333 21 295.5 5 c 128,-1,42
 258 -11 258 -11 207 -11 c 0,43,0
 152 -11 152 -11 109 3 c 128,-1,1
EndSplineSet
PairPos2: "'kern' Horizontal Kerning in Arabic lookup 2 per glyph data 2" uni0671 dx=60 dy=0 dh=60 dv=0 dx=0 dy=0 dh=0 dv=0
PairPos2: "'kern' Horizontal Kerning in Arabic lookup 2 per glyph data 2" afii57410 dx=60 dy=0 dh=60 dv=0 dx=0 dy=0 dh=0 dv=0
PairPos2: "'kern' Horizontal Kerning in Arabic lookup 2 per glyph data 2" afii57411 dx=60 dy=0 dh=60 dv=0 dx=0 dy=0 dh=0 dv=0
PairPos2: "'kern' Horizontal Kerning in Arabic lookup 2 per glyph data 2" uniFE8E.short dx=60 dy=0 dh=60 dv=0 dx=0 dy=0 dh=0 dv=0
PairPos2: "'kern' Horizontal Kerning in Arabic lookup 2 per glyph data 2" afii57415.short dx=60 dy=0 dh=60 dv=0 dx=0 dy=0 dh=0 dv=0
PairPos2: "'kern' Horizontal Kerning in Arabic lookup 2 per glyph data 2" afii57415 dx=60 dy=0 dh=60 dv=0 dx=0 dy=0 dh=0 dv=0
PairPos2: "'kern' Horizontal Kerning in Arabic lookup 2 per glyph data 1" uniFEF3 dx=40 dy=0 dh=40 dv=0 dx=0 dy=0 dh=0 dv=0
PairPos2: "'kern' Horizontal Kerning in Arabic lookup 2 per glyph data 1" uniFB58 dx=40 dy=0 dh=40 dv=0 dx=0 dy=0 dh=0 dv=0
PairPos2: "'kern' Horizontal Kerning in Arabic lookup 2 per glyph data 1" afii57413 dx=40 dy=0 dh=40 dv=0 dx=0 dy=0 dh=0 dv=0
PairPos2: "'kern' Horizontal Kerning in Arabic lookup 2 per glyph data 1" uniFB94 dx=110 dy=0 dh=110 dv=0 dx=0 dy=0 dh=0 dv=0
PairPos2: "'kern' Horizontal Kerning in Arabic lookup 2 per glyph data 1" afii57509 dx=110 dy=0 dh=110 dv=0 dx=0 dy=0 dh=0 dv=0
PairPos2: "'kern' Horizontal Kerning in Arabic lookup 2 per glyph data 1" uniFB90 dx=110 dy=0 dh=110 dv=0 dx=0 dy=0 dh=0 dv=0
PairPos2: "'kern' Horizontal Kerning in Arabic lookup 2 per glyph data 1" uni06A9 dx=110 dy=0 dh=110 dv=0 dx=0 dy=0 dh=0 dv=0
PairPos2: "'kern' Horizontal Kerning in Arabic lookup 2 per glyph data 1" uniFEDB dx=110 dy=0 dh=110 dv=0 dx=0 dy=0 dh=0 dv=0
EndChar

StartChar: t
Encoding: 86 116 49
Width: 352
GlyphClass: 2
Flags: W
AnchorPoint: "Anchor-8" 180 639 basechar 0
AnchorPoint: "Anchor-7" 148 262 basechar 0
AnchorPoint: "Anchor-6" 138 535 basechar 0
AnchorPoint: "Anchor-5" 0 0 basechar 0
AnchorPoint: "Anchor-4" 219 0 basechar 0
LayerCount: 2
Fore
SplineSet
333 13 m 1,0,1
 285 -11 285 -11 237 -11 c 0,2,3
 175 -11 175 -11 142.5 26.5 c 128,-1,4
 110 64 110 64 110 131 c 2,5,-1
 110 388 l 1,6,-1
 18 388 l 1,7,-1
 18 430 l 1,8,-1
 110 430 l 1,9,-1
 110 531 l 1,10,-1
 162 539 l 1,11,-1
 162 430 l 1,12,-1
 321 430 l 1,13,-1
 315 388 l 1,14,-1
 162 388 l 1,15,-1
 162 139 l 2,16,17
 162 87 162 87 181 60.5 c 128,-1,18
 200 34 200 34 241 34 c 0,19,20
 277 34 277 34 318 52 c 1,21,-1
 333 13 l 1,0,1
EndSplineSet
PairPos2: "'kern' Horizontal Kerning in Arabic lookup 2 per glyph data 2" uni0671 dx=60 dy=0 dh=60 dv=0 dx=0 dy=0 dh=0 dv=0
PairPos2: "'kern' Horizontal Kerning in Arabic lookup 2 per glyph data 2" afii57410 dx=60 dy=0 dh=60 dv=0 dx=0 dy=0 dh=0 dv=0
PairPos2: "'kern' Horizontal Kerning in Arabic lookup 2 per glyph data 2" afii57411 dx=60 dy=0 dh=60 dv=0 dx=0 dy=0 dh=0 dv=0
PairPos2: "'kern' Horizontal Kerning in Arabic lookup 2 per glyph data 2" uniFE8E.short dx=60 dy=0 dh=60 dv=0 dx=0 dy=0 dh=0 dv=0
PairPos2: "'kern' Horizontal Kerning in Arabic lookup 2 per glyph data 2" afii57415.short dx=60 dy=0 dh=60 dv=0 dx=0 dy=0 dh=0 dv=0
PairPos2: "'kern' Horizontal Kerning in Arabic lookup 2 per glyph data 2" afii57415 dx=60 dy=0 dh=60 dv=0 dx=0 dy=0 dh=0 dv=0
PairPos2: "'kern' Horizontal Kerning in Arabic lookup 2 per glyph data 1" uniFEF3 dx=40 dy=0 dh=40 dv=0 dx=0 dy=0 dh=0 dv=0
PairPos2: "'kern' Horizontal Kerning in Arabic lookup 2 per glyph data 1" uniFB58 dx=40 dy=0 dh=40 dv=0 dx=0 dy=0 dh=0 dv=0
PairPos2: "'kern' Horizontal Kerning in Arabic lookup 2 per glyph data 1" afii57413 dx=40 dy=0 dh=40 dv=0 dx=0 dy=0 dh=0 dv=0
PairPos2: "'kern' Horizontal Kerning in Arabic lookup 2 per glyph data 1" uniFB94 dx=110 dy=0 dh=110 dv=0 dx=0 dy=0 dh=0 dv=0
PairPos2: "'kern' Horizontal Kerning in Arabic lookup 2 per glyph data 1" afii57509 dx=110 dy=0 dh=110 dv=0 dx=0 dy=0 dh=0 dv=0
PairPos2: "'kern' Horizontal Kerning in Arabic lookup 2 per glyph data 1" uniFB90 dx=110 dy=0 dh=110 dv=0 dx=0 dy=0 dh=0 dv=0
PairPos2: "'kern' Horizontal Kerning in Arabic lookup 2 per glyph data 1" uni06A9 dx=110 dy=0 dh=110 dv=0 dx=0 dy=0 dh=0 dv=0
PairPos2: "'kern' Horizontal Kerning in Arabic lookup 2 per glyph data 1" uniFEDB dx=110 dy=0 dh=110 dv=0 dx=0 dy=0 dh=0 dv=0
EndChar

StartChar: u
Encoding: 87 117 50
Width: 506
GlyphClass: 2
Flags: W
AnchorPoint: "Anchor-8" 495 430 basechar 0
AnchorPoint: "Anchor-7" 0 0 basechar 0
AnchorPoint: "Anchor-6" 255 430 basechar 0
AnchorPoint: "Anchor-5" 466 10 basechar 0
AnchorPoint: "Anchor-4" 255 0 basechar 0
LayerCount: 2
Fore
SplineSet
427 436 m 1,0,-1
 427 0 l 1,1,-1
 380 0 l 1,2,-1
 377 40 l 1,3,4
 341 18 341 18 299.5 3.5 c 128,-1,5
 258 -11 258 -11 216 -11 c 0,6,7
 155 -11 155 -11 114.5 20.5 c 128,-1,8
 74 52 74 52 74 126 c 2,9,-1
 74 430 l 1,10,-1
 126 436 l 1,11,-1
 126 142 l 2,12,13
 126 104 126 104 135.5 81 c 128,-1,14
 145 58 145 58 167.5 46.5 c 128,-1,15
 190 35 190 35 229 35 c 0,16,17
 265 35 265 35 302.5 48.5 c 128,-1,18
 340 62 340 62 375 83 c 1,19,-1
 375 430 l 1,20,-1
 427 436 l 1,0,-1
EndSplineSet
PairPos2: "'kern' Horizontal Kerning in Arabic lookup 2 per glyph data 2" uni0671 dx=60 dy=0 dh=60 dv=0 dx=0 dy=0 dh=0 dv=0
PairPos2: "'kern' Horizontal Kerning in Arabic lookup 2 per glyph data 2" afii57410 dx=60 dy=0 dh=60 dv=0 dx=0 dy=0 dh=0 dv=0
PairPos2: "'kern' Horizontal Kerning in Arabic lookup 2 per glyph data 2" afii57411 dx=60 dy=0 dh=60 dv=0 dx=0 dy=0 dh=0 dv=0
PairPos2: "'kern' Horizontal Kerning in Arabic lookup 2 per glyph data 2" uniFE8E.short dx=60 dy=0 dh=60 dv=0 dx=0 dy=0 dh=0 dv=0
PairPos2: "'kern' Horizontal Kerning in Arabic lookup 2 per glyph data 2" afii57415.short dx=60 dy=0 dh=60 dv=0 dx=0 dy=0 dh=0 dv=0
PairPos2: "'kern' Horizontal Kerning in Arabic lookup 2 per glyph data 2" afii57415 dx=60 dy=0 dh=60 dv=0 dx=0 dy=0 dh=0 dv=0
PairPos2: "'kern' Horizontal Kerning in Arabic lookup 2 per glyph data 1" uniFEF3 dx=40 dy=0 dh=40 dv=0 dx=0 dy=0 dh=0 dv=0
PairPos2: "'kern' Horizontal Kerning in Arabic lookup 2 per glyph data 1" uniFB58 dx=40 dy=0 dh=40 dv=0 dx=0 dy=0 dh=0 dv=0
PairPos2: "'kern' Horizontal Kerning in Arabic lookup 2 per glyph data 1" afii57413 dx=40 dy=0 dh=40 dv=0 dx=0 dy=0 dh=0 dv=0
PairPos2: "'kern' Horizontal Kerning in Arabic lookup 2 per glyph data 1" uniFB94 dx=110 dy=0 dh=110 dv=0 dx=0 dy=0 dh=0 dv=0
PairPos2: "'kern' Horizontal Kerning in Arabic lookup 2 per glyph data 1" afii57509 dx=110 dy=0 dh=110 dv=0 dx=0 dy=0 dh=0 dv=0
PairPos2: "'kern' Horizontal Kerning in Arabic lookup 2 per glyph data 1" uniFB90 dx=110 dy=0 dh=110 dv=0 dx=0 dy=0 dh=0 dv=0
PairPos2: "'kern' Horizontal Kerning in Arabic lookup 2 per glyph data 1" uni06A9 dx=110 dy=0 dh=110 dv=0 dx=0 dy=0 dh=0 dv=0
PairPos2: "'kern' Horizontal Kerning in Arabic lookup 2 per glyph data 1" uniFEDB dx=110 dy=0 dh=110 dv=0 dx=0 dy=0 dh=0 dv=0
EndChar

StartChar: v
Encoding: 88 118 51
Width: 439
GlyphClass: 2
Flags: W
AnchorPoint: "Anchor-8" 0 0 basechar 0
AnchorPoint: "Anchor-7" 0 0 basechar 0
AnchorPoint: "Anchor-6" 220 430 basechar 0
AnchorPoint: "Anchor-5" 0 0 basechar 0
AnchorPoint: "Anchor-4" 220 0 basechar 0
LayerCount: 2
Fore
SplineSet
425 430 m 1,0,-1
 425 425 l 1,1,-1
 248 0 l 1,2,-1
 195 0 l 1,3,-1
 14 425 l 1,4,-1
 14 430 l 1,5,-1
 70 430 l 1,6,-1
 189 139 l 2,7,8
 201 111 201 111 210.5 85 c 128,-1,9
 220 59 220 59 223 50 c 1,10,11
 233 79 233 79 256 139 c 2,12,-1
 372 430 l 1,13,-1
 425 430 l 1,0,-1
EndSplineSet
PairPos2: "'kern' Horizontal Kerning in Arabic lookup 2 per glyph data 2" uni0671 dx=60 dy=0 dh=60 dv=0 dx=0 dy=0 dh=0 dv=0
PairPos2: "'kern' Horizontal Kerning in Arabic lookup 2 per glyph data 2" afii57410 dx=60 dy=0 dh=60 dv=0 dx=0 dy=0 dh=0 dv=0
PairPos2: "'kern' Horizontal Kerning in Arabic lookup 2 per glyph data 2" afii57411 dx=60 dy=0 dh=60 dv=0 dx=0 dy=0 dh=0 dv=0
PairPos2: "'kern' Horizontal Kerning in Arabic lookup 2 per glyph data 2" uniFE8E.short dx=60 dy=0 dh=60 dv=0 dx=0 dy=0 dh=0 dv=0
PairPos2: "'kern' Horizontal Kerning in Arabic lookup 2 per glyph data 2" afii57415.short dx=60 dy=0 dh=60 dv=0 dx=0 dy=0 dh=0 dv=0
PairPos2: "'kern' Horizontal Kerning in Arabic lookup 2 per glyph data 2" afii57415 dx=60 dy=0 dh=60 dv=0 dx=0 dy=0 dh=0 dv=0
PairPos2: "'kern' Horizontal Kerning in Arabic lookup 2 per glyph data 1" uniFEF3 dx=40 dy=0 dh=40 dv=0 dx=0 dy=0 dh=0 dv=0
PairPos2: "'kern' Horizontal Kerning in Arabic lookup 2 per glyph data 1" uniFB58 dx=40 dy=0 dh=40 dv=0 dx=0 dy=0 dh=0 dv=0
PairPos2: "'kern' Horizontal Kerning in Arabic lookup 2 per glyph data 1" afii57413 dx=40 dy=0 dh=40 dv=0 dx=0 dy=0 dh=0 dv=0
PairPos2: "'kern' Horizontal Kerning in Arabic lookup 2 per glyph data 1" uniFB94 dx=110 dy=0 dh=110 dv=0 dx=0 dy=0 dh=0 dv=0
PairPos2: "'kern' Horizontal Kerning in Arabic lookup 2 per glyph data 1" afii57509 dx=110 dy=0 dh=110 dv=0 dx=0 dy=0 dh=0 dv=0
PairPos2: "'kern' Horizontal Kerning in Arabic lookup 2 per glyph data 1" uniFB90 dx=110 dy=0 dh=110 dv=0 dx=0 dy=0 dh=0 dv=0
PairPos2: "'kern' Horizontal Kerning in Arabic lookup 2 per glyph data 1" uni06A9 dx=110 dy=0 dh=110 dv=0 dx=0 dy=0 dh=0 dv=0
PairPos2: "'kern' Horizontal Kerning in Arabic lookup 2 per glyph data 1" uniFEDB dx=110 dy=0 dh=110 dv=0 dx=0 dy=0 dh=0 dv=0
EndChar

StartChar: w
Encoding: 89 119 52
Width: 645
GlyphClass: 2
Flags: W
AnchorPoint: "Anchor-8" 0 0 basechar 0
AnchorPoint: "Anchor-7" 0 0 basechar 0
AnchorPoint: "Anchor-6" 325 430 basechar 0
AnchorPoint: "Anchor-5" 0 0 basechar 0
AnchorPoint: "Anchor-4" 323 0 basechar 0
LayerCount: 2
Fore
SplineSet
633 430 m 1,0,-1
 633 425 l 1,1,-1
 490 0 l 1,2,-1
 438 0 l 1,3,-1
 339 314 l 2,4,5
 329 344 329 344 323 371 c 1,6,7
 319 347 319 347 308 314 c 2,8,-1
 209 0 l 1,9,-1
 159 0 l 1,10,-1
 12 425 l 1,11,-1
 12 430 l 1,12,-1
 67 430 l 1,13,-1
 169 115 l 2,14,15
 180 81 180 81 185 60 c 1,16,17
 191 85 191 85 200 115 c 2,18,-1
 297 430 l 1,19,-1
 353 430 l 1,20,-1
 452 109 l 2,21,22
 460 85 460 85 466 58 c 1,23,24
 469 78 469 78 479 109 c 2,25,-1
 582 430 l 1,26,-1
 633 430 l 1,0,-1
EndSplineSet
PairPos2: "'kern' Horizontal Kerning in Arabic lookup 2 per glyph data 2" uni0671 dx=60 dy=0 dh=60 dv=0 dx=0 dy=0 dh=0 dv=0
PairPos2: "'kern' Horizontal Kerning in Arabic lookup 2 per glyph data 2" afii57410 dx=60 dy=0 dh=60 dv=0 dx=0 dy=0 dh=0 dv=0
PairPos2: "'kern' Horizontal Kerning in Arabic lookup 2 per glyph data 2" afii57411 dx=60 dy=0 dh=60 dv=0 dx=0 dy=0 dh=0 dv=0
PairPos2: "'kern' Horizontal Kerning in Arabic lookup 2 per glyph data 2" uniFE8E.short dx=60 dy=0 dh=60 dv=0 dx=0 dy=0 dh=0 dv=0
PairPos2: "'kern' Horizontal Kerning in Arabic lookup 2 per glyph data 2" afii57415.short dx=60 dy=0 dh=60 dv=0 dx=0 dy=0 dh=0 dv=0
PairPos2: "'kern' Horizontal Kerning in Arabic lookup 2 per glyph data 2" afii57415 dx=60 dy=0 dh=60 dv=0 dx=0 dy=0 dh=0 dv=0
PairPos2: "'kern' Horizontal Kerning in Arabic lookup 2 per glyph data 1" uniFEF3 dx=40 dy=0 dh=40 dv=0 dx=0 dy=0 dh=0 dv=0
PairPos2: "'kern' Horizontal Kerning in Arabic lookup 2 per glyph data 1" uniFB58 dx=40 dy=0 dh=40 dv=0 dx=0 dy=0 dh=0 dv=0
PairPos2: "'kern' Horizontal Kerning in Arabic lookup 2 per glyph data 1" afii57413 dx=40 dy=0 dh=40 dv=0 dx=0 dy=0 dh=0 dv=0
PairPos2: "'kern' Horizontal Kerning in Arabic lookup 2 per glyph data 1" uniFB94 dx=110 dy=0 dh=110 dv=0 dx=0 dy=0 dh=0 dv=0
PairPos2: "'kern' Horizontal Kerning in Arabic lookup 2 per glyph data 1" afii57509 dx=110 dy=0 dh=110 dv=0 dx=0 dy=0 dh=0 dv=0
PairPos2: "'kern' Horizontal Kerning in Arabic lookup 2 per glyph data 1" uniFB90 dx=110 dy=0 dh=110 dv=0 dx=0 dy=0 dh=0 dv=0
PairPos2: "'kern' Horizontal Kerning in Arabic lookup 2 per glyph data 1" uni06A9 dx=110 dy=0 dh=110 dv=0 dx=0 dy=0 dh=0 dv=0
PairPos2: "'kern' Horizontal Kerning in Arabic lookup 2 per glyph data 1" uniFEDB dx=110 dy=0 dh=110 dv=0 dx=0 dy=0 dh=0 dv=0
EndChar

StartChar: x
Encoding: 90 120 53
Width: 411
GlyphClass: 2
Flags: W
AnchorPoint: "Anchor-8" 0 0 basechar 0
AnchorPoint: "Anchor-7" 0 0 basechar 0
AnchorPoint: "Anchor-6" 206 430 basechar 0
AnchorPoint: "Anchor-5" 0 0 basechar 0
AnchorPoint: "Anchor-4" 206 0 basechar 0
LayerCount: 2
Fore
SplineSet
238 222 m 1,0,-1
 398 5 l 1,1,-1
 398 0 l 1,2,-1
 339 0 l 1,3,-1
 204 185 l 1,4,-1
 68 0 l 1,5,-1
 14 0 l 1,6,-1
 14 5 l 1,7,-1
 173 221 l 1,8,-1
 21 425 l 1,9,-1
 21 430 l 1,10,-1
 79 430 l 1,11,-1
 207 257 l 1,12,-1
 332 430 l 1,13,-1
 385 430 l 1,14,-1
 385 425 l 1,15,-1
 238 222 l 1,0,-1
EndSplineSet
PairPos2: "'kern' Horizontal Kerning in Arabic lookup 2 per glyph data 2" uni0671 dx=60 dy=0 dh=60 dv=0 dx=0 dy=0 dh=0 dv=0
PairPos2: "'kern' Horizontal Kerning in Arabic lookup 2 per glyph data 2" afii57410 dx=60 dy=0 dh=60 dv=0 dx=0 dy=0 dh=0 dv=0
PairPos2: "'kern' Horizontal Kerning in Arabic lookup 2 per glyph data 2" afii57411 dx=60 dy=0 dh=60 dv=0 dx=0 dy=0 dh=0 dv=0
PairPos2: "'kern' Horizontal Kerning in Arabic lookup 2 per glyph data 2" uniFE8E.short dx=60 dy=0 dh=60 dv=0 dx=0 dy=0 dh=0 dv=0
PairPos2: "'kern' Horizontal Kerning in Arabic lookup 2 per glyph data 2" afii57415.short dx=60 dy=0 dh=60 dv=0 dx=0 dy=0 dh=0 dv=0
PairPos2: "'kern' Horizontal Kerning in Arabic lookup 2 per glyph data 2" afii57415 dx=60 dy=0 dh=60 dv=0 dx=0 dy=0 dh=0 dv=0
PairPos2: "'kern' Horizontal Kerning in Arabic lookup 2 per glyph data 1" uniFEF3 dx=40 dy=0 dh=40 dv=0 dx=0 dy=0 dh=0 dv=0
PairPos2: "'kern' Horizontal Kerning in Arabic lookup 2 per glyph data 1" uniFB58 dx=40 dy=0 dh=40 dv=0 dx=0 dy=0 dh=0 dv=0
PairPos2: "'kern' Horizontal Kerning in Arabic lookup 2 per glyph data 1" afii57413 dx=40 dy=0 dh=40 dv=0 dx=0 dy=0 dh=0 dv=0
PairPos2: "'kern' Horizontal Kerning in Arabic lookup 2 per glyph data 1" uniFB94 dx=110 dy=0 dh=110 dv=0 dx=0 dy=0 dh=0 dv=0
PairPos2: "'kern' Horizontal Kerning in Arabic lookup 2 per glyph data 1" afii57509 dx=110 dy=0 dh=110 dv=0 dx=0 dy=0 dh=0 dv=0
PairPos2: "'kern' Horizontal Kerning in Arabic lookup 2 per glyph data 1" uniFB90 dx=110 dy=0 dh=110 dv=0 dx=0 dy=0 dh=0 dv=0
PairPos2: "'kern' Horizontal Kerning in Arabic lookup 2 per glyph data 1" uni06A9 dx=110 dy=0 dh=110 dv=0 dx=0 dy=0 dh=0 dv=0
PairPos2: "'kern' Horizontal Kerning in Arabic lookup 2 per glyph data 1" uniFEDB dx=110 dy=0 dh=110 dv=0 dx=0 dy=0 dh=0 dv=0
EndChar

StartChar: y
Encoding: 91 121 54
Width: 438
GlyphClass: 2
Flags: W
AnchorPoint: "Anchor-8" 0 0 basechar 0
AnchorPoint: "Anchor-7" 0 0 basechar 0
AnchorPoint: "Anchor-6" 222 430 basechar 0
AnchorPoint: "Anchor-5" 0 0 basechar 0
AnchorPoint: "Anchor-4" 88 -186 basechar 0
LayerCount: 2
Fore
SplineSet
423 430 m 1,0,-1
 423 425 l 1,1,-1
 231 -70 l 2,2,3
 204 -139 204 -139 171.5 -168 c 128,-1,4
 139 -197 139 -197 89 -197 c 0,5,6
 51 -197 51 -197 12 -182 c 1,7,-1
 27 -141 l 1,8,9
 56 -153 56 -153 86 -153 c 0,10,11
 107 -153 107 -153 123 -146 c 128,-1,12
 139 -139 139 -139 153 -121 c 128,-1,13
 167 -103 167 -103 181 -69 c 2,14,-1
 208 0 l 1,15,-1
 191 0 l 1,16,-1
 14 425 l 1,17,-1
 14 430 l 1,18,-1
 69 430 l 1,19,-1
 183 149 l 2,20,21
 211 80 211 80 224 42 c 1,22,-1
 264 150 l 1,23,-1
 371 430 l 1,24,-1
 423 430 l 1,0,-1
EndSplineSet
PairPos2: "'kern' Horizontal Kerning in Arabic lookup 2 per glyph data 2" uni0671 dx=60 dy=0 dh=60 dv=0 dx=0 dy=0 dh=0 dv=0
PairPos2: "'kern' Horizontal Kerning in Arabic lookup 2 per glyph data 2" afii57410 dx=60 dy=0 dh=60 dv=0 dx=0 dy=0 dh=0 dv=0
PairPos2: "'kern' Horizontal Kerning in Arabic lookup 2 per glyph data 2" afii57411 dx=60 dy=0 dh=60 dv=0 dx=0 dy=0 dh=0 dv=0
PairPos2: "'kern' Horizontal Kerning in Arabic lookup 2 per glyph data 2" uniFE8E.short dx=60 dy=0 dh=60 dv=0 dx=0 dy=0 dh=0 dv=0
PairPos2: "'kern' Horizontal Kerning in Arabic lookup 2 per glyph data 2" afii57415.short dx=60 dy=0 dh=60 dv=0 dx=0 dy=0 dh=0 dv=0
PairPos2: "'kern' Horizontal Kerning in Arabic lookup 2 per glyph data 2" afii57415 dx=60 dy=0 dh=60 dv=0 dx=0 dy=0 dh=0 dv=0
PairPos2: "'kern' Horizontal Kerning in Arabic lookup 2 per glyph data 1" uniFEF3 dx=40 dy=0 dh=40 dv=0 dx=0 dy=0 dh=0 dv=0
PairPos2: "'kern' Horizontal Kerning in Arabic lookup 2 per glyph data 1" uniFB58 dx=40 dy=0 dh=40 dv=0 dx=0 dy=0 dh=0 dv=0
PairPos2: "'kern' Horizontal Kerning in Arabic lookup 2 per glyph data 1" afii57413 dx=40 dy=0 dh=40 dv=0 dx=0 dy=0 dh=0 dv=0
PairPos2: "'kern' Horizontal Kerning in Arabic lookup 2 per glyph data 1" uniFB94 dx=110 dy=0 dh=110 dv=0 dx=0 dy=0 dh=0 dv=0
PairPos2: "'kern' Horizontal Kerning in Arabic lookup 2 per glyph data 1" afii57509 dx=110 dy=0 dh=110 dv=0 dx=0 dy=0 dh=0 dv=0
PairPos2: "'kern' Horizontal Kerning in Arabic lookup 2 per glyph data 1" uniFB90 dx=110 dy=0 dh=110 dv=0 dx=0 dy=0 dh=0 dv=0
PairPos2: "'kern' Horizontal Kerning in Arabic lookup 2 per glyph data 1" uni06A9 dx=110 dy=0 dh=110 dv=0 dx=0 dy=0 dh=0 dv=0
PairPos2: "'kern' Horizontal Kerning in Arabic lookup 2 per glyph data 1" uniFEDB dx=110 dy=0 dh=110 dv=0 dx=0 dy=0 dh=0 dv=0
EndChar

StartChar: z
Encoding: 92 122 55
Width: 402
GlyphClass: 2
Flags: W
AnchorPoint: "Anchor-8" 0 0 basechar 0
AnchorPoint: "Anchor-7" 0 0 basechar 0
AnchorPoint: "Anchor-6" 201 430 basechar 0
AnchorPoint: "Anchor-5" 0 0 basechar 0
AnchorPoint: "Anchor-4" 201 0 basechar 0
LayerCount: 2
Fore
SplineSet
98 47 m 1,0,-1
 369 47 l 1,1,-1
 369 0 l 1,2,-1
 28 0 l 1,3,-1
 28 32 l 1,4,-1
 296 384 l 1,5,-1
 43 384 l 1,6,-1
 50 430 l 1,7,-1
 367 430 l 1,8,-1
 367 399 l 1,9,-1
 98 47 l 1,0,-1
EndSplineSet
PairPos2: "'kern' Horizontal Kerning in Arabic lookup 2 per glyph data 2" uni0671 dx=60 dy=0 dh=60 dv=0 dx=0 dy=0 dh=0 dv=0
PairPos2: "'kern' Horizontal Kerning in Arabic lookup 2 per glyph data 2" afii57410 dx=60 dy=0 dh=60 dv=0 dx=0 dy=0 dh=0 dv=0
PairPos2: "'kern' Horizontal Kerning in Arabic lookup 2 per glyph data 2" afii57411 dx=60 dy=0 dh=60 dv=0 dx=0 dy=0 dh=0 dv=0
PairPos2: "'kern' Horizontal Kerning in Arabic lookup 2 per glyph data 2" uniFE8E.short dx=60 dy=0 dh=60 dv=0 dx=0 dy=0 dh=0 dv=0
PairPos2: "'kern' Horizontal Kerning in Arabic lookup 2 per glyph data 2" afii57415.short dx=60 dy=0 dh=60 dv=0 dx=0 dy=0 dh=0 dv=0
PairPos2: "'kern' Horizontal Kerning in Arabic lookup 2 per glyph data 2" afii57415 dx=60 dy=0 dh=60 dv=0 dx=0 dy=0 dh=0 dv=0
PairPos2: "'kern' Horizontal Kerning in Arabic lookup 2 per glyph data 1" uniFEF3 dx=40 dy=0 dh=40 dv=0 dx=0 dy=0 dh=0 dv=0
PairPos2: "'kern' Horizontal Kerning in Arabic lookup 2 per glyph data 1" uniFB58 dx=40 dy=0 dh=40 dv=0 dx=0 dy=0 dh=0 dv=0
PairPos2: "'kern' Horizontal Kerning in Arabic lookup 2 per glyph data 1" afii57413 dx=40 dy=0 dh=40 dv=0 dx=0 dy=0 dh=0 dv=0
PairPos2: "'kern' Horizontal Kerning in Arabic lookup 2 per glyph data 1" uniFB94 dx=110 dy=0 dh=110 dv=0 dx=0 dy=0 dh=0 dv=0
PairPos2: "'kern' Horizontal Kerning in Arabic lookup 2 per glyph data 1" afii57509 dx=110 dy=0 dh=110 dv=0 dx=0 dy=0 dh=0 dv=0
PairPos2: "'kern' Horizontal Kerning in Arabic lookup 2 per glyph data 1" uniFB90 dx=110 dy=0 dh=110 dv=0 dx=0 dy=0 dh=0 dv=0
PairPos2: "'kern' Horizontal Kerning in Arabic lookup 2 per glyph data 1" uni06A9 dx=110 dy=0 dh=110 dv=0 dx=0 dy=0 dh=0 dv=0
PairPos2: "'kern' Horizontal Kerning in Arabic lookup 2 per glyph data 1" uniFEDB dx=110 dy=0 dh=110 dv=0 dx=0 dy=0 dh=0 dv=0
EndChar

StartChar: afii57409
Encoding: 241 1569 56
Width: 394
GlyphClass: 2
Flags: W
AnchorPoint: "Anchor-11" 0 0 basechar 0
AnchorPoint: "Anchor-10" 213 293 basechar 0
AnchorPoint: "Anchor-9" 198 0 basechar 0
LayerCount: 2
Fore
SplineSet
344 18 m 1,0,1
 265 10 265 10 191 5 c 128,-1,2
 117 0 117 0 28 -5 c 1,3,-1
 25 43 l 1,4,5
 56 44 56 44 128 48 c 1,6,7
 104 71 104 71 90.5 101 c 128,-1,8
 77 131 77 131 77 163 c 0,9,10
 77 199 77 199 95 229 c 128,-1,11
 113 259 113 259 144 276 c 128,-1,12
 175 293 175 293 213 293 c 0,13,14
 239 293 239 293 265 287 c 128,-1,15
 291 281 291 281 312 270 c 1,16,-1
 299 226 l 1,17,18
 256 244 256 244 214 244 c 0,19,20
 189 244 189 244 168.5 233 c 128,-1,21
 148 222 148 222 136.5 202 c 128,-1,22
 125 182 125 182 125 157 c 0,23,24
 125 127 125 127 142.5 99.5 c 128,-1,25
 160 72 160 72 192 52 c 1,26,27
 289 58 289 58 339 65 c 1,28,-1
 344 18 l 1,0,1
EndSplineSet
PairPos2: "'kern' Horizontal Kerning in Arabic lookup 2 per glyph data 2" uni0671 dx=60 dy=0 dh=60 dv=0 dx=0 dy=0 dh=0 dv=0
PairPos2: "'kern' Horizontal Kerning in Arabic lookup 2 per glyph data 2" afii57410 dx=60 dy=0 dh=60 dv=0 dx=0 dy=0 dh=0 dv=0
PairPos2: "'kern' Horizontal Kerning in Arabic lookup 2 per glyph data 2" afii57411 dx=60 dy=0 dh=60 dv=0 dx=0 dy=0 dh=0 dv=0
PairPos2: "'kern' Horizontal Kerning in Arabic lookup 2 per glyph data 2" uniFE8E.short dx=60 dy=0 dh=60 dv=0 dx=0 dy=0 dh=0 dv=0
PairPos2: "'kern' Horizontal Kerning in Arabic lookup 2 per glyph data 2" afii57415.short dx=60 dy=0 dh=60 dv=0 dx=0 dy=0 dh=0 dv=0
PairPos2: "'kern' Horizontal Kerning in Arabic lookup 2 per glyph data 2" afii57415 dx=60 dy=0 dh=60 dv=0 dx=0 dy=0 dh=0 dv=0
PairPos2: "'kern' Horizontal Kerning in Arabic lookup 2 per glyph data 1" uniFEF3 dx=40 dy=0 dh=40 dv=0 dx=0 dy=0 dh=0 dv=0
PairPos2: "'kern' Horizontal Kerning in Arabic lookup 2 per glyph data 1" uniFB58 dx=40 dy=0 dh=40 dv=0 dx=0 dy=0 dh=0 dv=0
PairPos2: "'kern' Horizontal Kerning in Arabic lookup 2 per glyph data 1" afii57413 dx=40 dy=0 dh=40 dv=0 dx=0 dy=0 dh=0 dv=0
PairPos2: "'kern' Horizontal Kerning in Arabic lookup 2 per glyph data 1" uniFB94 dx=110 dy=0 dh=110 dv=0 dx=0 dy=0 dh=0 dv=0
PairPos2: "'kern' Horizontal Kerning in Arabic lookup 2 per glyph data 1" afii57509 dx=110 dy=0 dh=110 dv=0 dx=0 dy=0 dh=0 dv=0
PairPos2: "'kern' Horizontal Kerning in Arabic lookup 2 per glyph data 1" uniFB90 dx=110 dy=0 dh=110 dv=0 dx=0 dy=0 dh=0 dv=0
PairPos2: "'kern' Horizontal Kerning in Arabic lookup 2 per glyph data 1" uni06A9 dx=110 dy=0 dh=110 dv=0 dx=0 dy=0 dh=0 dv=0
PairPos2: "'kern' Horizontal Kerning in Arabic lookup 2 per glyph data 1" uniFEDB dx=110 dy=0 dh=110 dv=0 dx=0 dy=0 dh=0 dv=0
EndChar

StartChar: afii57415
Encoding: 247 1575 57
Width: 200
GlyphClass: 2
Flags: W
AnchorPoint: "Anchor-11" 0 0 basechar 0
AnchorPoint: "Anchor-10" 100 569 basechar 0
AnchorPoint: "Anchor-9" 100 0 basechar 0
LayerCount: 2
Fore
SplineSet
81 -4 m 1,0,-1
 75 -1 l 1,1,-1
 75 665 l 1,2,-1
 120 676 l 1,3,-1
 125 673 l 1,4,-1
 124 7 l 1,5,-1
 81 -4 l 1,0,-1
EndSplineSet
Substitution2: "'fina' Terminal Forms in Arabic lookup 18 subtable" uniFE8E
Substitution2: "'aalt' Access All Alternates in Arabic lookup 0 subtable" uniFE8E
PairPos2: "'kern' Horizontal Kerning in Arabic lookup 2 per glyph data 2" uni0671 dx=60 dy=0 dh=60 dv=0 dx=0 dy=0 dh=0 dv=0
PairPos2: "'kern' Horizontal Kerning in Arabic lookup 2 per glyph data 2" afii57410 dx=60 dy=0 dh=60 dv=0 dx=0 dy=0 dh=0 dv=0
PairPos2: "'kern' Horizontal Kerning in Arabic lookup 2 per glyph data 2" afii57411 dx=60 dy=0 dh=60 dv=0 dx=0 dy=0 dh=0 dv=0
PairPos2: "'kern' Horizontal Kerning in Arabic lookup 2 per glyph data 2" uniFE8E.short dx=60 dy=0 dh=60 dv=0 dx=0 dy=0 dh=0 dv=0
PairPos2: "'kern' Horizontal Kerning in Arabic lookup 2 per glyph data 2" afii57415.short dx=60 dy=0 dh=60 dv=0 dx=0 dy=0 dh=0 dv=0
PairPos2: "'kern' Horizontal Kerning in Arabic lookup 2 per glyph data 2" afii57415 dx=60 dy=0 dh=60 dv=0 dx=0 dy=0 dh=0 dv=0
PairPos2: "'kern' Horizontal Kerning in Arabic lookup 2 per glyph data 1" uniFEF3 dx=40 dy=0 dh=40 dv=0 dx=0 dy=0 dh=0 dv=0
PairPos2: "'kern' Horizontal Kerning in Arabic lookup 2 per glyph data 1" uniFB58 dx=40 dy=0 dh=40 dv=0 dx=0 dy=0 dh=0 dv=0
PairPos2: "'kern' Horizontal Kerning in Arabic lookup 2 per glyph data 1" afii57413 dx=40 dy=0 dh=40 dv=0 dx=0 dy=0 dh=0 dv=0
PairPos2: "'kern' Horizontal Kerning in Arabic lookup 2 per glyph data 1" uniFB94 dx=110 dy=0 dh=110 dv=0 dx=0 dy=0 dh=0 dv=0
PairPos2: "'kern' Horizontal Kerning in Arabic lookup 2 per glyph data 1" afii57509 dx=110 dy=0 dh=110 dv=0 dx=0 dy=0 dh=0 dv=0
PairPos2: "'kern' Horizontal Kerning in Arabic lookup 2 per glyph data 1" uniFB90 dx=110 dy=0 dh=110 dv=0 dx=0 dy=0 dh=0 dv=0
PairPos2: "'kern' Horizontal Kerning in Arabic lookup 2 per glyph data 1" uni06A9 dx=110 dy=0 dh=110 dv=0 dx=0 dy=0 dh=0 dv=0
PairPos2: "'kern' Horizontal Kerning in Arabic lookup 2 per glyph data 1" uniFEDB dx=110 dy=0 dh=110 dv=0 dx=0 dy=0 dh=0 dv=0
PairPos2: "'kern' Horizontal Kerning in Arabic lookup 2 per glyph data 0" uniFB94 dx=80 dy=0 dh=80 dv=0 dx=0 dy=0 dh=0 dv=0
PairPos2: "'kern' Horizontal Kerning in Arabic lookup 2 per glyph data 0" uni0671 dx=40 dy=0 dh=40 dv=0 dx=0 dy=0 dh=0 dv=0
PairPos2: "'kern' Horizontal Kerning in Arabic lookup 2 per glyph data 0" afii57410 dx=90 dy=0 dh=90 dv=0 dx=0 dy=0 dh=0 dv=0
PairPos2: "'kern' Horizontal Kerning in Arabic lookup 2 per glyph data 0" afii57411 dx=32 dy=0 dh=32 dv=0 dx=0 dy=0 dh=0 dv=0
EndChar

StartChar: uniFE8E
Encoding: 438 65166 58
Width: 235
GlyphClass: 2
Flags: W
AnchorPoint: "Anchor-11" 0 0 basechar 0
AnchorPoint: "Anchor-10" 102 569 basechar 0
AnchorPoint: "Anchor-9" 103 0 basechar 0
LayerCount: 2
Fore
SplineSet
117 35.5 m 128,-1,1
 75 71 75 71 75 141 c 2,2,-1
 75 665 l 1,3,-1
 119 676 l 1,4,-1
 125 673 l 1,5,-1
 124 154 l 2,6,7
 124 115 124 115 136.5 92.5 c 128,-1,8
 149 70 149 70 177.5 59.5 c 128,-1,9
 206 49 206 49 255 49 c 0,10,11
 282 49 282 49 282 31 c 0,12,13
 282 18 282 18 269.5 9 c 128,-1,14
 257 0 257 0 235 0 c 0,15,0
 159 0 159 0 117 35.5 c 128,-1,1
EndSplineSet
PairPos2: "'kern' Horizontal Kerning in Arabic lookup 2 per glyph data 2" uni0671 dx=60 dy=0 dh=60 dv=0 dx=0 dy=0 dh=0 dv=0
PairPos2: "'kern' Horizontal Kerning in Arabic lookup 2 per glyph data 2" afii57410 dx=60 dy=0 dh=60 dv=0 dx=0 dy=0 dh=0 dv=0
PairPos2: "'kern' Horizontal Kerning in Arabic lookup 2 per glyph data 2" afii57411 dx=60 dy=0 dh=60 dv=0 dx=0 dy=0 dh=0 dv=0
PairPos2: "'kern' Horizontal Kerning in Arabic lookup 2 per glyph data 2" uniFE8E.short dx=60 dy=0 dh=60 dv=0 dx=0 dy=0 dh=0 dv=0
PairPos2: "'kern' Horizontal Kerning in Arabic lookup 2 per glyph data 2" afii57415.short dx=60 dy=0 dh=60 dv=0 dx=0 dy=0 dh=0 dv=0
PairPos2: "'kern' Horizontal Kerning in Arabic lookup 2 per glyph data 2" afii57415 dx=60 dy=0 dh=60 dv=0 dx=0 dy=0 dh=0 dv=0
PairPos2: "'kern' Horizontal Kerning in Arabic lookup 2 per glyph data 1" uniFEF3 dx=40 dy=0 dh=40 dv=0 dx=0 dy=0 dh=0 dv=0
PairPos2: "'kern' Horizontal Kerning in Arabic lookup 2 per glyph data 1" uniFB58 dx=40 dy=0 dh=40 dv=0 dx=0 dy=0 dh=0 dv=0
PairPos2: "'kern' Horizontal Kerning in Arabic lookup 2 per glyph data 1" afii57413 dx=40 dy=0 dh=40 dv=0 dx=0 dy=0 dh=0 dv=0
PairPos2: "'kern' Horizontal Kerning in Arabic lookup 2 per glyph data 1" uniFB94 dx=110 dy=0 dh=110 dv=0 dx=0 dy=0 dh=0 dv=0
PairPos2: "'kern' Horizontal Kerning in Arabic lookup 2 per glyph data 1" afii57509 dx=110 dy=0 dh=110 dv=0 dx=0 dy=0 dh=0 dv=0
PairPos2: "'kern' Horizontal Kerning in Arabic lookup 2 per glyph data 1" uniFB90 dx=110 dy=0 dh=110 dv=0 dx=0 dy=0 dh=0 dv=0
PairPos2: "'kern' Horizontal Kerning in Arabic lookup 2 per glyph data 1" uni06A9 dx=110 dy=0 dh=110 dv=0 dx=0 dy=0 dh=0 dv=0
PairPos2: "'kern' Horizontal Kerning in Arabic lookup 2 per glyph data 1" uniFEDB dx=110 dy=0 dh=110 dv=0 dx=0 dy=0 dh=0 dv=0
EndChar

StartChar: afii57415.short
Encoding: 524 -1 59
Width: 200
GlyphClass: 2
Flags: W
AnchorPoint: "Anchor-11" 0 0 basechar 0
AnchorPoint: "Anchor-10" 100 569 basechar 0
AnchorPoint: "Anchor-9" 100 0 basechar 0
LayerCount: 2
Fore
SplineSet
81 -4 m 1,0,-1
 75 -1 l 1,1,-1
 75 665 l 1,2,-1
 120 676 l 1,3,-1
 125 673 l 1,4,-1
 124 7 l 1,5,-1
 81 -4 l 1,0,-1
EndSplineSet
PairPos2: "'kern' Horizontal Kerning in Arabic lookup 2 per glyph data 2" uni0671 dx=60 dy=0 dh=60 dv=0 dx=0 dy=0 dh=0 dv=0
PairPos2: "'kern' Horizontal Kerning in Arabic lookup 2 per glyph data 2" afii57410 dx=60 dy=0 dh=60 dv=0 dx=0 dy=0 dh=0 dv=0
PairPos2: "'kern' Horizontal Kerning in Arabic lookup 2 per glyph data 2" afii57411 dx=60 dy=0 dh=60 dv=0 dx=0 dy=0 dh=0 dv=0
PairPos2: "'kern' Horizontal Kerning in Arabic lookup 2 per glyph data 2" uniFE8E.short dx=60 dy=0 dh=60 dv=0 dx=0 dy=0 dh=0 dv=0
PairPos2: "'kern' Horizontal Kerning in Arabic lookup 2 per glyph data 2" afii57415.short dx=60 dy=0 dh=60 dv=0 dx=0 dy=0 dh=0 dv=0
PairPos2: "'kern' Horizontal Kerning in Arabic lookup 2 per glyph data 2" afii57415 dx=60 dy=0 dh=60 dv=0 dx=0 dy=0 dh=0 dv=0
PairPos2: "'kern' Horizontal Kerning in Arabic lookup 2 per glyph data 1" uniFEF3 dx=40 dy=0 dh=40 dv=0 dx=0 dy=0 dh=0 dv=0
PairPos2: "'kern' Horizontal Kerning in Arabic lookup 2 per glyph data 1" uniFB58 dx=40 dy=0 dh=40 dv=0 dx=0 dy=0 dh=0 dv=0
PairPos2: "'kern' Horizontal Kerning in Arabic lookup 2 per glyph data 1" afii57413 dx=40 dy=0 dh=40 dv=0 dx=0 dy=0 dh=0 dv=0
PairPos2: "'kern' Horizontal Kerning in Arabic lookup 2 per glyph data 1" uniFB94 dx=110 dy=0 dh=110 dv=0 dx=0 dy=0 dh=0 dv=0
PairPos2: "'kern' Horizontal Kerning in Arabic lookup 2 per glyph data 1" afii57509 dx=110 dy=0 dh=110 dv=0 dx=0 dy=0 dh=0 dv=0
PairPos2: "'kern' Horizontal Kerning in Arabic lookup 2 per glyph data 1" uniFB90 dx=110 dy=0 dh=110 dv=0 dx=0 dy=0 dh=0 dv=0
PairPos2: "'kern' Horizontal Kerning in Arabic lookup 2 per glyph data 1" uni06A9 dx=110 dy=0 dh=110 dv=0 dx=0 dy=0 dh=0 dv=0
PairPos2: "'kern' Horizontal Kerning in Arabic lookup 2 per glyph data 1" uniFEDB dx=110 dy=0 dh=110 dv=0 dx=0 dy=0 dh=0 dv=0
PairPos2: "'kern' Horizontal Kerning in Arabic lookup 2 per glyph data 0" uniFB94 dx=80 dy=0 dh=80 dv=0 dx=0 dy=0 dh=0 dv=0
PairPos2: "'kern' Horizontal Kerning in Arabic lookup 2 per glyph data 0" uni0671 dx=40 dy=0 dh=40 dv=0 dx=0 dy=0 dh=0 dv=0
PairPos2: "'kern' Horizontal Kerning in Arabic lookup 2 per glyph data 0" afii57410 dx=90 dy=0 dh=90 dv=0 dx=0 dy=0 dh=0 dv=0
PairPos2: "'kern' Horizontal Kerning in Arabic lookup 2 per glyph data 0" afii57411 dx=32 dy=0 dh=32 dv=0 dx=0 dy=0 dh=0 dv=0
EndChar

StartChar: uni066E
Encoding: 305 1646 69
Width: 817
GlyphClass: 2
Flags: W
AnchorPoint: "Anchor-11" 0 0 basechar 0
AnchorPoint: "Anchor-10" 419 250 basechar 0
AnchorPoint: "Anchor-9" 408 -9 basechar 0
LayerCount: 2
Fore
SplineSet
746 227 m 128,-1,1
 757 178 757 178 757 145 c 0,2,3
 757 110 757 110 745 84 c 128,-1,4
 733 58 733 58 706 42 c 0,5,6
 668 18 668 18 591 4 c 128,-1,7
 514 -10 514 -10 427 -10 c 2,8,-1
 394 -10 l 2,9,10
 272 -10 272 -10 196.5 7.5 c 128,-1,11
 121 25 121 25 83 67 c 128,-1,12
 45 109 45 109 45 182 c 0,13,14
 45 224 45 224 57 274 c 1,15,-1
 96 289 l 1,16,-1
 103 285 l 1,17,18
 93 238 93 238 93 198 c 0,19,20
 93 137 93 137 123.5 102.5 c 128,-1,21
 154 68 154 68 222 53.5 c 128,-1,22
 290 39 290 39 407 39 c 2,23,-1
 441 39 l 2,24,25
 498 39 498 39 554 47 c 128,-1,26
 610 55 610 55 651.5 67.5 c 128,-1,27
 693 80 693 80 710 93 c 1,28,29
 712 101 712 101 712 119 c 0,30,31
 712 155 712 155 699 205 c 128,-1,32
 686 255 686 255 668 295 c 1,33,-1
 707 325 l 1,34,-1
 714 325 l 1,35,0
 735 276 735 276 746 227 c 128,-1,1
EndSplineSet
Substitution2: "'fina' Terminal Forms in Arabic lookup 18 subtable" uni066E.fina
Substitution2: "'medi' Medial Forms in Arabic lookup 17 subtable" uni066E.medi
Substitution2: "'init' Initial Forms in Arabic lookup 16 subtable" uni066E.init
AlternateSubs2: "'aalt' Access All Alternates in Arabic lookup 1 subtable" uni066E.fina uni066E.medi uni066E.init
PairPos2: "'kern' Horizontal Kerning in Arabic lookup 2 per glyph data 2" uni0671 dx=60 dy=0 dh=60 dv=0 dx=0 dy=0 dh=0 dv=0
PairPos2: "'kern' Horizontal Kerning in Arabic lookup 2 per glyph data 2" afii57410 dx=60 dy=0 dh=60 dv=0 dx=0 dy=0 dh=0 dv=0
PairPos2: "'kern' Horizontal Kerning in Arabic lookup 2 per glyph data 2" afii57411 dx=60 dy=0 dh=60 dv=0 dx=0 dy=0 dh=0 dv=0
PairPos2: "'kern' Horizontal Kerning in Arabic lookup 2 per glyph data 2" uniFE8E.short dx=60 dy=0 dh=60 dv=0 dx=0 dy=0 dh=0 dv=0
PairPos2: "'kern' Horizontal Kerning in Arabic lookup 2 per glyph data 2" afii57415.short dx=60 dy=0 dh=60 dv=0 dx=0 dy=0 dh=0 dv=0
PairPos2: "'kern' Horizontal Kerning in Arabic lookup 2 per glyph data 2" afii57415 dx=60 dy=0 dh=60 dv=0 dx=0 dy=0 dh=0 dv=0
PairPos2: "'kern' Horizontal Kerning in Arabic lookup 2 per glyph data 1" uniFEF3 dx=40 dy=0 dh=40 dv=0 dx=0 dy=0 dh=0 dv=0
PairPos2: "'kern' Horizontal Kerning in Arabic lookup 2 per glyph data 1" uniFB58 dx=40 dy=0 dh=40 dv=0 dx=0 dy=0 dh=0 dv=0
PairPos2: "'kern' Horizontal Kerning in Arabic lookup 2 per glyph data 1" afii57413 dx=40 dy=0 dh=40 dv=0 dx=0 dy=0 dh=0 dv=0
PairPos2: "'kern' Horizontal Kerning in Arabic lookup 2 per glyph data 1" uniFB94 dx=110 dy=0 dh=110 dv=0 dx=0 dy=0 dh=0 dv=0
PairPos2: "'kern' Horizontal Kerning in Arabic lookup 2 per glyph data 1" afii57509 dx=110 dy=0 dh=110 dv=0 dx=0 dy=0 dh=0 dv=0
PairPos2: "'kern' Horizontal Kerning in Arabic lookup 2 per glyph data 1" uniFB90 dx=110 dy=0 dh=110 dv=0 dx=0 dy=0 dh=0 dv=0
PairPos2: "'kern' Horizontal Kerning in Arabic lookup 2 per glyph data 1" uni06A9 dx=110 dy=0 dh=110 dv=0 dx=0 dy=0 dh=0 dv=0
PairPos2: "'kern' Horizontal Kerning in Arabic lookup 2 per glyph data 1" uniFEDB dx=110 dy=0 dh=110 dv=0 dx=0 dy=0 dh=0 dv=0
EndChar

StartChar: uni066E.fina
Encoding: 526 -1 70
Width: 858
GlyphClass: 2
Flags: W
AnchorPoint: "Anchor-11" 0 0 basechar 0
AnchorPoint: "Anchor-10" 426 250 basechar 0
AnchorPoint: "Anchor-9" 408 -9 basechar 0
LayerCount: 2
Fore
SplineSet
898 44.5 m 128,-1,1
 904 40 904 40 904 31 c 0,2,3
 904 18 904 18 891.5 9 c 128,-1,4
 879 0 879 0 858 0 c 0,5,6
 816 0 816 0 775.5 14 c 128,-1,7
 735 28 735 28 707 56 c 1,8,9
 702 50 702 50 694 46 c 0,10,11
 654 21 654 21 577.5 5.5 c 128,-1,12
 501 -10 501 -10 427 -10 c 2,13,-1
 394 -10 l 2,14,15
 272 -10 272 -10 196.5 7.5 c 128,-1,16
 121 25 121 25 83 67 c 128,-1,17
 45 109 45 109 45 182 c 0,18,19
 45 224 45 224 57 274 c 1,20,-1
 96 289 l 1,21,-1
 103 285 l 1,22,23
 93 238 93 238 93 198 c 0,24,25
 93 137 93 137 123.5 102.5 c 128,-1,26
 154 68 154 68 222 53.5 c 128,-1,27
 290 39 290 39 407 39 c 2,28,-1
 441 39 l 2,29,30
 473 39 473 39 522.5 45 c 128,-1,31
 572 51 572 51 617 63 c 128,-1,32
 662 75 662 75 683 92 c 1,33,34
 692 111 692 111 708.5 161 c 128,-1,35
 725 211 725 211 734 249 c 1,36,-1
 782 261 l 1,37,-1
 789 257 l 1,38,39
 771 190 771 190 759.5 153 c 128,-1,40
 748 116 748 116 735 93 c 1,41,42
 759 73 759 73 795.5 61 c 128,-1,43
 832 49 832 49 878 49 c 0,44,0
 892 49 892 49 898 44.5 c 128,-1,1
EndSplineSet
PairPos2: "'kern' Horizontal Kerning in Arabic lookup 2 per glyph data 2" uni0671 dx=60 dy=0 dh=60 dv=0 dx=0 dy=0 dh=0 dv=0
PairPos2: "'kern' Horizontal Kerning in Arabic lookup 2 per glyph data 2" afii57410 dx=60 dy=0 dh=60 dv=0 dx=0 dy=0 dh=0 dv=0
PairPos2: "'kern' Horizontal Kerning in Arabic lookup 2 per glyph data 2" afii57411 dx=60 dy=0 dh=60 dv=0 dx=0 dy=0 dh=0 dv=0
PairPos2: "'kern' Horizontal Kerning in Arabic lookup 2 per glyph data 2" uniFE8E.short dx=60 dy=0 dh=60 dv=0 dx=0 dy=0 dh=0 dv=0
PairPos2: "'kern' Horizontal Kerning in Arabic lookup 2 per glyph data 2" afii57415.short dx=60 dy=0 dh=60 dv=0 dx=0 dy=0 dh=0 dv=0
PairPos2: "'kern' Horizontal Kerning in Arabic lookup 2 per glyph data 2" afii57415 dx=60 dy=0 dh=60 dv=0 dx=0 dy=0 dh=0 dv=0
PairPos2: "'kern' Horizontal Kerning in Arabic lookup 2 per glyph data 1" uniFEF3 dx=40 dy=0 dh=40 dv=0 dx=0 dy=0 dh=0 dv=0
PairPos2: "'kern' Horizontal Kerning in Arabic lookup 2 per glyph data 1" uniFB58 dx=40 dy=0 dh=40 dv=0 dx=0 dy=0 dh=0 dv=0
PairPos2: "'kern' Horizontal Kerning in Arabic lookup 2 per glyph data 1" afii57413 dx=40 dy=0 dh=40 dv=0 dx=0 dy=0 dh=0 dv=0
PairPos2: "'kern' Horizontal Kerning in Arabic lookup 2 per glyph data 1" uniFB94 dx=110 dy=0 dh=110 dv=0 dx=0 dy=0 dh=0 dv=0
PairPos2: "'kern' Horizontal Kerning in Arabic lookup 2 per glyph data 1" afii57509 dx=110 dy=0 dh=110 dv=0 dx=0 dy=0 dh=0 dv=0
PairPos2: "'kern' Horizontal Kerning in Arabic lookup 2 per glyph data 1" uniFB90 dx=110 dy=0 dh=110 dv=0 dx=0 dy=0 dh=0 dv=0
PairPos2: "'kern' Horizontal Kerning in Arabic lookup 2 per glyph data 1" uni06A9 dx=110 dy=0 dh=110 dv=0 dx=0 dy=0 dh=0 dv=0
PairPos2: "'kern' Horizontal Kerning in Arabic lookup 2 per glyph data 1" uniFEDB dx=110 dy=0 dh=110 dv=0 dx=0 dy=0 dh=0 dv=0
EndChar

StartChar: uni066E.medi
Encoding: 527 -1 71
Width: 315
GlyphClass: 2
Flags: W
AnchorPoint: "Anchor-11" 0 0 basechar 0
AnchorPoint: "Anchor-10" 207 261 basechar 0
AnchorPoint: "Anchor-9" 175 0 basechar 0
LayerCount: 2
Fore
SplineSet
355 44.5 m 128,-1,1
 361 40 361 40 361 31 c 0,2,3
 361 18 361 18 348.5 9 c 128,-1,4
 336 0 336 0 315 0 c 0,5,6
 274 0 274 0 234.5 13 c 128,-1,7
 195 26 195 26 166 53 c 1,8,9
 143 25 143 25 110 12.5 c 128,-1,10
 77 0 77 0 27 0 c 2,11,-1
 0 0 l 1,12,-1
 20 49 l 1,13,-1
 40 49 l 2,14,15
 73 49 73 49 95 56.5 c 128,-1,16
 117 64 117 64 133 79 c 1,17,18
 143 95 143 95 158.5 140.5 c 128,-1,19
 174 186 174 186 190 250 c 1,20,-1
 238 262 l 1,21,-1
 246 258 l 1,22,23
 231 199 231 199 218.5 160 c 128,-1,24
 206 121 206 121 192 93 c 1,25,26
 216 73 216 73 252.5 61 c 128,-1,27
 289 49 289 49 335 49 c 0,28,0
 349 49 349 49 355 44.5 c 128,-1,1
EndSplineSet
PairPos2: "'kern' Horizontal Kerning in Arabic lookup 2 per glyph data 2" uni0671 dx=60 dy=0 dh=60 dv=0 dx=0 dy=0 dh=0 dv=0
PairPos2: "'kern' Horizontal Kerning in Arabic lookup 2 per glyph data 2" afii57410 dx=60 dy=0 dh=60 dv=0 dx=0 dy=0 dh=0 dv=0
PairPos2: "'kern' Horizontal Kerning in Arabic lookup 2 per glyph data 2" afii57411 dx=60 dy=0 dh=60 dv=0 dx=0 dy=0 dh=0 dv=0
PairPos2: "'kern' Horizontal Kerning in Arabic lookup 2 per glyph data 2" uniFE8E.short dx=60 dy=0 dh=60 dv=0 dx=0 dy=0 dh=0 dv=0
PairPos2: "'kern' Horizontal Kerning in Arabic lookup 2 per glyph data 2" afii57415.short dx=60 dy=0 dh=60 dv=0 dx=0 dy=0 dh=0 dv=0
PairPos2: "'kern' Horizontal Kerning in Arabic lookup 2 per glyph data 2" afii57415 dx=60 dy=0 dh=60 dv=0 dx=0 dy=0 dh=0 dv=0
PairPos2: "'kern' Horizontal Kerning in Arabic lookup 2 per glyph data 1" uniFEF3 dx=40 dy=0 dh=40 dv=0 dx=0 dy=0 dh=0 dv=0
PairPos2: "'kern' Horizontal Kerning in Arabic lookup 2 per glyph data 1" uniFB58 dx=40 dy=0 dh=40 dv=0 dx=0 dy=0 dh=0 dv=0
PairPos2: "'kern' Horizontal Kerning in Arabic lookup 2 per glyph data 1" afii57413 dx=40 dy=0 dh=40 dv=0 dx=0 dy=0 dh=0 dv=0
PairPos2: "'kern' Horizontal Kerning in Arabic lookup 2 per glyph data 1" uniFB94 dx=110 dy=0 dh=110 dv=0 dx=0 dy=0 dh=0 dv=0
PairPos2: "'kern' Horizontal Kerning in Arabic lookup 2 per glyph data 1" afii57509 dx=110 dy=0 dh=110 dv=0 dx=0 dy=0 dh=0 dv=0
PairPos2: "'kern' Horizontal Kerning in Arabic lookup 2 per glyph data 1" uniFB90 dx=110 dy=0 dh=110 dv=0 dx=0 dy=0 dh=0 dv=0
PairPos2: "'kern' Horizontal Kerning in Arabic lookup 2 per glyph data 1" uni06A9 dx=110 dy=0 dh=110 dv=0 dx=0 dy=0 dh=0 dv=0
PairPos2: "'kern' Horizontal Kerning in Arabic lookup 2 per glyph data 1" uniFEDB dx=110 dy=0 dh=110 dv=0 dx=0 dy=0 dh=0 dv=0
EndChar

StartChar: uni066E.medi.wide
Encoding: 528 -1 72
Width: 336
GlyphClass: 2
Flags: W
AnchorPoint: "Anchor-11" 0 0 basechar 0
AnchorPoint: "Anchor-10" 213 262 basechar 0
AnchorPoint: "Anchor-9" 175 0 basechar 0
LayerCount: 2
Fore
SplineSet
376 44.5 m 128,-1,1
 382 40 382 40 382 31 c 0,2,3
 382 18 382 18 369.5 9 c 128,-1,4
 357 0 357 0 336 0 c 0,5,6
 221 0 221 0 164 53 c 1,7,8
 141 25 141 25 109 12.5 c 128,-1,9
 77 0 77 0 28 0 c 2,10,-1
 0 0 l 1,11,-1
 20 49 l 1,12,-1
 38 49 l 2,13,14
 67 49 67 49 91 56 c 128,-1,15
 115 63 115 63 129 79 c 0,16,17
 139 95 139 95 154.5 140 c 128,-1,18
 170 185 170 185 187 250 c 1,19,-1
 235 262 l 1,20,-1
 243 258 l 1,21,22
 226 194 226 194 214.5 157 c 128,-1,23
 203 120 203 120 189 93 c 1,24,25
 241 49 241 49 356 49 c 0,26,0
 370 49 370 49 376 44.5 c 128,-1,1
EndSplineSet
PairPos2: "'kern' Horizontal Kerning in Arabic lookup 2 per glyph data 2" uni0671 dx=60 dy=0 dh=60 dv=0 dx=0 dy=0 dh=0 dv=0
PairPos2: "'kern' Horizontal Kerning in Arabic lookup 2 per glyph data 2" afii57410 dx=60 dy=0 dh=60 dv=0 dx=0 dy=0 dh=0 dv=0
PairPos2: "'kern' Horizontal Kerning in Arabic lookup 2 per glyph data 2" afii57411 dx=60 dy=0 dh=60 dv=0 dx=0 dy=0 dh=0 dv=0
PairPos2: "'kern' Horizontal Kerning in Arabic lookup 2 per glyph data 2" uniFE8E.short dx=60 dy=0 dh=60 dv=0 dx=0 dy=0 dh=0 dv=0
PairPos2: "'kern' Horizontal Kerning in Arabic lookup 2 per glyph data 2" afii57415.short dx=60 dy=0 dh=60 dv=0 dx=0 dy=0 dh=0 dv=0
PairPos2: "'kern' Horizontal Kerning in Arabic lookup 2 per glyph data 2" afii57415 dx=60 dy=0 dh=60 dv=0 dx=0 dy=0 dh=0 dv=0
PairPos2: "'kern' Horizontal Kerning in Arabic lookup 2 per glyph data 1" uniFEF3 dx=40 dy=0 dh=40 dv=0 dx=0 dy=0 dh=0 dv=0
PairPos2: "'kern' Horizontal Kerning in Arabic lookup 2 per glyph data 1" uniFB58 dx=40 dy=0 dh=40 dv=0 dx=0 dy=0 dh=0 dv=0
PairPos2: "'kern' Horizontal Kerning in Arabic lookup 2 per glyph data 1" afii57413 dx=40 dy=0 dh=40 dv=0 dx=0 dy=0 dh=0 dv=0
PairPos2: "'kern' Horizontal Kerning in Arabic lookup 2 per glyph data 1" uniFB94 dx=110 dy=0 dh=110 dv=0 dx=0 dy=0 dh=0 dv=0
PairPos2: "'kern' Horizontal Kerning in Arabic lookup 2 per glyph data 1" afii57509 dx=110 dy=0 dh=110 dv=0 dx=0 dy=0 dh=0 dv=0
PairPos2: "'kern' Horizontal Kerning in Arabic lookup 2 per glyph data 1" uniFB90 dx=110 dy=0 dh=110 dv=0 dx=0 dy=0 dh=0 dv=0
PairPos2: "'kern' Horizontal Kerning in Arabic lookup 2 per glyph data 1" uni06A9 dx=110 dy=0 dh=110 dv=0 dx=0 dy=0 dh=0 dv=0
PairPos2: "'kern' Horizontal Kerning in Arabic lookup 2 per glyph data 1" uniFEDB dx=110 dy=0 dh=110 dv=0 dx=0 dy=0 dh=0 dv=0
EndChar

StartChar: uni066E.init
Encoding: 529 -1 73
Width: 261
GlyphClass: 2
Flags: W
AnchorPoint: "Anchor-11" 0 0 basechar 0
AnchorPoint: "Anchor-10" 133 323 basechar 0
AnchorPoint: "Anchor-9" 123 0 basechar 0
LayerCount: 2
Fore
SplineSet
20 49 m 1,0,-1
 27 49 l 2,1,2
 69 49 69 49 99.5 56.5 c 128,-1,3
 130 64 130 64 146 78 c 1,4,5
 155 105 155 105 155 133 c 0,6,7
 155 201 155 201 110 295 c 1,8,-1
 149 325 l 1,9,-1
 155 325 l 1,10,11
 178 275 178 275 189.5 231 c 128,-1,12
 201 187 201 187 201 157 c 0,13,14
 201 122 201 122 191 88.5 c 128,-1,15
 181 55 181 55 164 38 c 0,16,17
 126 0 126 0 7 0 c 2,18,-1
 0 0 l 1,19,-1
 20 49 l 1,0,-1
EndSplineSet
PairPos2: "'kern' Horizontal Kerning in Arabic lookup 2 per glyph data 2" uni0671 dx=60 dy=0 dh=60 dv=0 dx=0 dy=0 dh=0 dv=0
PairPos2: "'kern' Horizontal Kerning in Arabic lookup 2 per glyph data 2" afii57410 dx=60 dy=0 dh=60 dv=0 dx=0 dy=0 dh=0 dv=0
PairPos2: "'kern' Horizontal Kerning in Arabic lookup 2 per glyph data 2" afii57411 dx=60 dy=0 dh=60 dv=0 dx=0 dy=0 dh=0 dv=0
PairPos2: "'kern' Horizontal Kerning in Arabic lookup 2 per glyph data 2" uniFE8E.short dx=60 dy=0 dh=60 dv=0 dx=0 dy=0 dh=0 dv=0
PairPos2: "'kern' Horizontal Kerning in Arabic lookup 2 per glyph data 2" afii57415.short dx=60 dy=0 dh=60 dv=0 dx=0 dy=0 dh=0 dv=0
PairPos2: "'kern' Horizontal Kerning in Arabic lookup 2 per glyph data 2" afii57415 dx=60 dy=0 dh=60 dv=0 dx=0 dy=0 dh=0 dv=0
PairPos2: "'kern' Horizontal Kerning in Arabic lookup 2 per glyph data 1" uniFEF3 dx=40 dy=0 dh=40 dv=0 dx=0 dy=0 dh=0 dv=0
PairPos2: "'kern' Horizontal Kerning in Arabic lookup 2 per glyph data 1" uniFB58 dx=40 dy=0 dh=40 dv=0 dx=0 dy=0 dh=0 dv=0
PairPos2: "'kern' Horizontal Kerning in Arabic lookup 2 per glyph data 1" afii57413 dx=40 dy=0 dh=40 dv=0 dx=0 dy=0 dh=0 dv=0
PairPos2: "'kern' Horizontal Kerning in Arabic lookup 2 per glyph data 1" uniFB94 dx=110 dy=0 dh=110 dv=0 dx=0 dy=0 dh=0 dv=0
PairPos2: "'kern' Horizontal Kerning in Arabic lookup 2 per glyph data 1" afii57509 dx=110 dy=0 dh=110 dv=0 dx=0 dy=0 dh=0 dv=0
PairPos2: "'kern' Horizontal Kerning in Arabic lookup 2 per glyph data 1" uniFB90 dx=110 dy=0 dh=110 dv=0 dx=0 dy=0 dh=0 dv=0
PairPos2: "'kern' Horizontal Kerning in Arabic lookup 2 per glyph data 1" uni06A9 dx=110 dy=0 dh=110 dv=0 dx=0 dy=0 dh=0 dv=0
PairPos2: "'kern' Horizontal Kerning in Arabic lookup 2 per glyph data 1" uniFEDB dx=110 dy=0 dh=110 dv=0 dx=0 dy=0 dh=0 dv=0
EndChar

StartChar: uni066E.init.wide
Encoding: 530 -1 74
Width: 281
GlyphClass: 2
Flags: W
AnchorPoint: "Anchor-11" 0 0 basechar 0
AnchorPoint: "Anchor-10" 154 324 basechar 0
AnchorPoint: "Anchor-9" 150 0 basechar 0
LayerCount: 2
Fore
SplineSet
20 49 m 1,0,-1
 39 49 l 2,1,2
 81 49 81 49 115 56.5 c 128,-1,3
 149 64 149 64 166 78 c 1,4,5
 175 105 175 105 175 135 c 0,6,7
 175 202 175 202 132 295 c 1,8,-1
 169 325 l 1,9,-1
 175 325 l 1,10,11
 197 274 197 274 209 230.5 c 128,-1,12
 221 187 221 187 221 157 c 0,13,14
 221 122 221 122 211 88.5 c 128,-1,15
 201 55 201 55 184 38 c 0,16,17
 146 0 146 0 27 0 c 2,18,-1
 0 0 l 1,19,-1
 20 49 l 1,0,-1
EndSplineSet
PairPos2: "'kern' Horizontal Kerning in Arabic lookup 2 per glyph data 2" uni0671 dx=60 dy=0 dh=60 dv=0 dx=0 dy=0 dh=0 dv=0
PairPos2: "'kern' Horizontal Kerning in Arabic lookup 2 per glyph data 2" afii57410 dx=60 dy=0 dh=60 dv=0 dx=0 dy=0 dh=0 dv=0
PairPos2: "'kern' Horizontal Kerning in Arabic lookup 2 per glyph data 2" afii57411 dx=60 dy=0 dh=60 dv=0 dx=0 dy=0 dh=0 dv=0
PairPos2: "'kern' Horizontal Kerning in Arabic lookup 2 per glyph data 2" uniFE8E.short dx=60 dy=0 dh=60 dv=0 dx=0 dy=0 dh=0 dv=0
PairPos2: "'kern' Horizontal Kerning in Arabic lookup 2 per glyph data 2" afii57415.short dx=60 dy=0 dh=60 dv=0 dx=0 dy=0 dh=0 dv=0
PairPos2: "'kern' Horizontal Kerning in Arabic lookup 2 per glyph data 2" afii57415 dx=60 dy=0 dh=60 dv=0 dx=0 dy=0 dh=0 dv=0
PairPos2: "'kern' Horizontal Kerning in Arabic lookup 2 per glyph data 1" uniFEF3 dx=40 dy=0 dh=40 dv=0 dx=0 dy=0 dh=0 dv=0
PairPos2: "'kern' Horizontal Kerning in Arabic lookup 2 per glyph data 1" uniFB58 dx=40 dy=0 dh=40 dv=0 dx=0 dy=0 dh=0 dv=0
PairPos2: "'kern' Horizontal Kerning in Arabic lookup 2 per glyph data 1" afii57413 dx=40 dy=0 dh=40 dv=0 dx=0 dy=0 dh=0 dv=0
PairPos2: "'kern' Horizontal Kerning in Arabic lookup 2 per glyph data 1" uniFB94 dx=110 dy=0 dh=110 dv=0 dx=0 dy=0 dh=0 dv=0
PairPos2: "'kern' Horizontal Kerning in Arabic lookup 2 per glyph data 1" afii57509 dx=110 dy=0 dh=110 dv=0 dx=0 dy=0 dh=0 dv=0
PairPos2: "'kern' Horizontal Kerning in Arabic lookup 2 per glyph data 1" uniFB90 dx=110 dy=0 dh=110 dv=0 dx=0 dy=0 dh=0 dv=0
PairPos2: "'kern' Horizontal Kerning in Arabic lookup 2 per glyph data 1" uni06A9 dx=110 dy=0 dh=110 dv=0 dx=0 dy=0 dh=0 dv=0
PairPos2: "'kern' Horizontal Kerning in Arabic lookup 2 per glyph data 1" uniFEDB dx=110 dy=0 dh=110 dv=0 dx=0 dy=0 dh=0 dv=0
EndChar

StartChar: uniFBE8.yeh
Encoding: 532 -1 84
Width: 250
GlyphClass: 2
Flags: W
AnchorPoint: "Anchor-11" 0 0 basechar 0
AnchorPoint: "Anchor-10" 87 260 basechar 0
AnchorPoint: "Anchor-9" 143 -230 basechar 0
AnchorPoint: "Cursive-0" 0 13 exit 0
LayerCount: 2
Fore
SplineSet
0 13 m 1,0,1
 81 44 81 44 116 79 c 1,2,3
 115 105 115 105 101 151.5 c 128,-1,4
 87 198 87 198 67 244 c 1,5,-1
 105 273 l 1,6,-1
 111 273 l 1,7,8
 133 223 133 223 146.5 176 c 128,-1,9
 160 129 160 129 160 100 c 0,10,11
 160 80 160 80 150.5 63 c 128,-1,12
 141 46 141 46 118 28 c 128,-1,13
 95 10 95 10 54 -12 c 1,14,-1
 24 -17 l 1,15,-1
 0 13 l 1,0,1
EndSplineSet
PairPos2: "'kern' Horizontal Kerning in Arabic lookup 2 per glyph data 2" uni0671 dx=60 dy=0 dh=60 dv=0 dx=0 dy=0 dh=0 dv=0
PairPos2: "'kern' Horizontal Kerning in Arabic lookup 2 per glyph data 2" afii57410 dx=60 dy=0 dh=60 dv=0 dx=0 dy=0 dh=0 dv=0
PairPos2: "'kern' Horizontal Kerning in Arabic lookup 2 per glyph data 2" afii57411 dx=60 dy=0 dh=60 dv=0 dx=0 dy=0 dh=0 dv=0
PairPos2: "'kern' Horizontal Kerning in Arabic lookup 2 per glyph data 2" uniFE8E.short dx=60 dy=0 dh=60 dv=0 dx=0 dy=0 dh=0 dv=0
PairPos2: "'kern' Horizontal Kerning in Arabic lookup 2 per glyph data 2" afii57415.short dx=60 dy=0 dh=60 dv=0 dx=0 dy=0 dh=0 dv=0
PairPos2: "'kern' Horizontal Kerning in Arabic lookup 2 per glyph data 2" afii57415 dx=60 dy=0 dh=60 dv=0 dx=0 dy=0 dh=0 dv=0
PairPos2: "'kern' Horizontal Kerning in Arabic lookup 2 per glyph data 1" uniFEF3 dx=40 dy=0 dh=40 dv=0 dx=0 dy=0 dh=0 dv=0
PairPos2: "'kern' Horizontal Kerning in Arabic lookup 2 per glyph data 1" uniFB58 dx=40 dy=0 dh=40 dv=0 dx=0 dy=0 dh=0 dv=0
PairPos2: "'kern' Horizontal Kerning in Arabic lookup 2 per glyph data 1" afii57413 dx=40 dy=0 dh=40 dv=0 dx=0 dy=0 dh=0 dv=0
PairPos2: "'kern' Horizontal Kerning in Arabic lookup 2 per glyph data 1" uniFB94 dx=110 dy=0 dh=110 dv=0 dx=0 dy=0 dh=0 dv=0
PairPos2: "'kern' Horizontal Kerning in Arabic lookup 2 per glyph data 1" afii57509 dx=110 dy=0 dh=110 dv=0 dx=0 dy=0 dh=0 dv=0
PairPos2: "'kern' Horizontal Kerning in Arabic lookup 2 per glyph data 1" uniFB90 dx=110 dy=0 dh=110 dv=0 dx=0 dy=0 dh=0 dv=0
PairPos2: "'kern' Horizontal Kerning in Arabic lookup 2 per glyph data 1" uni06A9 dx=110 dy=0 dh=110 dv=0 dx=0 dy=0 dh=0 dv=0
PairPos2: "'kern' Horizontal Kerning in Arabic lookup 2 per glyph data 1" uniFEDB dx=110 dy=0 dh=110 dv=0 dx=0 dy=0 dh=0 dv=0
EndChar

StartChar: afii57421
Encoding: 253 1581 107
Width: 609
GlyphClass: 2
Flags: W
AnchorPoint: "Anchor-11" 346 -113 basechar 0
AnchorPoint: "Anchor-10" 308 330 basechar 0
AnchorPoint: "Anchor-9" 371 -416 basechar 0
LayerCount: 2
Fore
SplineSet
584 -343 m 1,0,-1
 570 -381 l 1,1,2
 533 -397 533 -397 477.5 -406.5 c 128,-1,3
 422 -416 422 -416 371 -416 c 0,4,5
 274 -416 274 -416 200 -386 c 128,-1,6
 126 -356 126 -356 85.5 -299 c 128,-1,7
 45 -242 45 -242 45 -163 c 0,8,9
 45 -79 45 -79 88 -2.5 c 128,-1,10
 131 74 131 74 212 133 c 128,-1,11
 293 192 293 192 402 225 c 1,12,13
 369 232 369 232 313 250 c 0,14,15
 256 268 256 268 222.5 274.5 c 128,-1,16
 189 281 189 281 158 281 c 0,17,18
 107 281 107 281 51 264 c 1,19,-1
 47 268 l 1,20,-1
 70 315 l 1,21,22
 105 330 105 330 159 330 c 0,23,24
 196 330 196 330 228.5 323.5 c 128,-1,25
 261 317 261 317 312 300 c 0,26,27
 383 277 383 277 443.5 267 c 128,-1,28
 504 257 504 257 577 257 c 1,29,-1
 563 207 l 1,30,31
 425 196 425 196 318 145 c 128,-1,32
 211 94 211 94 152 15.5 c 128,-1,33
 93 -63 93 -63 93 -156 c 0,34,35
 93 -222 93 -222 128 -269.5 c 128,-1,36
 163 -317 163 -317 227.5 -342 c 128,-1,37
 292 -367 292 -367 377 -367 c 0,38,39
 479 -367 479 -367 578 -335 c 1,40,-1
 584 -343 l 1,0,-1
EndSplineSet
Substitution2: "'fina' Terminal Forms in Arabic lookup 18 subtable" uniFEA2
Substitution2: "'medi' Medial Forms in Arabic lookup 17 subtable" uniFEA4
Substitution2: "'init' Initial Forms in Arabic lookup 16 subtable" uniFEA3
AlternateSubs2: "'aalt' Access All Alternates in Arabic lookup 1 subtable" uniFEA2 uniFEA4 uniFEA3
PairPos2: "'kern' Horizontal Kerning in Arabic lookup 2 per glyph data 2" uni0671 dx=60 dy=0 dh=60 dv=0 dx=0 dy=0 dh=0 dv=0
PairPos2: "'kern' Horizontal Kerning in Arabic lookup 2 per glyph data 2" afii57410 dx=60 dy=0 dh=60 dv=0 dx=0 dy=0 dh=0 dv=0
PairPos2: "'kern' Horizontal Kerning in Arabic lookup 2 per glyph data 2" afii57411 dx=60 dy=0 dh=60 dv=0 dx=0 dy=0 dh=0 dv=0
PairPos2: "'kern' Horizontal Kerning in Arabic lookup 2 per glyph data 2" uniFE8E.short dx=60 dy=0 dh=60 dv=0 dx=0 dy=0 dh=0 dv=0
PairPos2: "'kern' Horizontal Kerning in Arabic lookup 2 per glyph data 2" afii57415.short dx=60 dy=0 dh=60 dv=0 dx=0 dy=0 dh=0 dv=0
PairPos2: "'kern' Horizontal Kerning in Arabic lookup 2 per glyph data 2" afii57415 dx=60 dy=0 dh=60 dv=0 dx=0 dy=0 dh=0 dv=0
PairPos2: "'kern' Horizontal Kerning in Arabic lookup 2 per glyph data 1" uniFEF3 dx=40 dy=0 dh=40 dv=0 dx=0 dy=0 dh=0 dv=0
PairPos2: "'kern' Horizontal Kerning in Arabic lookup 2 per glyph data 1" uniFB58 dx=40 dy=0 dh=40 dv=0 dx=0 dy=0 dh=0 dv=0
PairPos2: "'kern' Horizontal Kerning in Arabic lookup 2 per glyph data 1" afii57413 dx=40 dy=0 dh=40 dv=0 dx=0 dy=0 dh=0 dv=0
PairPos2: "'kern' Horizontal Kerning in Arabic lookup 2 per glyph data 1" uniFB94 dx=110 dy=0 dh=110 dv=0 dx=0 dy=0 dh=0 dv=0
PairPos2: "'kern' Horizontal Kerning in Arabic lookup 2 per glyph data 1" afii57509 dx=110 dy=0 dh=110 dv=0 dx=0 dy=0 dh=0 dv=0
PairPos2: "'kern' Horizontal Kerning in Arabic lookup 2 per glyph data 1" uniFB90 dx=110 dy=0 dh=110 dv=0 dx=0 dy=0 dh=0 dv=0
PairPos2: "'kern' Horizontal Kerning in Arabic lookup 2 per glyph data 1" uni06A9 dx=110 dy=0 dh=110 dv=0 dx=0 dy=0 dh=0 dv=0
PairPos2: "'kern' Horizontal Kerning in Arabic lookup 2 per glyph data 1" uniFEDB dx=110 dy=0 dh=110 dv=0 dx=0 dy=0 dh=0 dv=0
EndChar

StartChar: uniFEA2
Encoding: 452 65186 108
Width: 699
GlyphClass: 2
Flags: W
AnchorPoint: "Anchor-11" 346 -113 basechar 0
AnchorPoint: "Anchor-10" 308 330 basechar 0
AnchorPoint: "Anchor-9" 371 -416 basechar 0
LayerCount: 2
Fore
SplineSet
746 31 m 0,1,2
 746 18 746 18 734 9 c 128,-1,3
 722 0 722 0 699 0 c 0,4,5
 634 0 634 0 590 14.5 c 128,-1,6
 546 29 546 29 513 70.5 c 128,-1,7
 480 112 480 112 456 191 c 1,8,9
 347 167 347 167 264.5 116 c 128,-1,10
 182 65 182 65 137.5 -5.5 c 128,-1,11
 93 -76 93 -76 93 -156 c 0,12,13
 93 -222 93 -222 128 -269.5 c 128,-1,14
 163 -317 163 -317 227.5 -342 c 128,-1,15
 292 -367 292 -367 377 -367 c 0,16,17
 479 -367 479 -367 578 -335 c 1,18,-1
 584 -343 l 1,19,-1
 570 -381 l 1,20,21
 533 -397 533 -397 477.5 -406.5 c 128,-1,22
 422 -416 422 -416 371 -416 c 0,23,24
 274 -416 274 -416 200 -386 c 128,-1,25
 126 -356 126 -356 85.5 -299 c 128,-1,26
 45 -242 45 -242 45 -163 c 0,27,28
 45 -79 45 -79 88 -2.5 c 128,-1,29
 131 74 131 74 212 133 c 128,-1,30
 293 192 293 192 402 225 c 1,31,32
 369 232 369 232 313 250 c 0,33,34
 256 268 256 268 222.5 274.5 c 128,-1,35
 189 281 189 281 158 281 c 0,36,37
 107 281 107 281 51 264 c 1,38,-1
 47 268 l 1,39,-1
 70 315 l 1,40,41
 105 330 105 330 159 330 c 0,42,43
 196 330 196 330 228.5 323.5 c 128,-1,44
 261 317 261 317 312 300 c 0,45,46
 383 277 383 277 443.5 267 c 128,-1,47
 504 257 504 257 577 257 c 1,48,-1
 563 207 l 1,49,50
 521 203 521 203 501 200 c 1,51,52
 522 138 522 138 548.5 105.5 c 128,-1,53
 575 73 575 73 614 61 c 128,-1,54
 653 49 653 49 719 49 c 0,55,0
 746 49 746 49 746 31 c 0,1,2
EndSplineSet
PairPos2: "'kern' Horizontal Kerning in Arabic lookup 2 per glyph data 2" uni0671 dx=60 dy=0 dh=60 dv=0 dx=0 dy=0 dh=0 dv=0
PairPos2: "'kern' Horizontal Kerning in Arabic lookup 2 per glyph data 2" afii57410 dx=60 dy=0 dh=60 dv=0 dx=0 dy=0 dh=0 dv=0
PairPos2: "'kern' Horizontal Kerning in Arabic lookup 2 per glyph data 2" afii57411 dx=60 dy=0 dh=60 dv=0 dx=0 dy=0 dh=0 dv=0
PairPos2: "'kern' Horizontal Kerning in Arabic lookup 2 per glyph data 2" uniFE8E.short dx=60 dy=0 dh=60 dv=0 dx=0 dy=0 dh=0 dv=0
PairPos2: "'kern' Horizontal Kerning in Arabic lookup 2 per glyph data 2" afii57415.short dx=60 dy=0 dh=60 dv=0 dx=0 dy=0 dh=0 dv=0
PairPos2: "'kern' Horizontal Kerning in Arabic lookup 2 per glyph data 2" afii57415 dx=60 dy=0 dh=60 dv=0 dx=0 dy=0 dh=0 dv=0
PairPos2: "'kern' Horizontal Kerning in Arabic lookup 2 per glyph data 1" uniFEF3 dx=40 dy=0 dh=40 dv=0 dx=0 dy=0 dh=0 dv=0
PairPos2: "'kern' Horizontal Kerning in Arabic lookup 2 per glyph data 1" uniFB58 dx=40 dy=0 dh=40 dv=0 dx=0 dy=0 dh=0 dv=0
PairPos2: "'kern' Horizontal Kerning in Arabic lookup 2 per glyph data 1" afii57413 dx=40 dy=0 dh=40 dv=0 dx=0 dy=0 dh=0 dv=0
PairPos2: "'kern' Horizontal Kerning in Arabic lookup 2 per glyph data 1" uniFB94 dx=110 dy=0 dh=110 dv=0 dx=0 dy=0 dh=0 dv=0
PairPos2: "'kern' Horizontal Kerning in Arabic lookup 2 per glyph data 1" afii57509 dx=110 dy=0 dh=110 dv=0 dx=0 dy=0 dh=0 dv=0
PairPos2: "'kern' Horizontal Kerning in Arabic lookup 2 per glyph data 1" uniFB90 dx=110 dy=0 dh=110 dv=0 dx=0 dy=0 dh=0 dv=0
PairPos2: "'kern' Horizontal Kerning in Arabic lookup 2 per glyph data 1" uni06A9 dx=110 dy=0 dh=110 dv=0 dx=0 dy=0 dh=0 dv=0
PairPos2: "'kern' Horizontal Kerning in Arabic lookup 2 per glyph data 1" uniFEDB dx=110 dy=0 dh=110 dv=0 dx=0 dy=0 dh=0 dv=0
EndChar

StartChar: uniFEA4
Encoding: 454 65188 109
Width: 616
GlyphClass: 2
Flags: W
AnchorPoint: "Anchor-11" 0 0 basechar 0
AnchorPoint: "Anchor-10" 173 330 basechar 0
AnchorPoint: "Anchor-9" 257 0 basechar 0
LayerCount: 2
Fore
SplineSet
656 44.5 m 128,-1,1
 662 40 662 40 662 31 c 0,2,3
 662 18 662 18 649.5 9 c 128,-1,4
 637 0 637 0 616 0 c 0,5,6
 552 0 552 0 512 11.5 c 128,-1,7
 472 23 472 23 448 45.5 c 128,-1,8
 424 68 424 68 408 105 c 1,9,10
 332 83 332 83 264 59 c 0,11,12
 169 26 169 26 111 13 c 128,-1,13
 53 0 53 0 0 0 c 1,14,-1
 19 49 l 1,15,16
 61 49 61 49 110.5 60.5 c 128,-1,17
 160 72 160 72 251 104 c 0,18,19
 315 126 315 126 360.5 139 c 128,-1,20
 406 152 406 152 443 159 c 1,21,22
 402 174 402 174 330 216 c 0,23,24
 265 253 265 253 229.5 267 c 128,-1,25
 194 281 194 281 164 281 c 0,26,27
 125 281 125 281 79 265 c 1,28,-1
 75 269 l 1,29,-1
 93 313 l 1,30,31
 132 330 132 330 173 330 c 0,32,33
 202 330 202 330 239.5 315 c 128,-1,34
 277 300 277 300 344 262 c 0,35,36
 419 219 419 219 466.5 200.5 c 128,-1,37
 514 182 514 182 555 180 c 1,38,-1
 542 132 l 1,39,40
 496 126 496 126 456 116 c 1,41,42
 468 91 468 91 489 76.5 c 128,-1,43
 510 62 510 62 545.5 55.5 c 128,-1,44
 581 49 581 49 636 49 c 0,45,0
 650 49 650 49 656 44.5 c 128,-1,1
EndSplineSet
PairPos2: "'kern' Horizontal Kerning in Arabic lookup 2 per glyph data 2" uni0671 dx=60 dy=0 dh=60 dv=0 dx=0 dy=0 dh=0 dv=0
PairPos2: "'kern' Horizontal Kerning in Arabic lookup 2 per glyph data 2" afii57410 dx=60 dy=0 dh=60 dv=0 dx=0 dy=0 dh=0 dv=0
PairPos2: "'kern' Horizontal Kerning in Arabic lookup 2 per glyph data 2" afii57411 dx=60 dy=0 dh=60 dv=0 dx=0 dy=0 dh=0 dv=0
PairPos2: "'kern' Horizontal Kerning in Arabic lookup 2 per glyph data 2" uniFE8E.short dx=60 dy=0 dh=60 dv=0 dx=0 dy=0 dh=0 dv=0
PairPos2: "'kern' Horizontal Kerning in Arabic lookup 2 per glyph data 2" afii57415.short dx=60 dy=0 dh=60 dv=0 dx=0 dy=0 dh=0 dv=0
PairPos2: "'kern' Horizontal Kerning in Arabic lookup 2 per glyph data 2" afii57415 dx=60 dy=0 dh=60 dv=0 dx=0 dy=0 dh=0 dv=0
PairPos2: "'kern' Horizontal Kerning in Arabic lookup 2 per glyph data 1" uniFEF3 dx=40 dy=0 dh=40 dv=0 dx=0 dy=0 dh=0 dv=0
PairPos2: "'kern' Horizontal Kerning in Arabic lookup 2 per glyph data 1" uniFB58 dx=40 dy=0 dh=40 dv=0 dx=0 dy=0 dh=0 dv=0
PairPos2: "'kern' Horizontal Kerning in Arabic lookup 2 per glyph data 1" afii57413 dx=40 dy=0 dh=40 dv=0 dx=0 dy=0 dh=0 dv=0
PairPos2: "'kern' Horizontal Kerning in Arabic lookup 2 per glyph data 1" uniFB94 dx=110 dy=0 dh=110 dv=0 dx=0 dy=0 dh=0 dv=0
PairPos2: "'kern' Horizontal Kerning in Arabic lookup 2 per glyph data 1" afii57509 dx=110 dy=0 dh=110 dv=0 dx=0 dy=0 dh=0 dv=0
PairPos2: "'kern' Horizontal Kerning in Arabic lookup 2 per glyph data 1" uniFB90 dx=110 dy=0 dh=110 dv=0 dx=0 dy=0 dh=0 dv=0
PairPos2: "'kern' Horizontal Kerning in Arabic lookup 2 per glyph data 1" uni06A9 dx=110 dy=0 dh=110 dv=0 dx=0 dy=0 dh=0 dv=0
PairPos2: "'kern' Horizontal Kerning in Arabic lookup 2 per glyph data 1" uniFEDB dx=110 dy=0 dh=110 dv=0 dx=0 dy=0 dh=0 dv=0
EndChar

StartChar: uniFEA3
Encoding: 453 65187 110
Width: 590
GlyphClass: 2
Flags: W
AnchorPoint: "Anchor-11" 0 0 basechar 0
AnchorPoint: "Anchor-10" 173 330 basechar 0
AnchorPoint: "Anchor-9" 257 0 basechar 0
LayerCount: 2
Fore
SplineSet
466.5 200 m 128,-1,1
 515 181 515 181 555 179 c 1,2,-1
 542 131 l 1,3,4
 483 123 483 123 417.5 106.5 c 128,-1,5
 352 90 352 90 265 60 c 0,6,7
 165 25 165 25 109.5 12.5 c 128,-1,8
 54 0 54 0 0 0 c 1,9,-1
 19 49 l 1,10,11
 61 49 61 49 110 61 c 128,-1,12
 159 73 159 73 251 104 c 0,13,14
 322 127 322 127 365.5 140 c 128,-1,15
 409 153 409 153 443 159 c 1,16,17
 400 175 400 175 330 216 c 0,18,19
 267 252 267 252 230.5 266.5 c 128,-1,20
 194 281 194 281 164 281 c 0,21,22
 125 281 125 281 79 265 c 1,23,-1
 75 269 l 1,24,-1
 93 313 l 1,25,26
 132 330 132 330 173 330 c 0,27,28
 202 330 202 330 239.5 315 c 128,-1,29
 277 300 277 300 344 262 c 0,30,0
 418 219 418 219 466.5 200 c 128,-1,1
EndSplineSet
PairPos2: "'kern' Horizontal Kerning in Arabic lookup 2 per glyph data 2" uni0671 dx=60 dy=0 dh=60 dv=0 dx=0 dy=0 dh=0 dv=0
PairPos2: "'kern' Horizontal Kerning in Arabic lookup 2 per glyph data 2" afii57410 dx=60 dy=0 dh=60 dv=0 dx=0 dy=0 dh=0 dv=0
PairPos2: "'kern' Horizontal Kerning in Arabic lookup 2 per glyph data 2" afii57411 dx=60 dy=0 dh=60 dv=0 dx=0 dy=0 dh=0 dv=0
PairPos2: "'kern' Horizontal Kerning in Arabic lookup 2 per glyph data 2" uniFE8E.short dx=60 dy=0 dh=60 dv=0 dx=0 dy=0 dh=0 dv=0
PairPos2: "'kern' Horizontal Kerning in Arabic lookup 2 per glyph data 2" afii57415.short dx=60 dy=0 dh=60 dv=0 dx=0 dy=0 dh=0 dv=0
PairPos2: "'kern' Horizontal Kerning in Arabic lookup 2 per glyph data 2" afii57415 dx=60 dy=0 dh=60 dv=0 dx=0 dy=0 dh=0 dv=0
PairPos2: "'kern' Horizontal Kerning in Arabic lookup 2 per glyph data 1" uniFEF3 dx=40 dy=0 dh=40 dv=0 dx=0 dy=0 dh=0 dv=0
PairPos2: "'kern' Horizontal Kerning in Arabic lookup 2 per glyph data 1" uniFB58 dx=40 dy=0 dh=40 dv=0 dx=0 dy=0 dh=0 dv=0
PairPos2: "'kern' Horizontal Kerning in Arabic lookup 2 per glyph data 1" afii57413 dx=40 dy=0 dh=40 dv=0 dx=0 dy=0 dh=0 dv=0
PairPos2: "'kern' Horizontal Kerning in Arabic lookup 2 per glyph data 1" uniFB94 dx=110 dy=0 dh=110 dv=0 dx=0 dy=0 dh=0 dv=0
PairPos2: "'kern' Horizontal Kerning in Arabic lookup 2 per glyph data 1" afii57509 dx=110 dy=0 dh=110 dv=0 dx=0 dy=0 dh=0 dv=0
PairPos2: "'kern' Horizontal Kerning in Arabic lookup 2 per glyph data 1" uniFB90 dx=110 dy=0 dh=110 dv=0 dx=0 dy=0 dh=0 dv=0
PairPos2: "'kern' Horizontal Kerning in Arabic lookup 2 per glyph data 1" uni06A9 dx=110 dy=0 dh=110 dv=0 dx=0 dy=0 dh=0 dv=0
PairPos2: "'kern' Horizontal Kerning in Arabic lookup 2 per glyph data 1" uniFEDB dx=110 dy=0 dh=110 dv=0 dx=0 dy=0 dh=0 dv=0
EndChar

StartChar: afii57423
Encoding: 255 1583 115
Width: 419
GlyphClass: 2
Flags: W
AnchorPoint: "Anchor-11" 0 0 basechar 0
AnchorPoint: "Anchor-10" 185 408 basechar 0
AnchorPoint: "Anchor-9" 224 0 basechar 0
LayerCount: 2
Fore
SplineSet
85 1 m 128,-1,1
 47 5 47 5 28 10 c 1,2,-1
 34 53 l 1,3,-1
 39 57 l 1,4,5
 62 53 62 53 97 50 c 128,-1,6
 132 47 132 47 158 47 c 0,7,8
 223 47 223 47 269.5 64 c 128,-1,9
 316 81 316 81 327 109 c 1,10,11
 315 215 315 215 170 364 c 1,12,-1
 195 408 l 1,13,-1
 202 408 l 1,14,15
 279 327 279 327 324 253.5 c 128,-1,16
 369 180 369 180 369 125 c 0,17,18
 369 64 369 64 312.5 30.5 c 128,-1,19
 256 -3 256 -3 155 -3 c 0,20,0
 123 -3 123 -3 85 1 c 128,-1,1
EndSplineSet
Substitution2: "'fina' Terminal Forms in Arabic lookup 18 subtable" uniFEAA
Substitution2: "'aalt' Access All Alternates in Arabic lookup 0 subtable" uniFEAA
PairPos2: "'kern' Horizontal Kerning in Arabic lookup 2 per glyph data 2" uni0671 dx=60 dy=0 dh=60 dv=0 dx=0 dy=0 dh=0 dv=0
PairPos2: "'kern' Horizontal Kerning in Arabic lookup 2 per glyph data 2" afii57410 dx=60 dy=0 dh=60 dv=0 dx=0 dy=0 dh=0 dv=0
PairPos2: "'kern' Horizontal Kerning in Arabic lookup 2 per glyph data 2" afii57411 dx=60 dy=0 dh=60 dv=0 dx=0 dy=0 dh=0 dv=0
PairPos2: "'kern' Horizontal Kerning in Arabic lookup 2 per glyph data 2" uniFE8E.short dx=60 dy=0 dh=60 dv=0 dx=0 dy=0 dh=0 dv=0
PairPos2: "'kern' Horizontal Kerning in Arabic lookup 2 per glyph data 2" afii57415.short dx=60 dy=0 dh=60 dv=0 dx=0 dy=0 dh=0 dv=0
PairPos2: "'kern' Horizontal Kerning in Arabic lookup 2 per glyph data 2" afii57415 dx=60 dy=0 dh=60 dv=0 dx=0 dy=0 dh=0 dv=0
PairPos2: "'kern' Horizontal Kerning in Arabic lookup 2 per glyph data 1" uniFEF3 dx=40 dy=0 dh=40 dv=0 dx=0 dy=0 dh=0 dv=0
PairPos2: "'kern' Horizontal Kerning in Arabic lookup 2 per glyph data 1" uniFB58 dx=40 dy=0 dh=40 dv=0 dx=0 dy=0 dh=0 dv=0
PairPos2: "'kern' Horizontal Kerning in Arabic lookup 2 per glyph data 1" afii57413 dx=40 dy=0 dh=40 dv=0 dx=0 dy=0 dh=0 dv=0
PairPos2: "'kern' Horizontal Kerning in Arabic lookup 2 per glyph data 1" uniFB94 dx=110 dy=0 dh=110 dv=0 dx=0 dy=0 dh=0 dv=0
PairPos2: "'kern' Horizontal Kerning in Arabic lookup 2 per glyph data 1" afii57509 dx=110 dy=0 dh=110 dv=0 dx=0 dy=0 dh=0 dv=0
PairPos2: "'kern' Horizontal Kerning in Arabic lookup 2 per glyph data 1" uniFB90 dx=110 dy=0 dh=110 dv=0 dx=0 dy=0 dh=0 dv=0
PairPos2: "'kern' Horizontal Kerning in Arabic lookup 2 per glyph data 1" uni06A9 dx=110 dy=0 dh=110 dv=0 dx=0 dy=0 dh=0 dv=0
PairPos2: "'kern' Horizontal Kerning in Arabic lookup 2 per glyph data 1" uniFEDB dx=110 dy=0 dh=110 dv=0 dx=0 dy=0 dh=0 dv=0
EndChar

StartChar: uniFEAA
Encoding: 458 65194 116
Width: 467
GlyphClass: 2
Flags: W
AnchorPoint: "Anchor-11" 0 0 basechar 0
AnchorPoint: "Anchor-10" 217 408 basechar 0
AnchorPoint: "Anchor-9" 224 0 basechar 0
LayerCount: 2
Fore
SplineSet
513 31 m 0,1,2
 513 18 513 18 500.5 9 c 128,-1,3
 488 0 488 0 466 0 c 0,4,5
 430 0 430 0 401.5 14 c 128,-1,6
 373 28 373 28 351 66 c 1,7,8
 296 -3 296 -3 154 -3 c 0,9,10
 123 -3 123 -3 85 1 c 128,-1,11
 47 5 47 5 28 10 c 1,12,-1
 34 53 l 1,13,-1
 39 57 l 1,14,15
 61 53 61 53 96.5 50 c 128,-1,16
 132 47 132 47 157 47 c 0,17,18
 218 47 218 47 263.5 64 c 128,-1,19
 309 81 309 81 330 105 c 1,20,21
 301 163 301 163 262 237 c 128,-1,22
 223 311 223 311 190 369 c 1,23,-1
 227 408 l 1,24,-1
 234 408 l 1,25,-1
 254 367 l 2,26,27
 342 183 342 183 376 122 c 0,28,29
 392 92 392 92 407 76.5 c 128,-1,30
 422 61 422 61 440 55 c 128,-1,31
 458 49 458 49 486 49 c 0,32,0
 513 49 513 49 513 31 c 0,1,2
EndSplineSet
PairPos2: "'kern' Horizontal Kerning in Arabic lookup 2 per glyph data 2" uni0671 dx=60 dy=0 dh=60 dv=0 dx=0 dy=0 dh=0 dv=0
PairPos2: "'kern' Horizontal Kerning in Arabic lookup 2 per glyph data 2" afii57410 dx=60 dy=0 dh=60 dv=0 dx=0 dy=0 dh=0 dv=0
PairPos2: "'kern' Horizontal Kerning in Arabic lookup 2 per glyph data 2" afii57411 dx=60 dy=0 dh=60 dv=0 dx=0 dy=0 dh=0 dv=0
PairPos2: "'kern' Horizontal Kerning in Arabic lookup 2 per glyph data 2" uniFE8E.short dx=60 dy=0 dh=60 dv=0 dx=0 dy=0 dh=0 dv=0
PairPos2: "'kern' Horizontal Kerning in Arabic lookup 2 per glyph data 2" afii57415.short dx=60 dy=0 dh=60 dv=0 dx=0 dy=0 dh=0 dv=0
PairPos2: "'kern' Horizontal Kerning in Arabic lookup 2 per glyph data 2" afii57415 dx=60 dy=0 dh=60 dv=0 dx=0 dy=0 dh=0 dv=0
PairPos2: "'kern' Horizontal Kerning in Arabic lookup 2 per glyph data 1" uniFEF3 dx=40 dy=0 dh=40 dv=0 dx=0 dy=0 dh=0 dv=0
PairPos2: "'kern' Horizontal Kerning in Arabic lookup 2 per glyph data 1" uniFB58 dx=40 dy=0 dh=40 dv=0 dx=0 dy=0 dh=0 dv=0
PairPos2: "'kern' Horizontal Kerning in Arabic lookup 2 per glyph data 1" afii57413 dx=40 dy=0 dh=40 dv=0 dx=0 dy=0 dh=0 dv=0
PairPos2: "'kern' Horizontal Kerning in Arabic lookup 2 per glyph data 1" uniFB94 dx=110 dy=0 dh=110 dv=0 dx=0 dy=0 dh=0 dv=0
PairPos2: "'kern' Horizontal Kerning in Arabic lookup 2 per glyph data 1" afii57509 dx=110 dy=0 dh=110 dv=0 dx=0 dy=0 dh=0 dv=0
PairPos2: "'kern' Horizontal Kerning in Arabic lookup 2 per glyph data 1" uniFB90 dx=110 dy=0 dh=110 dv=0 dx=0 dy=0 dh=0 dv=0
PairPos2: "'kern' Horizontal Kerning in Arabic lookup 2 per glyph data 1" uni06A9 dx=110 dy=0 dh=110 dv=0 dx=0 dy=0 dh=0 dv=0
PairPos2: "'kern' Horizontal Kerning in Arabic lookup 2 per glyph data 1" uniFEDB dx=110 dy=0 dh=110 dv=0 dx=0 dy=0 dh=0 dv=0
EndChar

StartChar: afii57425
Encoding: 257 1585 121
Width: 331
GlyphClass: 2
Flags: W
AnchorPoint: "Anchor-11" 0 0 basechar 0
AnchorPoint: "Anchor-10" 179 299 basechar 0
AnchorPoint: "Anchor-9" 80 -175 basechar 0
LayerCount: 2
Fore
SplineSet
-58 -131 m 1,0,-1
 -55 -124 l 1,1,2
 26 -110 26 -110 90.5 -76.5 c 128,-1,3
 155 -43 155 -43 191 -1 c 128,-1,4
 227 41 227 41 227 78 c 0,5,6
 226 110 226 110 207.5 155.5 c 128,-1,7
 189 201 189 201 155 262 c 1,8,-1
 189 299 l 1,9,-1
 196 299 l 1,10,11
 230 238 230 238 250.5 181.5 c 128,-1,12
 271 125 271 125 271 86 c 0,13,14
 271 43 271 43 248 0 c 0,15,16
 227 -39 227 -39 185 -73.5 c 128,-1,17
 143 -108 143 -108 87 -132.5 c 128,-1,18
 31 -157 31 -157 -31 -168 c 1,19,-1
 -58 -131 l 1,0,-1
EndSplineSet
Substitution2: "Single Substitution lookup 23 subtable" afii57425.beh
Substitution2: "'fina' Terminal Forms in Arabic lookup 18 subtable" uniFEAE
AlternateSubs2: "'aalt' Access All Alternates in Arabic lookup 1 subtable" afii57425.beh uniFEAE
PairPos2: "'kern' Horizontal Kerning in Arabic lookup 2 per glyph data 2" uni0671 dx=60 dy=0 dh=60 dv=0 dx=0 dy=0 dh=0 dv=0
PairPos2: "'kern' Horizontal Kerning in Arabic lookup 2 per glyph data 2" afii57410 dx=60 dy=0 dh=60 dv=0 dx=0 dy=0 dh=0 dv=0
PairPos2: "'kern' Horizontal Kerning in Arabic lookup 2 per glyph data 2" afii57411 dx=60 dy=0 dh=60 dv=0 dx=0 dy=0 dh=0 dv=0
PairPos2: "'kern' Horizontal Kerning in Arabic lookup 2 per glyph data 2" uniFE8E.short dx=60 dy=0 dh=60 dv=0 dx=0 dy=0 dh=0 dv=0
PairPos2: "'kern' Horizontal Kerning in Arabic lookup 2 per glyph data 2" afii57415.short dx=60 dy=0 dh=60 dv=0 dx=0 dy=0 dh=0 dv=0
PairPos2: "'kern' Horizontal Kerning in Arabic lookup 2 per glyph data 2" afii57415 dx=60 dy=0 dh=60 dv=0 dx=0 dy=0 dh=0 dv=0
PairPos2: "'kern' Horizontal Kerning in Arabic lookup 2 per glyph data 1" parenleft dx=70 dy=0 dh=70 dv=0 dx=0 dy=0 dh=0 dv=0
PairPos2: "'kern' Horizontal Kerning in Arabic lookup 2 per glyph data 1" uniFBA8 dx=20 dy=0 dh=20 dv=0 dx=0 dy=0 dh=0 dv=0
PairPos2: "'kern' Horizontal Kerning in Arabic lookup 2 per glyph data 1" uniFE91 dx=70 dy=0 dh=70 dv=0 dx=0 dy=0 dh=0 dv=0
PairPos2: "'kern' Horizontal Kerning in Arabic lookup 2 per glyph data 1" uniFEC7 dx=-45 dy=0 dh=-45 dv=0 dx=0 dy=0 dh=0 dv=0
PairPos2: "'kern' Horizontal Kerning in Arabic lookup 2 per glyph data 1" afii57432 dx=-45 dy=0 dh=-45 dv=0 dx=0 dy=0 dh=0 dv=0
PairPos2: "'kern' Horizontal Kerning in Arabic lookup 2 per glyph data 1" uniFEC3 dx=-45 dy=0 dh=-45 dv=0 dx=0 dy=0 dh=0 dv=0
PairPos2: "'kern' Horizontal Kerning in Arabic lookup 2 per glyph data 1" afii57431 dx=-45 dy=0 dh=-45 dv=0 dx=0 dy=0 dh=0 dv=0
PairPos2: "'kern' Horizontal Kerning in Arabic lookup 2 per glyph data 1" uniFEBF dx=-45 dy=0 dh=-45 dv=0 dx=0 dy=0 dh=0 dv=0
PairPos2: "'kern' Horizontal Kerning in Arabic lookup 2 per glyph data 1" afii57430 dx=-45 dy=0 dh=-45 dv=0 dx=0 dy=0 dh=0 dv=0
PairPos2: "'kern' Horizontal Kerning in Arabic lookup 2 per glyph data 1" uniFEBB dx=-45 dy=0 dh=-45 dv=0 dx=0 dy=0 dh=0 dv=0
PairPos2: "'kern' Horizontal Kerning in Arabic lookup 2 per glyph data 1" afii57429 dx=-45 dy=0 dh=-45 dv=0 dx=0 dy=0 dh=0 dv=0
PairPos2: "'kern' Horizontal Kerning in Arabic lookup 2 per glyph data 1" uni06440671 dx=-30 dy=0 dh=-30 dv=0 dx=0 dy=0 dh=0 dv=0
PairPos2: "'kern' Horizontal Kerning in Arabic lookup 2 per glyph data 1" uniFEF5 dx=-30 dy=0 dh=-30 dv=0 dx=0 dy=0 dh=0 dv=0
PairPos2: "'kern' Horizontal Kerning in Arabic lookup 2 per glyph data 1" uniFEF9 dx=-30 dy=0 dh=-30 dv=0 dx=0 dy=0 dh=0 dv=0
PairPos2: "'kern' Horizontal Kerning in Arabic lookup 2 per glyph data 1" uniFEF7 dx=-30 dy=0 dh=-30 dv=0 dx=0 dy=0 dh=0 dv=0
PairPos2: "'kern' Horizontal Kerning in Arabic lookup 2 per glyph data 1" uniFEFB dx=-30 dy=0 dh=-30 dv=0 dx=0 dy=0 dh=0 dv=0
PairPos2: "'kern' Horizontal Kerning in Arabic lookup 2 per glyph data 1" uni06C3 dx=-30 dy=0 dh=-30 dv=0 dx=0 dy=0 dh=0 dv=0
PairPos2: "'kern' Horizontal Kerning in Arabic lookup 2 per glyph data 1" afii57417 dx=-30 dy=0 dh=-30 dv=0 dx=0 dy=0 dh=0 dv=0
PairPos2: "'kern' Horizontal Kerning in Arabic lookup 2 per glyph data 1" uni06C2 dx=-30 dy=0 dh=-30 dv=0 dx=0 dy=0 dh=0 dv=0
PairPos2: "'kern' Horizontal Kerning in Arabic lookup 2 per glyph data 1" uni06C1 dx=-30 dy=0 dh=-30 dv=0 dx=0 dy=0 dh=0 dv=0
PairPos2: "'kern' Horizontal Kerning in Arabic lookup 2 per glyph data 1" afii57470 dx=-30 dy=0 dh=-30 dv=0 dx=0 dy=0 dh=0 dv=0
PairPos2: "'kern' Horizontal Kerning in Arabic lookup 2 per glyph data 1" uniFEA7 dx=-40 dy=0 dh=-40 dv=0 dx=0 dy=0 dh=0 dv=0
PairPos2: "'kern' Horizontal Kerning in Arabic lookup 2 per glyph data 1" uniFEA3 dx=-40 dy=0 dh=-40 dv=0 dx=0 dy=0 dh=0 dv=0
PairPos2: "'kern' Horizontal Kerning in Arabic lookup 2 per glyph data 1" uniFB7C dx=-40 dy=0 dh=-40 dv=0 dx=0 dy=0 dh=0 dv=0
PairPos2: "'kern' Horizontal Kerning in Arabic lookup 2 per glyph data 1" uniFE9F dx=-40 dy=0 dh=-40 dv=0 dx=0 dy=0 dh=0 dv=0
PairPos2: "'kern' Horizontal Kerning in Arabic lookup 2 per glyph data 1" uniFED7 dx=-40 dy=0 dh=-40 dv=0 dx=0 dy=0 dh=0 dv=0
PairPos2: "'kern' Horizontal Kerning in Arabic lookup 2 per glyph data 1" uni06A1.init dx=-40 dy=0 dh=-40 dv=0 dx=0 dy=0 dh=0 dv=0
PairPos2: "'kern' Horizontal Kerning in Arabic lookup 2 per glyph data 1" uni06A1 dx=-40 dy=0 dh=-40 dv=0 dx=0 dy=0 dh=0 dv=0
PairPos2: "'kern' Horizontal Kerning in Arabic lookup 2 per glyph data 1" uniFB6C dx=-40 dy=0 dh=-40 dv=0 dx=0 dy=0 dh=0 dv=0
PairPos2: "'kern' Horizontal Kerning in Arabic lookup 2 per glyph data 1" afii57505 dx=-40 dy=0 dh=-40 dv=0 dx=0 dy=0 dh=0 dv=0
PairPos2: "'kern' Horizontal Kerning in Arabic lookup 2 per glyph data 1" uniFED3 dx=-40 dy=0 dh=-40 dv=0 dx=0 dy=0 dh=0 dv=0
PairPos2: "'kern' Horizontal Kerning in Arabic lookup 2 per glyph data 1" afii57441 dx=-40 dy=0 dh=-40 dv=0 dx=0 dy=0 dh=0 dv=0
PairPos2: "'kern' Horizontal Kerning in Arabic lookup 2 per glyph data 1" afii57424 dx=-20 dy=0 dh=-20 dv=0 dx=0 dy=0 dh=0 dv=0
PairPos2: "'kern' Horizontal Kerning in Arabic lookup 2 per glyph data 1" afii57423 dx=-20 dy=0 dh=-20 dv=0 dx=0 dy=0 dh=0 dv=0
PairPos2: "'kern' Horizontal Kerning in Arabic lookup 2 per glyph data 1" uniFE8B dx=-30 dy=0 dh=-30 dv=0 dx=0 dy=0 dh=0 dv=0
PairPos2: "'kern' Horizontal Kerning in Arabic lookup 2 per glyph data 1" uniFEE7 dx=-30 dy=0 dh=-30 dv=0 dx=0 dy=0 dh=0 dv=0
PairPos2: "'kern' Horizontal Kerning in Arabic lookup 2 per glyph data 1" uniFEB7 dx=-30 dy=0 dh=-30 dv=0 dx=0 dy=0 dh=0 dv=0
PairPos2: "'kern' Horizontal Kerning in Arabic lookup 2 per glyph data 1" afii57428 dx=-30 dy=0 dh=-30 dv=0 dx=0 dy=0 dh=0 dv=0
PairPos2: "'kern' Horizontal Kerning in Arabic lookup 2 per glyph data 1" uniFEB3 dx=-30 dy=0 dh=-30 dv=0 dx=0 dy=0 dh=0 dv=0
PairPos2: "'kern' Horizontal Kerning in Arabic lookup 2 per glyph data 1" afii57427 dx=-30 dy=0 dh=-30 dv=0 dx=0 dy=0 dh=0 dv=0
PairPos2: "'kern' Horizontal Kerning in Arabic lookup 2 per glyph data 1" uniFB68 dx=-30 dy=0 dh=-30 dv=0 dx=0 dy=0 dh=0 dv=0
PairPos2: "'kern' Horizontal Kerning in Arabic lookup 2 per glyph data 1" uniFE9B dx=-30 dy=0 dh=-30 dv=0 dx=0 dy=0 dh=0 dv=0
PairPos2: "'kern' Horizontal Kerning in Arabic lookup 2 per glyph data 1" uniFE97 dx=-30 dy=0 dh=-30 dv=0 dx=0 dy=0 dh=0 dv=0
PairPos2: "'kern' Horizontal Kerning in Arabic lookup 2 per glyph data 1" uni066E.init.wide dx=-30 dy=0 dh=-30 dv=0 dx=0 dy=0 dh=0 dv=0
PairPos2: "'kern' Horizontal Kerning in Arabic lookup 2 per glyph data 1" uni066E.init dx=-30 dy=0 dh=-30 dv=0 dx=0 dy=0 dh=0 dv=0
PairPos2: "'kern' Horizontal Kerning in Arabic lookup 2 per glyph data 1" uni0671 dx=-10 dy=0 dh=-10 dv=0 dx=0 dy=0 dh=0 dv=0
PairPos2: "'kern' Horizontal Kerning in Arabic lookup 2 per glyph data 1" afii57410 dx=-10 dy=0 dh=-10 dv=0 dx=0 dy=0 dh=0 dv=0
PairPos2: "'kern' Horizontal Kerning in Arabic lookup 2 per glyph data 1" afii57411 dx=-10 dy=0 dh=-10 dv=0 dx=0 dy=0 dh=0 dv=0
PairPos2: "'kern' Horizontal Kerning in Arabic lookup 2 per glyph data 1" uniFE8E.short dx=-10 dy=0 dh=-10 dv=0 dx=0 dy=0 dh=0 dv=0
PairPos2: "'kern' Horizontal Kerning in Arabic lookup 2 per glyph data 1" afii57415.short dx=-10 dy=0 dh=-10 dv=0 dx=0 dy=0 dh=0 dv=0
PairPos2: "'kern' Horizontal Kerning in Arabic lookup 2 per glyph data 1" afii57415 dx=-10 dy=0 dh=-10 dv=0 dx=0 dy=0 dh=0 dv=0
PairPos2: "'kern' Horizontal Kerning in Arabic lookup 2 per glyph data 1" uniFEF3 dx=88 dy=0 dh=88 dv=0 dx=0 dy=0 dh=0 dv=0
PairPos2: "'kern' Horizontal Kerning in Arabic lookup 2 per glyph data 1" uniFB58 dx=88 dy=0 dh=88 dv=0 dx=0 dy=0 dh=0 dv=0
PairPos2: "'kern' Horizontal Kerning in Arabic lookup 2 per glyph data 1" afii57413 dx=6 dy=0 dh=6 dv=0 dx=0 dy=0 dh=0 dv=0
EndChar

